<svg width="1024" height="753" viewBox="0 0 1024 753" fill="none" xmlns="http://www.w3.org/2000/svg">
<g opacity="0.2" filter="url(#filter0_f_175_1885)">
<ellipse cx="511.5" cy="379" rx="670.5" ry="350" fill="#338AF3"/>
</g>
<path d="M32.0349 615C33.5302 615 34.6622 615.63 35.4308 616.891C36.2134 618.138 36.6047 619.953 36.6047 622.336C36.6047 624.719 36.2134 626.541 35.4308 627.802C34.6622 629.063 33.5302 629.693 32.0349 629.693C30.5536 629.693 29.4216 629.063 28.639 627.802C27.8564 626.541 27.4651 624.719 27.4651 622.336C27.4651 619.967 27.8564 618.152 28.639 616.891C29.4216 615.63 30.5536 615 32.0349 615ZM28.9534 622.336C28.9534 624.026 29.1072 625.35 29.4146 626.306L34.0683 617.099C33.5791 616.448 32.9013 616.122 32.0349 616.122C31.0706 616.122 30.316 616.635 29.771 617.66C29.2259 618.672 28.9534 620.23 28.9534 622.336ZM32.0349 628.55C33.0131 628.55 33.7748 628.044 34.3198 627.033C34.8648 626.008 35.1373 624.442 35.1373 622.336C35.1373 620.549 34.9627 619.163 34.6133 618.18L29.9596 627.469C30.4627 628.19 31.1545 628.55 32.0349 628.55Z" fill="url(#paint0_linear_175_1885)" fill-opacity="0.6"/>
<path d="M33.2926 652.135H36.3741V653.236H28.3874V652.135H31.9511V640.455L28.5551 642.471L27.9682 641.536L32.1607 638.959H33.2926V652.135Z" fill="url(#paint1_linear_175_1885)" fill-opacity="0.6"/>
<path d="M32.0349 662.502C33.5302 662.502 34.6622 663.133 35.4308 664.393C36.2134 665.64 36.6047 667.455 36.6047 669.838C36.6047 672.221 36.2134 674.043 35.4308 675.304C34.6622 676.565 33.5302 677.195 32.0349 677.195C30.5536 677.195 29.4216 676.565 28.639 675.304C27.8564 674.043 27.4651 672.221 27.4651 669.838C27.4651 667.469 27.8564 665.654 28.639 664.393C29.4216 663.133 30.5536 662.502 32.0349 662.502ZM28.9534 669.838C28.9534 671.529 29.1072 672.852 29.4146 673.808L34.0683 664.601C33.5791 663.95 32.9013 663.624 32.0349 663.624C31.0706 663.624 30.316 664.137 29.771 665.162C29.2259 666.174 28.9534 667.732 28.9534 669.838ZM32.0349 676.052C33.0131 676.052 33.7748 675.546 34.3198 674.535C34.8648 673.51 35.1373 671.944 35.1373 669.838C35.1373 668.051 34.9627 666.665 34.6133 665.682L29.9596 674.971C30.4627 675.692 31.1545 676.052 32.0349 676.052Z" fill="url(#paint2_linear_175_1885)" fill-opacity="0.6"/>
<path d="M33.2926 699.637H36.3741V700.738H28.3874V699.637H31.9511V687.957L28.5551 689.973L27.9682 689.038L32.1607 686.461H33.2926V699.637Z" fill="url(#paint3_linear_175_1885)" fill-opacity="0.6"/>
<path d="M33.2926 723.388H36.3741V724.489H28.3874V723.388H31.9511V711.708L28.5551 713.724L27.9682 712.789L32.1607 710.212H33.2926V723.388Z" fill="url(#paint4_linear_175_1885)" fill-opacity="0.6"/>
<path d="M32.0349 733.755C33.5302 733.755 34.6622 734.386 35.4308 735.646C36.2134 736.893 36.6047 738.708 36.6047 741.091C36.6047 743.474 36.2134 745.296 35.4308 746.557C34.6622 747.818 33.5302 748.448 32.0349 748.448C30.5536 748.448 29.4216 747.818 28.639 746.557C27.8564 745.296 27.4651 743.474 27.4651 741.091C27.4651 738.722 27.8564 736.907 28.639 735.646C29.4216 734.386 30.5536 733.755 32.0349 733.755ZM28.9534 741.091C28.9534 742.782 29.1072 744.105 29.4146 745.061L34.0683 735.854C33.5791 735.203 32.9013 734.878 32.0349 734.878C31.0706 734.878 30.316 735.39 29.771 736.415C29.2259 737.427 28.9534 738.985 28.9534 741.091ZM32.0349 747.305C33.0131 747.305 33.7748 746.8 34.3198 745.788C34.8648 744.763 35.1373 743.197 35.1373 741.091C35.1373 739.304 34.9627 737.919 34.6133 736.935L29.9596 746.225C30.4627 746.945 31.1545 747.305 32.0349 747.305Z" fill="url(#paint5_linear_175_1885)" fill-opacity="0.6"/>
<path d="M33.2926 770.89H36.3741V771.992H28.3874V770.89H31.9511V759.21L28.5551 761.226L27.9682 760.291L32.1607 757.714H33.2926V770.89Z" fill="url(#paint6_linear_175_1885)" fill-opacity="0.6"/>
<path d="M32.0349 781.257C33.5302 781.257 34.6622 781.888 35.4308 783.149C36.2134 784.396 36.6047 786.211 36.6047 788.594C36.6047 790.977 36.2134 792.798 35.4308 794.059C34.6622 795.32 33.5302 795.95 32.0349 795.95C30.5536 795.95 29.4216 795.32 28.639 794.059C27.8564 792.798 27.4651 790.977 27.4651 788.594C27.4651 786.224 27.8564 784.409 28.639 783.149C29.4216 781.888 30.5536 781.257 32.0349 781.257ZM28.9534 788.594C28.9534 790.284 29.1072 791.607 29.4146 792.563L34.0683 783.356C33.5791 782.705 32.9013 782.38 32.0349 782.38C31.0706 782.38 30.316 782.892 29.771 783.918C29.2259 784.929 28.9534 786.488 28.9534 788.594ZM32.0349 794.807C33.0131 794.807 33.7748 794.302 34.3198 793.29C34.8648 792.265 35.1373 790.699 35.1373 788.594C35.1373 786.806 34.9627 785.421 34.6133 784.437L29.9596 793.727C30.4627 794.447 31.1545 794.807 32.0349 794.807Z" fill="url(#paint7_linear_175_1885)" fill-opacity="0.6"/>
<path d="M32.0349 805.008C33.5302 805.008 34.6622 805.639 35.4308 806.9C36.2134 808.147 36.6047 809.962 36.6047 812.345C36.6047 814.728 36.2134 816.549 35.4308 817.81C34.6622 819.071 33.5302 819.701 32.0349 819.701C30.5536 819.701 29.4216 819.071 28.639 817.81C27.8564 816.549 27.4651 814.728 27.4651 812.345C27.4651 809.975 27.8564 808.16 28.639 806.9C29.4216 805.639 30.5536 805.008 32.0349 805.008ZM28.9534 812.345C28.9534 814.035 29.1072 815.358 29.4146 816.314L34.0683 807.107C33.5791 806.456 32.9013 806.131 32.0349 806.131C31.0706 806.131 30.316 806.643 29.771 807.669C29.2259 808.68 28.9534 810.239 28.9534 812.345ZM32.0349 818.558C33.0131 818.558 33.7748 818.053 34.3198 817.041C34.8648 816.016 35.1373 814.451 35.1373 812.345C35.1373 810.557 34.9627 809.172 34.6133 808.188L29.9596 817.478C30.4627 818.198 31.1545 818.558 32.0349 818.558Z" fill="url(#paint8_linear_175_1885)" fill-opacity="0.6"/>
<path d="M33.2926 842.143H36.3741V843.245H28.3874V842.143H31.9511V830.464L28.5551 832.48L27.9682 831.544L32.1607 828.967H33.2926V842.143Z" fill="url(#paint9_linear_175_1885)" fill-opacity="0.6"/>
<path d="M32.0349 852.511C33.5302 852.511 34.6622 853.141 35.4308 854.402C36.2134 855.649 36.6047 857.464 36.6047 859.847C36.6047 862.23 36.2134 864.052 35.4308 865.312C34.6622 866.573 33.5302 867.204 32.0349 867.204C30.5536 867.204 29.4216 866.573 28.639 865.312C27.8564 864.052 27.4651 862.23 27.4651 859.847C27.4651 857.478 27.8564 855.663 28.639 854.402C29.4216 853.141 30.5536 852.511 32.0349 852.511ZM28.9534 859.847C28.9534 861.537 29.1072 862.86 29.4146 863.816L34.0683 854.61C33.5791 853.958 32.9013 853.633 32.0349 853.633C31.0706 853.633 30.316 854.145 29.771 855.171C29.2259 856.182 28.9534 857.741 28.9534 859.847ZM32.0349 866.061C33.0131 866.061 33.7748 865.555 34.3198 864.543C34.8648 863.518 35.1373 861.953 35.1373 859.847C35.1373 858.059 34.9627 856.674 34.6133 855.69L29.9596 864.98C30.4627 865.7 31.1545 866.061 32.0349 866.061Z" fill="url(#paint10_linear_175_1885)" fill-opacity="0.6"/>
<path d="M33.2926 889.645H36.3741V890.747H28.3874V889.645H31.9511V877.966L28.5551 879.982L27.9682 879.046L32.1607 876.469H33.2926V889.645Z" fill="url(#paint11_linear_175_1885)" fill-opacity="0.6"/>
<path d="M33.2926 913.396H36.3741V914.498H28.3874V913.396H31.9511V901.717L28.5551 903.733L27.9682 902.798L32.1607 900.221H33.2926V913.396Z" fill="url(#paint12_linear_175_1885)" fill-opacity="0.6"/>
<path d="M70.9651 662.502C72.4604 662.502 73.5924 663.133 74.361 664.393C75.1436 665.64 75.5349 667.455 75.5349 669.838C75.5349 672.221 75.1436 674.043 74.361 675.304C73.5924 676.565 72.4604 677.195 70.9651 677.195C69.4838 677.195 68.3518 676.565 67.5692 675.304C66.7866 674.043 66.3953 672.221 66.3953 669.838C66.3953 667.469 66.7866 665.654 67.5692 664.393C68.3518 663.133 69.4838 662.502 70.9651 662.502ZM67.8836 669.838C67.8836 671.529 68.0374 672.852 68.3448 673.808L72.9985 664.601C72.5093 663.95 71.8315 663.624 70.9651 663.624C70.0008 663.624 69.2462 664.137 68.7012 665.162C68.1561 666.174 67.8836 667.732 67.8836 669.838ZM70.9651 676.052C71.9433 676.052 72.705 675.546 73.25 674.535C73.795 673.51 74.0675 671.944 74.0675 669.838C74.0675 668.051 73.8928 666.665 73.5435 665.682L68.8898 674.971C69.3929 675.692 70.0847 676.052 70.9651 676.052Z" fill="url(#paint13_linear_175_1885)" fill-opacity="0.6"/>
<path d="M72.2228 699.637H75.3043V700.738H67.3176V699.637H70.8812V687.957L67.4853 689.973L66.8984 689.038L71.0909 686.461H72.2228V699.637Z" fill="url(#paint14_linear_175_1885)" fill-opacity="0.6"/>
<path d="M70.9651 710.004C72.4604 710.004 73.5924 710.635 74.361 711.895C75.1436 713.142 75.5349 714.957 75.5349 717.34C75.5349 719.723 75.1436 721.545 74.361 722.806C73.5924 724.067 72.4604 724.697 70.9651 724.697C69.4838 724.697 68.3518 724.067 67.5692 722.806C66.7866 721.545 66.3953 719.723 66.3953 717.34C66.3953 714.971 66.7866 713.156 67.5692 711.895C68.3518 710.635 69.4838 710.004 70.9651 710.004ZM67.8836 717.34C67.8836 719.031 68.0374 720.354 68.3448 721.31L72.9985 712.103C72.5093 711.452 71.8315 711.126 70.9651 711.126C70.0008 711.126 69.2462 711.639 68.7012 712.664C68.1561 713.676 67.8836 715.234 67.8836 717.34ZM70.9651 723.554C71.9433 723.554 72.705 723.049 73.25 722.037C73.795 721.012 74.0675 719.446 74.0675 717.34C74.0675 715.553 73.8928 714.168 73.5435 713.184L68.8898 722.474C69.3929 723.194 70.0847 723.554 70.9651 723.554Z" fill="url(#paint15_linear_175_1885)" fill-opacity="0.6"/>
<path d="M70.9651 733.755C72.4604 733.755 73.5924 734.386 74.361 735.646C75.1436 736.893 75.5349 738.708 75.5349 741.091C75.5349 743.474 75.1436 745.296 74.361 746.557C73.5924 747.818 72.4604 748.448 70.9651 748.448C69.4838 748.448 68.3518 747.818 67.5692 746.557C66.7866 745.296 66.3953 743.474 66.3953 741.091C66.3953 738.722 66.7866 736.907 67.5692 735.646C68.3518 734.386 69.4838 733.755 70.9651 733.755ZM67.8836 741.091C67.8836 742.782 68.0374 744.105 68.3448 745.061L72.9985 735.854C72.5093 735.203 71.8315 734.878 70.9651 734.878C70.0008 734.878 69.2462 735.39 68.7012 736.415C68.1561 737.427 67.8836 738.985 67.8836 741.091ZM70.9651 747.305C71.9433 747.305 72.705 746.8 73.25 745.788C73.795 744.763 74.0675 743.197 74.0675 741.091C74.0675 739.304 73.8928 737.919 73.5435 736.935L68.8898 746.225C69.3929 746.945 70.0847 747.305 70.9651 747.305Z" fill="url(#paint16_linear_175_1885)" fill-opacity="0.6"/>
<path d="M72.2228 770.89H75.3043V771.992H67.3176V770.89H70.8812V759.21L67.4853 761.226L66.8984 760.291L71.0909 757.714H72.2228V770.89Z" fill="url(#paint17_linear_175_1885)" fill-opacity="0.6"/>
<path d="M70.9651 781.257C72.4604 781.257 73.5924 781.888 74.361 783.149C75.1436 784.396 75.5349 786.211 75.5349 788.594C75.5349 790.977 75.1436 792.798 74.361 794.059C73.5924 795.32 72.4604 795.95 70.9651 795.95C69.4838 795.95 68.3518 795.32 67.5692 794.059C66.7866 792.798 66.3953 790.977 66.3953 788.594C66.3953 786.224 66.7866 784.409 67.5692 783.149C68.3518 781.888 69.4838 781.257 70.9651 781.257ZM67.8836 788.594C67.8836 790.284 68.0374 791.607 68.3448 792.563L72.9985 783.356C72.5093 782.705 71.8315 782.38 70.9651 782.38C70.0008 782.38 69.2462 782.892 68.7012 783.918C68.1561 784.929 67.8836 786.488 67.8836 788.594ZM70.9651 794.807C71.9433 794.807 72.705 794.302 73.25 793.29C73.795 792.265 74.0675 790.699 74.0675 788.594C74.0675 786.806 73.8928 785.421 73.5435 784.437L68.8898 793.727C69.3929 794.447 70.0847 794.807 70.9651 794.807Z" fill="url(#paint18_linear_175_1885)" fill-opacity="0.6"/>
<path d="M72.2228 818.392H75.3043V819.494H67.3176V818.392H70.8812V806.713L67.4853 808.728L66.8984 807.793L71.0909 805.216H72.2228V818.392Z" fill="url(#paint19_linear_175_1885)" fill-opacity="0.6"/>
<path d="M70.9651 828.76C72.4604 828.76 73.5924 829.39 74.361 830.651C75.1436 831.898 75.5349 833.713 75.5349 836.096C75.5349 838.479 75.1436 840.301 74.361 841.561C73.5924 842.822 72.4604 843.453 70.9651 843.453C69.4838 843.453 68.3518 842.822 67.5692 841.561C66.7866 840.301 66.3953 838.479 66.3953 836.096C66.3953 833.726 66.7866 831.911 67.5692 830.651C68.3518 829.39 69.4838 828.76 70.9651 828.76ZM67.8836 836.096C67.8836 837.786 68.0374 839.109 68.3448 840.065L72.9985 830.859C72.5093 830.207 71.8315 829.882 70.9651 829.882C70.0008 829.882 69.2462 830.394 68.7012 831.42C68.1561 832.431 67.8836 833.99 67.8836 836.096ZM70.9651 842.31C71.9433 842.31 72.705 841.804 73.25 840.792C73.795 839.767 74.0675 838.202 74.0675 836.096C74.0675 834.308 73.8928 832.923 73.5435 831.939L68.8898 841.229C69.3929 841.949 70.0847 842.31 70.9651 842.31Z" fill="url(#paint20_linear_175_1885)" fill-opacity="0.6"/>
<path d="M70.9651 852.511C72.4604 852.511 73.5924 853.141 74.361 854.402C75.1436 855.649 75.5349 857.464 75.5349 859.847C75.5349 862.23 75.1436 864.052 74.361 865.312C73.5924 866.573 72.4604 867.204 70.9651 867.204C69.4838 867.204 68.3518 866.573 67.5692 865.312C66.7866 864.052 66.3953 862.23 66.3953 859.847C66.3953 857.478 66.7866 855.663 67.5692 854.402C68.3518 853.141 69.4838 852.511 70.9651 852.511ZM67.8836 859.847C67.8836 861.537 68.0374 862.86 68.3448 863.816L72.9985 854.61C72.5093 853.958 71.8315 853.633 70.9651 853.633C70.0008 853.633 69.2462 854.145 68.7012 855.171C68.1561 856.182 67.8836 857.741 67.8836 859.847ZM70.9651 866.061C71.9433 866.061 72.705 865.555 73.25 864.543C73.795 863.518 74.0675 861.953 74.0675 859.847C74.0675 858.059 73.8928 856.674 73.5435 855.69L68.8898 864.98C69.3929 865.7 70.0847 866.061 70.9651 866.061Z" fill="url(#paint21_linear_175_1885)" fill-opacity="0.6"/>
<path d="M72.2228 889.645H75.3043V890.747H67.3176V889.645H70.8812V877.966L67.4853 879.982L66.8984 879.046L71.0909 876.469H72.2228V889.645Z" fill="url(#paint22_linear_175_1885)" fill-opacity="0.6"/>
<path d="M70.9651 900.013C72.4604 900.013 73.5924 900.643 74.361 901.904C75.1436 903.151 75.5349 904.966 75.5349 907.349C75.5349 909.732 75.1436 911.554 74.361 912.815C73.5924 914.075 72.4604 914.706 70.9651 914.706C69.4838 914.706 68.3518 914.075 67.5692 912.815C66.7866 911.554 66.3953 909.732 66.3953 907.349C66.3953 904.98 66.7866 903.165 67.5692 901.904C68.3518 900.643 69.4838 900.013 70.9651 900.013ZM67.8836 907.349C67.8836 909.039 68.0374 910.362 68.3448 911.318L72.9985 902.112C72.5093 901.461 71.8315 901.135 70.9651 901.135C70.0008 901.135 69.2462 901.648 68.7012 902.673C68.1561 903.684 67.8836 905.243 67.8836 907.349ZM70.9651 913.563C71.9433 913.563 72.705 913.057 73.25 912.046C73.795 911.02 74.0675 909.455 74.0675 907.349C74.0675 905.562 73.8928 904.176 73.5435 903.192L68.8898 912.482C69.3929 913.202 70.0847 913.563 70.9651 913.563Z" fill="url(#paint23_linear_175_1885)" fill-opacity="0.6"/>
<path d="M72.2228 937.148H75.3043V938.249H67.3176V937.148H70.8812V925.468L67.4853 927.484L66.8984 926.549L71.0909 923.972H72.2228V937.148Z" fill="url(#paint24_linear_175_1885)" fill-opacity="0.6"/>
<path d="M72.2228 960.899H75.3043V962H67.3176V960.899H70.8812V949.219L67.4853 951.235L66.8984 950.3L71.0909 947.723H72.2228V960.899Z" fill="url(#paint25_linear_175_1885)" fill-opacity="0.6"/>
<path d="M12.5698 686.253C14.0651 686.253 15.1971 686.884 15.9657 688.144C16.7483 689.391 17.1396 691.206 17.1396 693.589C17.1396 695.972 16.7483 697.794 15.9657 699.055C15.1971 700.316 14.0651 700.946 12.5698 700.946C11.0885 700.946 9.95649 700.316 9.1739 699.055C8.3913 697.794 8 695.972 8 693.589C8 691.22 8.3913 689.405 9.1739 688.144C9.95649 686.884 11.0885 686.253 12.5698 686.253ZM9.48833 693.589C9.48833 695.28 9.64206 696.603 9.9495 697.559L14.6032 688.352C14.114 687.701 13.4363 687.375 12.5698 687.375C11.6055 687.375 10.8509 687.888 10.3059 688.913C9.76084 689.925 9.48833 691.483 9.48833 693.589ZM12.5698 699.803C13.5481 699.803 14.3097 699.297 14.8547 698.286C15.3997 697.261 15.6722 695.695 15.6722 693.589C15.6722 691.802 15.4976 690.417 15.1482 689.433L10.4945 698.722C10.9976 699.443 11.6894 699.803 12.5698 699.803Z" fill="url(#paint26_linear_175_1885)" fill-opacity="0.6"/>
<path d="M12.5698 710.004C14.0651 710.004 15.1971 710.635 15.9657 711.895C16.7483 713.142 17.1396 714.957 17.1396 717.34C17.1396 719.723 16.7483 721.545 15.9657 722.806C15.1971 724.067 14.0651 724.697 12.5698 724.697C11.0885 724.697 9.95649 724.067 9.1739 722.806C8.3913 721.545 8 719.723 8 717.34C8 714.971 8.3913 713.156 9.1739 711.895C9.95649 710.635 11.0885 710.004 12.5698 710.004ZM9.48833 717.34C9.48833 719.031 9.64206 720.354 9.9495 721.31L14.6032 712.103C14.114 711.452 13.4363 711.126 12.5698 711.126C11.6055 711.126 10.8509 711.639 10.3059 712.664C9.76084 713.676 9.48833 715.234 9.48833 717.34ZM12.5698 723.554C13.5481 723.554 14.3097 723.049 14.8547 722.037C15.3997 721.012 15.6722 719.446 15.6722 717.34C15.6722 715.553 15.4976 714.168 15.1482 713.184L10.4945 722.474C10.9976 723.194 11.6894 723.554 12.5698 723.554Z" fill="url(#paint27_linear_175_1885)" fill-opacity="0.6"/>
<path d="M13.8276 747.139H16.909V748.24H8.92235V747.139H12.486V735.459L9.09005 737.475L8.5031 736.54L12.6956 733.963H13.8276V747.139Z" fill="url(#paint28_linear_175_1885)" fill-opacity="0.6"/>
<path d="M12.5698 757.506C14.0651 757.506 15.1971 758.137 15.9657 759.398C16.7483 760.644 17.1396 762.459 17.1396 764.842C17.1396 767.225 16.7483 769.047 15.9657 770.308C15.1971 771.569 14.0651 772.199 12.5698 772.199C11.0885 772.199 9.95649 771.569 9.1739 770.308C8.3913 769.047 8 767.225 8 764.842C8 762.473 8.3913 760.658 9.1739 759.398C9.95649 758.137 11.0885 757.506 12.5698 757.506ZM9.48833 764.842C9.48833 766.533 9.64206 767.856 9.9495 768.812L14.6032 759.605C14.114 758.954 13.4363 758.629 12.5698 758.629C11.6055 758.629 10.8509 759.141 10.3059 760.166C9.76084 761.178 9.48833 762.737 9.48833 764.842ZM12.5698 771.056C13.5481 771.056 14.3097 770.551 14.8547 769.539C15.3997 768.514 15.6722 766.948 15.6722 764.842C15.6722 763.055 15.4976 761.67 15.1482 760.686L10.4945 769.976C10.9976 770.696 11.6894 771.056 12.5698 771.056Z" fill="url(#paint29_linear_175_1885)" fill-opacity="0.6"/>
<path d="M13.8276 794.641H16.909V795.743H8.92235V794.641H12.486V782.962L9.09005 784.977L8.5031 784.042L12.6956 781.465H13.8276V794.641Z" fill="url(#paint30_linear_175_1885)" fill-opacity="0.6"/>
<path d="M13.8276 818.392H16.909V819.494H8.92235V818.392H12.486V806.713L9.09005 808.728L8.5031 807.793L12.6956 805.216H13.8276V818.392Z" fill="url(#paint31_linear_175_1885)" fill-opacity="0.6"/>
<path d="M52.7577 652.135H55.8392V653.236H47.8525V652.135H51.4162V640.455L48.0202 642.471L47.4333 641.536L51.6258 638.959H52.7577V652.135Z" fill="url(#paint32_linear_175_1885)" fill-opacity="0.6"/>
<path d="M51.5 662.502C52.9953 662.502 54.1273 663.133 54.8959 664.393C55.6785 665.64 56.0698 667.455 56.0698 669.838C56.0698 672.221 55.6785 674.043 54.8959 675.304C54.1273 676.565 52.9953 677.195 51.5 677.195C50.0187 677.195 48.8867 676.565 48.1041 675.304C47.3215 674.043 46.9302 672.221 46.9302 669.838C46.9302 667.469 47.3215 665.654 48.1041 664.393C48.8867 663.133 50.0187 662.502 51.5 662.502ZM48.4185 669.838C48.4185 671.529 48.5723 672.852 48.8797 673.808L53.5334 664.601C53.0442 663.95 52.3664 663.624 51.5 663.624C50.5357 663.624 49.7811 664.137 49.2361 665.162C48.691 666.174 48.4185 667.732 48.4185 669.838ZM51.5 676.052C52.4782 676.052 53.2399 675.546 53.7849 674.535C54.3299 673.51 54.6024 671.944 54.6024 669.838C54.6024 668.051 54.4277 666.665 54.0784 665.682L49.4247 674.971C49.9278 675.692 50.6196 676.052 51.5 676.052Z" fill="url(#paint33_linear_175_1885)" fill-opacity="0.6"/>
<path d="M52.7577 699.637H55.8392V700.738H47.8525V699.637H51.4162V687.957L48.0202 689.973L47.4333 689.038L51.6258 686.461H52.7577V699.637Z" fill="url(#paint34_linear_175_1885)" fill-opacity="0.6"/>
<path d="M52.7577 723.388H55.8392V724.489H47.8525V723.388H51.4162V711.708L48.0202 713.724L47.4333 712.789L51.6258 710.212H52.7577V723.388Z" fill="url(#paint35_linear_175_1885)" fill-opacity="0.6"/>
<path d="M51.5 733.755C52.9953 733.755 54.1273 734.386 54.8959 735.646C55.6785 736.893 56.0698 738.708 56.0698 741.091C56.0698 743.474 55.6785 745.296 54.8959 746.557C54.1273 747.818 52.9953 748.448 51.5 748.448C50.0187 748.448 48.8867 747.818 48.1041 746.557C47.3215 745.296 46.9302 743.474 46.9302 741.091C46.9302 738.722 47.3215 736.907 48.1041 735.646C48.8867 734.386 50.0187 733.755 51.5 733.755ZM48.4185 741.091C48.4185 742.782 48.5723 744.105 48.8797 745.061L53.5334 735.854C53.0442 735.203 52.3664 734.878 51.5 734.878C50.5357 734.878 49.7811 735.39 49.2361 736.415C48.691 737.427 48.4185 738.985 48.4185 741.091ZM51.5 747.305C52.4782 747.305 53.2399 746.8 53.7849 745.788C54.3299 744.763 54.6024 743.197 54.6024 741.091C54.6024 739.304 54.4277 737.919 54.0784 736.935L49.4247 746.225C49.9278 746.945 50.6196 747.305 51.5 747.305Z" fill="url(#paint36_linear_175_1885)" fill-opacity="0.6"/>
<path d="M52.7577 770.89H55.8392V771.992H47.8525V770.89H51.4162V759.21L48.0202 761.226L47.4333 760.291L51.6258 757.714H52.7577V770.89Z" fill="url(#paint37_linear_175_1885)" fill-opacity="0.6"/>
<path d="M52.7577 794.641H55.8392V795.743H47.8525V794.641H51.4162V782.962L48.0202 784.977L47.4333 784.042L51.6258 781.465H52.7577V794.641Z" fill="url(#paint38_linear_175_1885)" fill-opacity="0.6"/>
<path d="M51.5 805.008C52.9953 805.008 54.1273 805.639 54.8959 806.9C55.6785 808.147 56.0698 809.962 56.0698 812.345C56.0698 814.728 55.6785 816.549 54.8959 817.81C54.1273 819.071 52.9953 819.701 51.5 819.701C50.0187 819.701 48.8867 819.071 48.1041 817.81C47.3215 816.549 46.9302 814.728 46.9302 812.345C46.9302 809.975 47.3215 808.16 48.1041 806.9C48.8867 805.639 50.0187 805.008 51.5 805.008ZM48.4185 812.345C48.4185 814.035 48.5723 815.358 48.8797 816.314L53.5334 807.107C53.0442 806.456 52.3664 806.131 51.5 806.131C50.5357 806.131 49.7811 806.643 49.2361 807.669C48.691 808.68 48.4185 810.239 48.4185 812.345ZM51.5 818.558C52.4782 818.558 53.2399 818.053 53.7849 817.041C54.3299 816.016 54.6024 814.451 54.6024 812.345C54.6024 810.557 54.4277 809.172 54.0784 808.188L49.4247 817.478C49.9278 818.198 50.6196 818.558 51.5 818.558Z" fill="url(#paint39_linear_175_1885)" fill-opacity="0.6"/>
<path d="M52.7577 842.143H55.8392V843.245H47.8525V842.143H51.4162V830.464L48.0202 832.48L47.4333 831.544L51.6258 828.967H52.7577V842.143Z" fill="url(#paint40_linear_175_1885)" fill-opacity="0.6"/>
<path d="M51.5 852.511C52.9953 852.511 54.1273 853.141 54.8959 854.402C55.6785 855.649 56.0698 857.464 56.0698 859.847C56.0698 862.23 55.6785 864.052 54.8959 865.312C54.1273 866.573 52.9953 867.204 51.5 867.204C50.0187 867.204 48.8867 866.573 48.1041 865.312C47.3215 864.052 46.9302 862.23 46.9302 859.847C46.9302 857.478 47.3215 855.663 48.1041 854.402C48.8867 853.141 50.0187 852.511 51.5 852.511ZM48.4185 859.847C48.4185 861.537 48.5723 862.86 48.8797 863.816L53.5334 854.61C53.0442 853.958 52.3664 853.633 51.5 853.633C50.5357 853.633 49.7811 854.145 49.2361 855.171C48.691 856.182 48.4185 857.741 48.4185 859.847ZM51.5 866.061C52.4782 866.061 53.2399 865.555 53.7849 864.543C54.3299 863.518 54.6024 861.953 54.6024 859.847C54.6024 858.059 54.4277 856.674 54.0784 855.69L49.4247 864.98C49.9278 865.7 50.6196 866.061 51.5 866.061Z" fill="url(#paint41_linear_175_1885)" fill-opacity="0.6"/>
<path d="M90.4302 638.751C91.9255 638.751 93.0575 639.381 93.8261 640.642C94.6087 641.889 95 643.704 95 646.087C95 648.47 94.6087 650.292 93.8261 651.553C93.0575 652.814 91.9255 653.444 90.4302 653.444C88.9489 653.444 87.8169 652.814 87.0343 651.553C86.2517 650.292 85.8604 648.47 85.8604 646.087C85.8604 643.718 86.2517 641.903 87.0343 640.642C87.8169 639.381 88.9489 638.751 90.4302 638.751ZM87.3487 646.087C87.3487 647.777 87.5024 649.101 87.8099 650.057L92.4636 640.85C91.9744 640.199 91.2966 639.873 90.4302 639.873C89.4659 639.873 88.7113 640.386 88.1663 641.411C87.6212 642.423 87.3487 643.981 87.3487 646.087ZM90.4302 652.301C91.4084 652.301 92.1701 651.795 92.7151 650.784C93.2601 649.759 93.5326 648.193 93.5326 646.087C93.5326 644.3 93.3579 642.914 93.0086 641.931L88.3549 651.22C88.858 651.941 89.5498 652.301 90.4302 652.301Z" fill="url(#paint42_linear_175_1885)" fill-opacity="0.6"/>
<path d="M91.6879 675.886H94.7694V676.987H86.7827V675.886H90.3463V664.206L86.9504 666.222L86.3635 665.287L90.556 662.71H91.6879V675.886Z" fill="url(#paint43_linear_175_1885)" fill-opacity="0.6"/>
<path d="M91.6879 699.637H94.7694V700.738H86.7827V699.637H90.3463V687.957L86.9504 689.973L86.3635 689.038L90.556 686.461H91.6879V699.637Z" fill="url(#paint44_linear_175_1885)" fill-opacity="0.6"/>
<path d="M90.4302 710.004C91.9255 710.004 93.0575 710.635 93.8261 711.895C94.6087 713.142 95 714.957 95 717.34C95 719.723 94.6087 721.545 93.8261 722.806C93.0575 724.067 91.9255 724.697 90.4302 724.697C88.9489 724.697 87.8169 724.067 87.0343 722.806C86.2517 721.545 85.8604 719.723 85.8604 717.34C85.8604 714.971 86.2517 713.156 87.0343 711.895C87.8169 710.635 88.9489 710.004 90.4302 710.004ZM87.3487 717.34C87.3487 719.031 87.5024 720.354 87.8099 721.31L92.4636 712.103C91.9744 711.452 91.2966 711.126 90.4302 711.126C89.4659 711.126 88.7113 711.639 88.1663 712.664C87.6212 713.676 87.3487 715.234 87.3487 717.34ZM90.4302 723.554C91.4084 723.554 92.1701 723.049 92.7151 722.037C93.2601 721.012 93.5326 719.446 93.5326 717.34C93.5326 715.553 93.3579 714.168 93.0086 713.184L88.3549 722.474C88.858 723.194 89.5498 723.554 90.4302 723.554Z" fill="url(#paint45_linear_175_1885)" fill-opacity="0.6"/>
<path d="M90.4302 733.755C91.9255 733.755 93.0575 734.386 93.8261 735.646C94.6087 736.893 95 738.708 95 741.091C95 743.474 94.6087 745.296 93.8261 746.557C93.0575 747.818 91.9255 748.448 90.4302 748.448C88.9489 748.448 87.8169 747.818 87.0343 746.557C86.2517 745.296 85.8604 743.474 85.8604 741.091C85.8604 738.722 86.2517 736.907 87.0343 735.646C87.8169 734.386 88.9489 733.755 90.4302 733.755ZM87.3487 741.091C87.3487 742.782 87.5024 744.105 87.8099 745.061L92.4636 735.854C91.9744 735.203 91.2966 734.878 90.4302 734.878C89.4659 734.878 88.7113 735.39 88.1663 736.415C87.6212 737.427 87.3487 738.985 87.3487 741.091ZM90.4302 747.305C91.4084 747.305 92.1701 746.8 92.7151 745.788C93.2601 744.763 93.5326 743.197 93.5326 741.091C93.5326 739.304 93.3579 737.919 93.0086 736.935L88.3549 746.225C88.858 746.945 89.5498 747.305 90.4302 747.305Z" fill="url(#paint46_linear_175_1885)" fill-opacity="0.6"/>
<g opacity="0.6">
<path d="M918.93 315C920.356 315 921.436 315.605 922.17 316.815C922.916 318.011 923.29 319.753 923.29 322.04C923.29 324.327 922.916 326.075 922.17 327.285C921.436 328.495 920.356 329.1 918.93 329.1C917.517 329.1 916.437 328.495 915.69 327.285C914.943 326.075 914.57 324.327 914.57 322.04C914.57 319.767 914.943 318.025 915.69 316.815C916.437 315.605 917.517 315 918.93 315ZM915.99 322.04C915.99 323.662 916.137 324.932 916.43 325.849L920.87 317.014C920.403 316.389 919.756 316.077 918.93 316.077C918.01 316.077 917.29 316.569 916.77 317.553C916.25 318.523 915.99 320.019 915.99 322.04ZM918.93 328.003C919.863 328.003 920.59 327.518 921.11 326.547C921.63 325.564 921.89 324.061 921.89 322.04C921.89 320.325 921.723 318.995 921.39 318.051L916.95 326.966C917.43 327.658 918.09 328.003 918.93 328.003Z" fill="url(#paint47_linear_175_1885)"/>
<path d="M920.13 350.637H923.07V351.694H915.45V350.637H918.85V339.428L915.61 341.363L915.05 340.465L919.05 337.992H920.13V350.637Z" fill="url(#paint48_linear_175_1885)"/>
<path d="M918.93 360.586C920.356 360.586 921.436 361.191 922.17 362.4C922.916 363.597 923.29 365.339 923.29 367.626C923.29 369.913 922.916 371.661 922.17 372.871C921.436 374.081 920.356 374.686 918.93 374.686C917.517 374.686 916.437 374.081 915.69 372.871C914.943 371.661 914.57 369.913 914.57 367.626C914.57 365.352 914.943 363.61 915.69 362.4C916.437 361.191 917.517 360.586 918.93 360.586ZM915.99 367.626C915.99 369.248 916.137 370.518 916.43 371.435L920.87 362.6C920.403 361.975 919.756 361.663 918.93 361.663C918.01 361.663 917.29 362.155 916.77 363.138C916.25 364.109 915.99 365.605 915.99 367.626ZM918.93 373.589C919.863 373.589 920.59 373.104 921.11 372.133C921.63 371.149 921.89 369.647 921.89 367.626C921.89 365.911 921.723 364.581 921.39 363.637L916.95 372.552C917.43 373.243 918.09 373.589 918.93 373.589Z" fill="url(#paint49_linear_175_1885)"/>
<path d="M920.13 396.222H923.07V397.279H915.45V396.222H918.85V385.014L915.61 386.948L915.05 386.051L919.05 383.578H920.13V396.222Z" fill="url(#paint50_linear_175_1885)"/>
<path d="M920.13 419.015H923.07V420.072H915.45V419.015H918.85V407.807L915.61 409.741L915.05 408.844L919.05 406.371H920.13V419.015Z" fill="url(#paint51_linear_175_1885)"/>
<path d="M918.93 428.964C920.356 428.964 921.436 429.569 922.17 430.779C922.916 431.976 923.29 433.717 923.29 436.004C923.29 438.291 922.916 440.039 922.17 441.249C921.436 442.459 920.356 443.064 918.93 443.064C917.517 443.064 916.437 442.459 915.69 441.249C914.943 440.039 914.57 438.291 914.57 436.004C914.57 433.731 914.943 431.989 915.69 430.779C916.437 429.569 917.517 428.964 918.93 428.964ZM915.99 436.004C915.99 437.626 916.137 438.896 916.43 439.813L920.87 430.978C920.403 430.353 919.756 430.041 918.93 430.041C918.01 430.041 917.29 430.533 916.77 431.517C916.25 432.487 915.99 433.983 915.99 436.004ZM918.93 441.967C919.863 441.967 920.59 441.482 921.11 440.511C921.63 439.528 921.89 438.025 921.89 436.004C921.89 434.289 921.723 432.959 921.39 432.015L916.95 440.93C917.43 441.622 918.09 441.967 918.93 441.967Z" fill="url(#paint52_linear_175_1885)"/>
<path d="M920.13 464.601H923.07V465.658H915.45V464.601H918.85V453.392L915.61 455.327L915.05 454.429L919.05 451.956H920.13V464.601Z" fill="url(#paint53_linear_175_1885)"/>
<path d="M918.93 474.55C920.356 474.55 921.436 475.155 922.17 476.365C922.916 477.561 923.29 479.303 923.29 481.59C923.29 483.877 922.916 485.625 922.17 486.835C921.436 488.045 920.356 488.65 918.93 488.65C917.517 488.65 916.437 488.045 915.69 486.835C914.943 485.625 914.57 483.877 914.57 481.59C914.57 479.316 914.943 477.574 915.69 476.365C916.437 475.155 917.517 474.55 918.93 474.55ZM915.99 481.59C915.99 483.212 916.137 484.482 916.43 485.399L920.87 476.564C920.403 475.939 919.756 475.627 918.93 475.627C918.01 475.627 917.29 476.119 916.77 477.102C916.25 478.073 915.99 479.569 915.99 481.59ZM918.93 487.553C919.863 487.553 920.59 487.068 921.11 486.097C921.63 485.113 921.89 483.611 921.89 481.59C921.89 479.875 921.723 478.545 921.39 477.601L916.95 486.516C917.43 487.207 918.09 487.553 918.93 487.553Z" fill="url(#paint54_linear_175_1885)"/>
<path d="M918.93 497.342C920.356 497.342 921.436 497.947 922.17 499.157C922.916 500.354 923.29 502.096 923.29 504.383C923.29 506.669 922.916 508.418 922.17 509.628C921.436 510.838 920.356 511.443 918.93 511.443C917.517 511.443 916.437 510.838 915.69 509.628C914.943 508.418 914.57 506.669 914.57 504.383C914.57 502.109 914.943 500.367 915.69 499.157C916.437 497.947 917.517 497.342 918.93 497.342ZM915.99 504.383C915.99 506.005 916.137 507.274 916.43 508.192L920.87 499.357C920.403 498.732 919.756 498.419 918.93 498.419C918.01 498.419 917.29 498.911 916.77 499.895C916.25 500.866 915.99 502.362 915.99 504.383ZM918.93 510.346C919.863 510.346 920.59 509.86 921.11 508.89C921.63 507.906 921.89 506.404 921.89 504.383C921.89 502.667 921.723 501.338 921.39 500.394L916.95 509.309C917.43 510 918.09 510.346 918.93 510.346Z" fill="url(#paint55_linear_175_1885)"/>
<path d="M920.13 532.979H923.07V534.036H915.45V532.979H918.85V521.771L915.61 523.705L915.05 522.808L919.05 520.335H920.13V532.979Z" fill="url(#paint56_linear_175_1885)"/>
<path d="M918.93 542.928C920.356 542.928 921.436 543.533 922.17 544.743C922.916 545.94 923.29 547.681 923.29 549.968C923.29 552.255 922.916 554.003 922.17 555.213C921.436 556.423 920.356 557.028 918.93 557.028C917.517 557.028 916.437 556.423 915.69 555.213C914.943 554.003 914.57 552.255 914.57 549.968C914.57 547.695 914.943 545.953 915.69 544.743C916.437 543.533 917.517 542.928 918.93 542.928ZM915.99 549.968C915.99 551.59 916.137 552.86 916.43 553.777L920.87 544.942C920.403 544.317 919.756 544.005 918.93 544.005C918.01 544.005 917.29 544.497 916.77 545.481C916.25 546.451 915.99 547.947 915.99 549.968ZM918.93 555.931C919.863 555.931 920.59 555.446 921.11 554.475C921.63 553.492 921.89 551.989 921.89 549.968C921.89 548.253 921.723 546.923 921.39 545.979L916.95 554.894C917.43 555.586 918.09 555.931 918.93 555.931Z" fill="url(#paint57_linear_175_1885)"/>
<path d="M920.13 578.565H923.07V579.622H915.45V578.565H918.85V567.356L915.61 569.291L915.05 568.393L919.05 565.92H920.13V578.565Z" fill="url(#paint58_linear_175_1885)"/>
<path d="M920.13 601.357H923.07V602.414H915.45V601.357H918.85V590.149L915.61 592.084L915.05 591.186L919.05 588.713H920.13V601.357Z" fill="url(#paint59_linear_175_1885)"/>
<path d="M956.07 360.586C957.497 360.586 958.577 361.191 959.31 362.4C960.057 363.597 960.43 365.339 960.43 367.626C960.43 369.913 960.057 371.661 959.31 372.871C958.577 374.081 957.497 374.686 956.07 374.686C954.657 374.686 953.577 374.081 952.83 372.871C952.084 371.661 951.71 369.913 951.71 367.626C951.71 365.352 952.084 363.61 952.83 362.4C953.577 361.191 954.657 360.586 956.07 360.586ZM953.13 367.626C953.13 369.248 953.277 370.518 953.57 371.435L958.01 362.6C957.543 361.975 956.897 361.663 956.07 361.663C955.15 361.663 954.43 362.155 953.91 363.138C953.39 364.109 953.13 365.605 953.13 367.626ZM956.07 373.589C957.003 373.589 957.73 373.104 958.25 372.133C958.77 371.149 959.03 369.647 959.03 367.626C959.03 365.911 958.863 364.581 958.53 363.637L954.09 372.552C954.57 373.243 955.23 373.589 956.07 373.589Z" fill="url(#paint60_linear_175_1885)"/>
<path d="M957.27 396.222H960.21V397.279H952.59V396.222H955.99V385.014L952.75 386.948L952.19 386.051L956.19 383.578H957.27V396.222Z" fill="url(#paint61_linear_175_1885)"/>
<path d="M956.07 406.171C957.497 406.171 958.577 406.776 959.31 407.986C960.057 409.183 960.43 410.924 960.43 413.211C960.43 415.498 960.057 417.247 959.31 418.457C958.577 419.666 957.497 420.271 956.07 420.271C954.657 420.271 953.577 419.666 952.83 418.457C952.084 417.247 951.71 415.498 951.71 413.211C951.71 410.938 952.084 409.196 952.83 407.986C953.577 406.776 954.657 406.171 956.07 406.171ZM953.13 413.211C953.13 414.833 953.277 416.103 953.57 417.021L958.01 408.186C957.543 407.561 956.897 407.248 956.07 407.248C955.15 407.248 954.43 407.74 953.91 408.724C953.39 409.695 953.13 411.19 953.13 413.211ZM956.07 419.174C957.003 419.174 957.73 418.689 958.25 417.719C958.77 416.735 959.03 415.232 959.03 413.211C959.03 411.496 958.863 410.167 958.53 409.223L954.09 418.137C954.57 418.829 955.23 419.174 956.07 419.174Z" fill="url(#paint62_linear_175_1885)"/>
<path d="M956.07 428.964C957.497 428.964 958.577 429.569 959.31 430.779C960.057 431.976 960.43 433.717 960.43 436.004C960.43 438.291 960.057 440.039 959.31 441.249C958.577 442.459 957.497 443.064 956.07 443.064C954.657 443.064 953.577 442.459 952.83 441.249C952.084 440.039 951.71 438.291 951.71 436.004C951.71 433.731 952.084 431.989 952.83 430.779C953.577 429.569 954.657 428.964 956.07 428.964ZM953.13 436.004C953.13 437.626 953.277 438.896 953.57 439.813L958.01 430.978C957.543 430.353 956.897 430.041 956.07 430.041C955.15 430.041 954.43 430.533 953.91 431.517C953.39 432.487 953.13 433.983 953.13 436.004ZM956.07 441.967C957.003 441.967 957.73 441.482 958.25 440.511C958.77 439.528 959.03 438.025 959.03 436.004C959.03 434.289 958.863 432.959 958.53 432.015L954.09 440.93C954.57 441.622 955.23 441.967 956.07 441.967Z" fill="url(#paint63_linear_175_1885)"/>
<path d="M957.27 464.601H960.21V465.658H952.59V464.601H955.99V453.392L952.75 455.327L952.19 454.429L956.19 451.956H957.27V464.601Z" fill="url(#paint64_linear_175_1885)"/>
<path d="M956.07 474.55C957.497 474.55 958.577 475.155 959.31 476.365C960.057 477.561 960.43 479.303 960.43 481.59C960.43 483.877 960.057 485.625 959.31 486.835C958.577 488.045 957.497 488.65 956.07 488.65C954.657 488.65 953.577 488.045 952.83 486.835C952.084 485.625 951.71 483.877 951.71 481.59C951.71 479.316 952.084 477.574 952.83 476.365C953.577 475.155 954.657 474.55 956.07 474.55ZM953.13 481.59C953.13 483.212 953.277 484.482 953.57 485.399L958.01 476.564C957.543 475.939 956.897 475.627 956.07 475.627C955.15 475.627 954.43 476.119 953.91 477.102C953.39 478.073 953.13 479.569 953.13 481.59ZM956.07 487.553C957.003 487.553 957.73 487.068 958.25 486.097C958.77 485.113 959.03 483.611 959.03 481.59C959.03 479.875 958.863 478.545 958.53 477.601L954.09 486.516C954.57 487.207 955.23 487.553 956.07 487.553Z" fill="url(#paint65_linear_175_1885)"/>
<path d="M957.27 510.186H960.21V511.243H952.59V510.186H955.99V498.978L952.75 500.912L952.19 500.015L956.19 497.542H957.27V510.186Z" fill="url(#paint66_linear_175_1885)"/>
<path d="M956.07 520.135C957.497 520.135 958.577 520.74 959.31 521.95C960.057 523.147 960.43 524.888 960.43 527.175C960.43 529.462 960.057 531.211 959.31 532.421C958.577 533.63 957.497 534.235 956.07 534.235C954.657 534.235 953.577 533.63 952.83 532.421C952.084 531.211 951.71 529.462 951.71 527.175C951.71 524.902 952.084 523.16 952.83 521.95C953.577 520.74 954.657 520.135 956.07 520.135ZM953.13 527.175C953.13 528.797 953.277 530.067 953.57 530.985L958.01 522.15C957.543 521.525 956.897 521.212 956.07 521.212C955.15 521.212 954.43 521.704 953.91 522.688C953.39 523.659 953.13 525.154 953.13 527.175ZM956.07 533.139C957.003 533.139 957.73 532.653 958.25 531.683C958.77 530.699 959.03 529.196 959.03 527.175C959.03 525.46 958.863 524.131 958.53 523.187L954.09 532.101C954.57 532.793 955.23 533.139 956.07 533.139Z" fill="url(#paint67_linear_175_1885)"/>
<path d="M956.07 542.928C957.497 542.928 958.577 543.533 959.31 544.743C960.057 545.94 960.43 547.681 960.43 549.968C960.43 552.255 960.057 554.003 959.31 555.213C958.577 556.423 957.497 557.028 956.07 557.028C954.657 557.028 953.577 556.423 952.83 555.213C952.084 554.003 951.71 552.255 951.71 549.968C951.71 547.695 952.084 545.953 952.83 544.743C953.577 543.533 954.657 542.928 956.07 542.928ZM953.13 549.968C953.13 551.59 953.277 552.86 953.57 553.777L958.01 544.942C957.543 544.317 956.897 544.005 956.07 544.005C955.15 544.005 954.43 544.497 953.91 545.481C953.39 546.451 953.13 547.947 953.13 549.968ZM956.07 555.931C957.003 555.931 957.73 555.446 958.25 554.475C958.77 553.492 959.03 551.989 959.03 549.968C959.03 548.253 958.863 546.923 958.53 545.979L954.09 554.894C954.57 555.586 955.23 555.931 956.07 555.931Z" fill="url(#paint68_linear_175_1885)"/>
<path d="M957.27 578.565H960.21V579.622H952.59V578.565H955.99V567.356L952.75 569.291L952.19 568.393L956.19 565.92H957.27V578.565Z" fill="url(#paint69_linear_175_1885)"/>
<path d="M956.07 588.514C957.497 588.514 958.577 589.119 959.31 590.329C960.057 591.525 960.43 593.267 960.43 595.554C960.43 597.841 960.057 599.589 959.31 600.799C958.577 602.009 957.497 602.614 956.07 602.614C954.657 602.614 953.577 602.009 952.83 600.799C952.084 599.589 951.71 597.841 951.71 595.554C951.71 593.28 952.084 591.538 952.83 590.329C953.577 589.119 954.657 588.514 956.07 588.514ZM953.13 595.554C953.13 597.176 953.277 598.446 953.57 599.363L958.01 590.528C957.543 589.903 956.897 589.591 956.07 589.591C955.15 589.591 954.43 590.083 953.91 591.066C953.39 592.037 953.13 593.533 953.13 595.554ZM956.07 601.517C957.003 601.517 957.73 601.032 958.25 600.061C958.77 599.077 959.03 597.575 959.03 595.554C959.03 593.839 958.863 592.509 958.53 591.565L954.09 600.48C954.57 601.171 955.23 601.517 956.07 601.517Z" fill="url(#paint70_linear_175_1885)"/>
<path d="M957.27 624.15H960.21V625.207H952.59V624.15H955.99V612.942L952.75 614.876L952.19 613.979L956.19 611.506H957.27V624.15Z" fill="url(#paint71_linear_175_1885)"/>
<path d="M957.27 646.943H960.21V648H952.59V646.943H955.99V635.735L952.75 637.669L952.19 636.772L956.19 634.299H957.27V646.943Z" fill="url(#paint72_linear_175_1885)"/>
<path d="M900.36 383.378C901.786 383.378 902.866 383.983 903.599 385.193C904.346 386.39 904.719 388.132 904.719 390.419C904.719 392.705 904.346 394.454 903.599 395.664C902.866 396.874 901.786 397.479 900.36 397.479C898.946 397.479 897.867 396.874 897.12 395.664C896.373 394.454 896 392.705 896 390.419C896 388.145 896.373 386.403 897.12 385.193C897.867 383.983 898.946 383.378 900.36 383.378ZM897.42 390.419C897.42 392.041 897.567 393.31 897.86 394.228L902.3 385.393C901.833 384.768 901.186 384.455 900.36 384.455C899.44 384.455 898.72 384.947 898.2 385.931C897.68 386.902 897.42 388.398 897.42 390.419ZM900.36 396.382C901.293 396.382 902.02 395.896 902.54 394.926C903.06 393.942 903.319 392.44 903.319 390.419C903.319 388.703 903.153 387.374 902.82 386.43L898.38 395.345C898.86 396.036 899.52 396.382 900.36 396.382Z" fill="url(#paint73_linear_175_1885)"/>
<path d="M900.36 406.171C901.786 406.171 902.866 406.776 903.599 407.986C904.346 409.183 904.719 410.924 904.719 413.211C904.719 415.498 904.346 417.247 903.599 418.457C902.866 419.666 901.786 420.271 900.36 420.271C898.946 420.271 897.867 419.666 897.12 418.457C896.373 417.247 896 415.498 896 413.211C896 410.938 896.373 409.196 897.12 407.986C897.867 406.776 898.946 406.171 900.36 406.171ZM897.42 413.211C897.42 414.833 897.567 416.103 897.86 417.021L902.3 408.186C901.833 407.561 901.186 407.248 900.36 407.248C899.44 407.248 898.72 407.74 898.2 408.724C897.68 409.695 897.42 411.19 897.42 413.211ZM900.36 419.174C901.293 419.174 902.02 418.689 902.54 417.719C903.06 416.735 903.319 415.232 903.319 413.211C903.319 411.496 903.153 410.167 902.82 409.223L898.38 418.137C898.86 418.829 899.52 419.174 900.36 419.174Z" fill="url(#paint74_linear_175_1885)"/>
<path d="M901.56 441.808H904.499V442.865H896.88V441.808H900.28V430.599L897.04 432.534L896.48 431.636L900.48 429.163H901.56V441.808Z" fill="url(#paint75_linear_175_1885)"/>
<path d="M900.36 451.757C901.786 451.757 902.866 452.362 903.599 453.572C904.346 454.768 904.719 456.51 904.719 458.797C904.719 461.084 904.346 462.832 903.599 464.042C902.866 465.252 901.786 465.857 900.36 465.857C898.946 465.857 897.867 465.252 897.12 464.042C896.373 462.832 896 461.084 896 458.797C896 456.523 896.373 454.782 897.12 453.572C897.867 452.362 898.946 451.757 900.36 451.757ZM897.42 458.797C897.42 460.419 897.567 461.689 897.86 462.606L902.3 453.771C901.833 453.146 901.186 452.834 900.36 452.834C899.44 452.834 898.72 453.326 898.2 454.31C897.68 455.28 897.42 456.776 897.42 458.797ZM900.36 464.76C901.293 464.76 902.02 464.275 902.54 463.304C903.06 462.32 903.319 460.818 903.319 458.797C903.319 457.082 903.153 455.752 902.82 454.808L898.38 463.723C898.86 464.414 899.52 464.76 900.36 464.76Z" fill="url(#paint76_linear_175_1885)"/>
<path d="M901.56 487.393H904.499V488.45H896.88V487.393H900.28V476.185L897.04 478.12L896.48 477.222L900.48 474.749H901.56V487.393Z" fill="url(#paint77_linear_175_1885)"/>
<path d="M901.56 510.186H904.499V511.243H896.88V510.186H900.28V498.978L897.04 500.912L896.48 500.015L900.48 497.542H901.56V510.186Z" fill="url(#paint78_linear_175_1885)"/>
<path d="M938.7 350.637H941.64V351.694H934.02V350.637H937.42V339.428L934.18 341.363L933.62 340.465L937.62 337.992H938.7V350.637Z" fill="url(#paint79_linear_175_1885)"/>
<path d="M937.5 360.586C938.927 360.586 940.006 361.191 940.74 362.4C941.486 363.597 941.86 365.339 941.86 367.626C941.86 369.913 941.486 371.661 940.74 372.871C940.006 374.081 938.927 374.686 937.5 374.686C936.087 374.686 935.007 374.081 934.26 372.871C933.514 371.661 933.14 369.913 933.14 367.626C933.14 365.352 933.514 363.61 934.26 362.4C935.007 361.191 936.087 360.586 937.5 360.586ZM934.56 367.626C934.56 369.248 934.707 370.518 935 371.435L939.44 362.6C938.973 361.975 938.327 361.663 937.5 361.663C936.58 361.663 935.86 362.155 935.34 363.138C934.82 364.109 934.56 365.605 934.56 367.626ZM937.5 373.589C938.433 373.589 939.16 373.104 939.68 372.133C940.2 371.149 940.46 369.647 940.46 367.626C940.46 365.911 940.293 364.581 939.96 363.637L935.52 372.552C936 373.243 936.66 373.589 937.5 373.589Z" fill="url(#paint80_linear_175_1885)"/>
<path d="M938.7 396.222H941.64V397.279H934.02V396.222H937.42V385.014L934.18 386.948L933.62 386.051L937.62 383.578H938.7V396.222Z" fill="url(#paint81_linear_175_1885)"/>
<path d="M938.7 419.015H941.64V420.072H934.02V419.015H937.42V407.807L934.18 409.741L933.62 408.844L937.62 406.371H938.7V419.015Z" fill="url(#paint82_linear_175_1885)"/>
<path d="M937.5 428.964C938.927 428.964 940.006 429.569 940.74 430.779C941.486 431.976 941.86 433.717 941.86 436.004C941.86 438.291 941.486 440.039 940.74 441.249C940.006 442.459 938.927 443.064 937.5 443.064C936.087 443.064 935.007 442.459 934.26 441.249C933.514 440.039 933.14 438.291 933.14 436.004C933.14 433.731 933.514 431.989 934.26 430.779C935.007 429.569 936.087 428.964 937.5 428.964ZM934.56 436.004C934.56 437.626 934.707 438.896 935 439.813L939.44 430.978C938.973 430.353 938.327 430.041 937.5 430.041C936.58 430.041 935.86 430.533 935.34 431.517C934.82 432.487 934.56 433.983 934.56 436.004ZM937.5 441.967C938.433 441.967 939.16 441.482 939.68 440.511C940.2 439.528 940.46 438.025 940.46 436.004C940.46 434.289 940.293 432.959 939.96 432.015L935.52 440.93C936 441.622 936.66 441.967 937.5 441.967Z" fill="url(#paint83_linear_175_1885)"/>
<path d="M938.7 464.601H941.64V465.658H934.02V464.601H937.42V453.392L934.18 455.327L933.62 454.429L937.62 451.956H938.7V464.601Z" fill="url(#paint84_linear_175_1885)"/>
<path d="M938.7 487.393H941.64V488.45H934.02V487.393H937.42V476.185L934.18 478.12L933.62 477.222L937.62 474.749H938.7V487.393Z" fill="url(#paint85_linear_175_1885)"/>
<path d="M937.5 497.342C938.927 497.342 940.006 497.947 940.74 499.157C941.486 500.354 941.86 502.096 941.86 504.383C941.86 506.669 941.486 508.418 940.74 509.628C940.006 510.838 938.927 511.443 937.5 511.443C936.087 511.443 935.007 510.838 934.26 509.628C933.514 508.418 933.14 506.669 933.14 504.383C933.14 502.109 933.514 500.367 934.26 499.157C935.007 497.947 936.087 497.342 937.5 497.342ZM934.56 504.383C934.56 506.005 934.707 507.274 935 508.192L939.44 499.357C938.973 498.732 938.327 498.419 937.5 498.419C936.58 498.419 935.86 498.911 935.34 499.895C934.82 500.866 934.56 502.362 934.56 504.383ZM937.5 510.346C938.433 510.346 939.16 509.86 939.68 508.89C940.2 507.906 940.46 506.404 940.46 504.383C940.46 502.667 940.293 501.338 939.96 500.394L935.52 509.309C936 510 936.66 510.346 937.5 510.346Z" fill="url(#paint86_linear_175_1885)"/>
<path d="M938.7 532.979H941.64V534.036H934.02V532.979H937.42V521.771L934.18 523.705L933.62 522.808L937.62 520.335H938.7V532.979Z" fill="url(#paint87_linear_175_1885)"/>
<path d="M937.5 542.928C938.927 542.928 940.006 543.533 940.74 544.743C941.486 545.94 941.86 547.681 941.86 549.968C941.86 552.255 941.486 554.003 940.74 555.213C940.006 556.423 938.927 557.028 937.5 557.028C936.087 557.028 935.007 556.423 934.26 555.213C933.514 554.003 933.14 552.255 933.14 549.968C933.14 547.695 933.514 545.953 934.26 544.743C935.007 543.533 936.087 542.928 937.5 542.928ZM934.56 549.968C934.56 551.59 934.707 552.86 935 553.777L939.44 544.942C938.973 544.317 938.327 544.005 937.5 544.005C936.58 544.005 935.86 544.497 935.34 545.481C934.82 546.451 934.56 547.947 934.56 549.968ZM937.5 555.931C938.433 555.931 939.16 555.446 939.68 554.475C940.2 553.492 940.46 551.989 940.46 549.968C940.46 548.253 940.293 546.923 939.96 545.979L935.52 554.894C936 555.586 936.66 555.931 937.5 555.931Z" fill="url(#paint88_linear_175_1885)"/>
<path d="M974.64 337.793C976.067 337.793 977.147 338.398 977.88 339.608C978.627 340.804 979 342.546 979 344.833C979 347.12 978.627 348.868 977.88 350.078C977.147 351.288 976.067 351.893 974.64 351.893C973.227 351.893 972.147 351.288 971.401 350.078C970.654 348.868 970.281 347.12 970.281 344.833C970.281 342.559 970.654 340.818 971.401 339.608C972.147 338.398 973.227 337.793 974.64 337.793ZM971.7 344.833C971.7 346.455 971.847 347.725 972.14 348.642L976.58 339.807C976.114 339.182 975.467 338.87 974.64 338.87C973.72 338.87 973 339.362 972.48 340.346C971.96 341.316 971.7 342.812 971.7 344.833ZM974.64 350.796C975.574 350.796 976.3 350.311 976.82 349.34C977.34 348.356 977.6 346.854 977.6 344.833C977.6 343.118 977.433 341.788 977.1 340.844L972.66 349.759C973.14 350.45 973.8 350.796 974.64 350.796Z" fill="url(#paint89_linear_175_1885)"/>
<path d="M975.84 373.429H978.78V374.486H971.161V373.429H974.56V362.221L971.321 364.156L970.761 363.258L974.76 360.785H975.84V373.429Z" fill="url(#paint90_linear_175_1885)"/>
<path d="M975.84 396.222H978.78V397.279H971.161V396.222H974.56V385.014L971.321 386.948L970.761 386.051L974.76 383.578H975.84V396.222Z" fill="url(#paint91_linear_175_1885)"/>
<path d="M974.64 406.171C976.067 406.171 977.147 406.776 977.88 407.986C978.627 409.183 979 410.924 979 413.211C979 415.498 978.627 417.247 977.88 418.457C977.147 419.666 976.067 420.271 974.64 420.271C973.227 420.271 972.147 419.666 971.401 418.457C970.654 417.247 970.281 415.498 970.281 413.211C970.281 410.938 970.654 409.196 971.401 407.986C972.147 406.776 973.227 406.171 974.64 406.171ZM971.7 413.211C971.7 414.833 971.847 416.103 972.14 417.021L976.58 408.186C976.114 407.561 975.467 407.248 974.64 407.248C973.72 407.248 973 407.74 972.48 408.724C971.96 409.695 971.7 411.19 971.7 413.211ZM974.64 419.174C975.574 419.174 976.3 418.689 976.82 417.719C977.34 416.735 977.6 415.232 977.6 413.211C977.6 411.496 977.433 410.167 977.1 409.223L972.66 418.137C973.14 418.829 973.8 419.174 974.64 419.174Z" fill="url(#paint92_linear_175_1885)"/>
<path d="M974.64 428.964C976.067 428.964 977.147 429.569 977.88 430.779C978.627 431.976 979 433.717 979 436.004C979 438.291 978.627 440.039 977.88 441.249C977.147 442.459 976.067 443.064 974.64 443.064C973.227 443.064 972.147 442.459 971.401 441.249C970.654 440.039 970.281 438.291 970.281 436.004C970.281 433.731 970.654 431.989 971.401 430.779C972.147 429.569 973.227 428.964 974.64 428.964ZM971.7 436.004C971.7 437.626 971.847 438.896 972.14 439.813L976.58 430.978C976.114 430.353 975.467 430.041 974.64 430.041C973.72 430.041 973 430.533 972.48 431.517C971.96 432.487 971.7 433.983 971.7 436.004ZM974.64 441.967C975.574 441.967 976.3 441.482 976.82 440.511C977.34 439.528 977.6 438.025 977.6 436.004C977.6 434.289 977.433 432.959 977.1 432.015L972.66 440.93C973.14 441.622 973.8 441.967 974.64 441.967Z" fill="url(#paint93_linear_175_1885)"/>
</g>
<defs>
<filter id="filter0_f_175_1885" x="-559.19" y="-371.19" width="2141.38" height="1500.38" filterUnits="userSpaceOnUse" color-interpolation-filters="sRGB">
<feFlood flood-opacity="0" result="BackgroundImageFix"/>
<feBlend mode="normal" in="SourceGraphic" in2="BackgroundImageFix" result="shape"/>
<feGaussianBlur stdDeviation="200.095" result="effect1_foregroundBlur_175_1885"/>
</filter>
<linearGradient id="paint0_linear_175_1885" x1="51.5" y1="615" x2="51.5" y2="926.381" gradientUnits="userSpaceOnUse">
<stop stop-color="#F7DD43"/>
<stop offset="1" stop-color="#F7DD43" stop-opacity="0"/>
</linearGradient>
<linearGradient id="paint1_linear_175_1885" x1="51.5" y1="615" x2="51.5" y2="926.381" gradientUnits="userSpaceOnUse">
<stop stop-color="#F7DD43"/>
<stop offset="1" stop-color="#F7DD43" stop-opacity="0"/>
</linearGradient>
<linearGradient id="paint2_linear_175_1885" x1="51.5" y1="615" x2="51.5" y2="926.381" gradientUnits="userSpaceOnUse">
<stop stop-color="#F7DD43"/>
<stop offset="1" stop-color="#F7DD43" stop-opacity="0"/>
</linearGradient>
<linearGradient id="paint3_linear_175_1885" x1="51.5" y1="615" x2="51.5" y2="926.381" gradientUnits="userSpaceOnUse">
<stop stop-color="#F7DD43"/>
<stop offset="1" stop-color="#F7DD43" stop-opacity="0"/>
</linearGradient>
<linearGradient id="paint4_linear_175_1885" x1="51.5" y1="615" x2="51.5" y2="926.381" gradientUnits="userSpaceOnUse">
<stop stop-color="#F7DD43"/>
<stop offset="1" stop-color="#F7DD43" stop-opacity="0"/>
</linearGradient>
<linearGradient id="paint5_linear_175_1885" x1="51.5" y1="615" x2="51.5" y2="926.381" gradientUnits="userSpaceOnUse">
<stop stop-color="#F7DD43"/>
<stop offset="1" stop-color="#F7DD43" stop-opacity="0"/>
</linearGradient>
<linearGradient id="paint6_linear_175_1885" x1="51.5" y1="615" x2="51.5" y2="926.381" gradientUnits="userSpaceOnUse">
<stop stop-color="#F7DD43"/>
<stop offset="1" stop-color="#F7DD43" stop-opacity="0"/>
</linearGradient>
<linearGradient id="paint7_linear_175_1885" x1="51.5" y1="615" x2="51.5" y2="926.381" gradientUnits="userSpaceOnUse">
<stop stop-color="#F7DD43"/>
<stop offset="1" stop-color="#F7DD43" stop-opacity="0"/>
</linearGradient>
<linearGradient id="paint8_linear_175_1885" x1="51.5" y1="615" x2="51.5" y2="926.381" gradientUnits="userSpaceOnUse">
<stop stop-color="#F7DD43"/>
<stop offset="1" stop-color="#F7DD43" stop-opacity="0"/>
</linearGradient>
<linearGradient id="paint9_linear_175_1885" x1="51.5" y1="615" x2="51.5" y2="926.381" gradientUnits="userSpaceOnUse">
<stop stop-color="#F7DD43"/>
<stop offset="1" stop-color="#F7DD43" stop-opacity="0"/>
</linearGradient>
<linearGradient id="paint10_linear_175_1885" x1="51.5" y1="615" x2="51.5" y2="926.381" gradientUnits="userSpaceOnUse">
<stop stop-color="#F7DD43"/>
<stop offset="1" stop-color="#F7DD43" stop-opacity="0"/>
</linearGradient>
<linearGradient id="paint11_linear_175_1885" x1="51.5" y1="615" x2="51.5" y2="926.381" gradientUnits="userSpaceOnUse">
<stop stop-color="#F7DD43"/>
<stop offset="1" stop-color="#F7DD43" stop-opacity="0"/>
</linearGradient>
<linearGradient id="paint12_linear_175_1885" x1="51.5" y1="615" x2="51.5" y2="926.381" gradientUnits="userSpaceOnUse">
<stop stop-color="#F7DD43"/>
<stop offset="1" stop-color="#F7DD43" stop-opacity="0"/>
</linearGradient>
<linearGradient id="paint13_linear_175_1885" x1="51.5" y1="615" x2="51.5" y2="926.381" gradientUnits="userSpaceOnUse">
<stop stop-color="#F7DD43"/>
<stop offset="1" stop-color="#F7DD43" stop-opacity="0"/>
</linearGradient>
<linearGradient id="paint14_linear_175_1885" x1="51.5" y1="615" x2="51.5" y2="926.381" gradientUnits="userSpaceOnUse">
<stop stop-color="#F7DD43"/>
<stop offset="1" stop-color="#F7DD43" stop-opacity="0"/>
</linearGradient>
<linearGradient id="paint15_linear_175_1885" x1="51.5" y1="615" x2="51.5" y2="926.381" gradientUnits="userSpaceOnUse">
<stop stop-color="#F7DD43"/>
<stop offset="1" stop-color="#F7DD43" stop-opacity="0"/>
</linearGradient>
<linearGradient id="paint16_linear_175_1885" x1="51.5" y1="615" x2="51.5" y2="926.381" gradientUnits="userSpaceOnUse">
<stop stop-color="#F7DD43"/>
<stop offset="1" stop-color="#F7DD43" stop-opacity="0"/>
</linearGradient>
<linearGradient id="paint17_linear_175_1885" x1="51.5" y1="615" x2="51.5" y2="926.381" gradientUnits="userSpaceOnUse">
<stop stop-color="#F7DD43"/>
<stop offset="1" stop-color="#F7DD43" stop-opacity="0"/>
</linearGradient>
<linearGradient id="paint18_linear_175_1885" x1="51.5" y1="615" x2="51.5" y2="926.381" gradientUnits="userSpaceOnUse">
<stop stop-color="#F7DD43"/>
<stop offset="1" stop-color="#F7DD43" stop-opacity="0"/>
</linearGradient>
<linearGradient id="paint19_linear_175_1885" x1="51.5" y1="615" x2="51.5" y2="926.381" gradientUnits="userSpaceOnUse">
<stop stop-color="#F7DD43"/>
<stop offset="1" stop-color="#F7DD43" stop-opacity="0"/>
</linearGradient>
<linearGradient id="paint20_linear_175_1885" x1="51.5" y1="615" x2="51.5" y2="926.381" gradientUnits="userSpaceOnUse">
<stop stop-color="#F7DD43"/>
<stop offset="1" stop-color="#F7DD43" stop-opacity="0"/>
</linearGradient>
<linearGradient id="paint21_linear_175_1885" x1="51.5" y1="615" x2="51.5" y2="926.381" gradientUnits="userSpaceOnUse">
<stop stop-color="#F7DD43"/>
<stop offset="1" stop-color="#F7DD43" stop-opacity="0"/>
</linearGradient>
<linearGradient id="paint22_linear_175_1885" x1="51.5" y1="615" x2="51.5" y2="926.381" gradientUnits="userSpaceOnUse">
<stop stop-color="#F7DD43"/>
<stop offset="1" stop-color="#F7DD43" stop-opacity="0"/>
</linearGradient>
<linearGradient id="paint23_linear_175_1885" x1="51.5" y1="615" x2="51.5" y2="926.381" gradientUnits="userSpaceOnUse">
<stop stop-color="#F7DD43"/>
<stop offset="1" stop-color="#F7DD43" stop-opacity="0"/>
</linearGradient>
<linearGradient id="paint24_linear_175_1885" x1="51.5" y1="615" x2="51.5" y2="926.381" gradientUnits="userSpaceOnUse">
<stop stop-color="#F7DD43"/>
<stop offset="1" stop-color="#F7DD43" stop-opacity="0"/>
</linearGradient>
<linearGradient id="paint25_linear_175_1885" x1="51.5" y1="615" x2="51.5" y2="926.381" gradientUnits="userSpaceOnUse">
<stop stop-color="#F7DD43"/>
<stop offset="1" stop-color="#F7DD43" stop-opacity="0"/>
</linearGradient>
<linearGradient id="paint26_linear_175_1885" x1="51.5" y1="615" x2="51.5" y2="926.381" gradientUnits="userSpaceOnUse">
<stop stop-color="#F7DD43"/>
<stop offset="1" stop-color="#F7DD43" stop-opacity="0"/>
</linearGradient>
<linearGradient id="paint27_linear_175_1885" x1="51.5" y1="615" x2="51.5" y2="926.381" gradientUnits="userSpaceOnUse">
<stop stop-color="#F7DD43"/>
<stop offset="1" stop-color="#F7DD43" stop-opacity="0"/>
</linearGradient>
<linearGradient id="paint28_linear_175_1885" x1="51.5" y1="615" x2="51.5" y2="926.381" gradientUnits="userSpaceOnUse">
<stop stop-color="#F7DD43"/>
<stop offset="1" stop-color="#F7DD43" stop-opacity="0"/>
</linearGradient>
<linearGradient id="paint29_linear_175_1885" x1="51.5" y1="615" x2="51.5" y2="926.381" gradientUnits="userSpaceOnUse">
<stop stop-color="#F7DD43"/>
<stop offset="1" stop-color="#F7DD43" stop-opacity="0"/>
</linearGradient>
<linearGradient id="paint30_linear_175_1885" x1="51.5" y1="615" x2="51.5" y2="926.381" gradientUnits="userSpaceOnUse">
<stop stop-color="#F7DD43"/>
<stop offset="1" stop-color="#F7DD43" stop-opacity="0"/>
</linearGradient>
<linearGradient id="paint31_linear_175_1885" x1="51.5" y1="615" x2="51.5" y2="926.381" gradientUnits="userSpaceOnUse">
<stop stop-color="#F7DD43"/>
<stop offset="1" stop-color="#F7DD43" stop-opacity="0"/>
</linearGradient>
<linearGradient id="paint32_linear_175_1885" x1="51.5" y1="615" x2="51.5" y2="926.381" gradientUnits="userSpaceOnUse">
<stop stop-color="#F7DD43"/>
<stop offset="1" stop-color="#F7DD43" stop-opacity="0"/>
</linearGradient>
<linearGradient id="paint33_linear_175_1885" x1="51.5" y1="615" x2="51.5" y2="926.381" gradientUnits="userSpaceOnUse">
<stop stop-color="#F7DD43"/>
<stop offset="1" stop-color="#F7DD43" stop-opacity="0"/>
</linearGradient>
<linearGradient id="paint34_linear_175_1885" x1="51.5" y1="615" x2="51.5" y2="926.381" gradientUnits="userSpaceOnUse">
<stop stop-color="#F7DD43"/>
<stop offset="1" stop-color="#F7DD43" stop-opacity="0"/>
</linearGradient>
<linearGradient id="paint35_linear_175_1885" x1="51.5" y1="615" x2="51.5" y2="926.381" gradientUnits="userSpaceOnUse">
<stop stop-color="#F7DD43"/>
<stop offset="1" stop-color="#F7DD43" stop-opacity="0"/>
</linearGradient>
<linearGradient id="paint36_linear_175_1885" x1="51.5" y1="615" x2="51.5" y2="926.381" gradientUnits="userSpaceOnUse">
<stop stop-color="#F7DD43"/>
<stop offset="1" stop-color="#F7DD43" stop-opacity="0"/>
</linearGradient>
<linearGradient id="paint37_linear_175_1885" x1="51.5" y1="615" x2="51.5" y2="926.381" gradientUnits="userSpaceOnUse">
<stop stop-color="#F7DD43"/>
<stop offset="1" stop-color="#F7DD43" stop-opacity="0"/>
</linearGradient>
<linearGradient id="paint38_linear_175_1885" x1="51.5" y1="615" x2="51.5" y2="926.381" gradientUnits="userSpaceOnUse">
<stop stop-color="#F7DD43"/>
<stop offset="1" stop-color="#F7DD43" stop-opacity="0"/>
</linearGradient>
<linearGradient id="paint39_linear_175_1885" x1="51.5" y1="615" x2="51.5" y2="926.381" gradientUnits="userSpaceOnUse">
<stop stop-color="#F7DD43"/>
<stop offset="1" stop-color="#F7DD43" stop-opacity="0"/>
</linearGradient>
<linearGradient id="paint40_linear_175_1885" x1="51.5" y1="615" x2="51.5" y2="926.381" gradientUnits="userSpaceOnUse">
<stop stop-color="#F7DD43"/>
<stop offset="1" stop-color="#F7DD43" stop-opacity="0"/>
</linearGradient>
<linearGradient id="paint41_linear_175_1885" x1="51.5" y1="615" x2="51.5" y2="926.381" gradientUnits="userSpaceOnUse">
<stop stop-color="#F7DD43"/>
<stop offset="1" stop-color="#F7DD43" stop-opacity="0"/>
</linearGradient>
<linearGradient id="paint42_linear_175_1885" x1="51.5" y1="615" x2="51.5" y2="926.381" gradientUnits="userSpaceOnUse">
<stop stop-color="#F7DD43"/>
<stop offset="1" stop-color="#F7DD43" stop-opacity="0"/>
</linearGradient>
<linearGradient id="paint43_linear_175_1885" x1="51.5" y1="615" x2="51.5" y2="926.381" gradientUnits="userSpaceOnUse">
<stop stop-color="#F7DD43"/>
<stop offset="1" stop-color="#F7DD43" stop-opacity="0"/>
</linearGradient>
<linearGradient id="paint44_linear_175_1885" x1="51.5" y1="615" x2="51.5" y2="926.381" gradientUnits="userSpaceOnUse">
<stop stop-color="#F7DD43"/>
<stop offset="1" stop-color="#F7DD43" stop-opacity="0"/>
</linearGradient>
<linearGradient id="paint45_linear_175_1885" x1="51.5" y1="615" x2="51.5" y2="926.381" gradientUnits="userSpaceOnUse">
<stop stop-color="#F7DD43"/>
<stop offset="1" stop-color="#F7DD43" stop-opacity="0"/>
</linearGradient>
<linearGradient id="paint46_linear_175_1885" x1="51.5" y1="615" x2="51.5" y2="926.381" gradientUnits="userSpaceOnUse">
<stop stop-color="#F7DD43"/>
<stop offset="1" stop-color="#F7DD43" stop-opacity="0"/>
</linearGradient>
<linearGradient id="paint47_linear_175_1885" x1="937.5" y1="315" x2="937.5" y2="613.818" gradientUnits="userSpaceOnUse">
<stop stop-color="#F7DD43"/>
<stop offset="1" stop-color="#F7DD43" stop-opacity="0"/>
</linearGradient>
<linearGradient id="paint48_linear_175_1885" x1="937.5" y1="315" x2="937.5" y2="613.818" gradientUnits="userSpaceOnUse">
<stop stop-color="#F7DD43"/>
<stop offset="1" stop-color="#F7DD43" stop-opacity="0"/>
</linearGradient>
<linearGradient id="paint49_linear_175_1885" x1="937.5" y1="315" x2="937.5" y2="613.818" gradientUnits="userSpaceOnUse">
<stop stop-color="#F7DD43"/>
<stop offset="1" stop-color="#F7DD43" stop-opacity="0"/>
</linearGradient>
<linearGradient id="paint50_linear_175_1885" x1="937.5" y1="315" x2="937.5" y2="613.818" gradientUnits="userSpaceOnUse">
<stop stop-color="#F7DD43"/>
<stop offset="1" stop-color="#F7DD43" stop-opacity="0"/>
</linearGradient>
<linearGradient id="paint51_linear_175_1885" x1="937.5" y1="315" x2="937.5" y2="613.818" gradientUnits="userSpaceOnUse">
<stop stop-color="#F7DD43"/>
<stop offset="1" stop-color="#F7DD43" stop-opacity="0"/>
</linearGradient>
<linearGradient id="paint52_linear_175_1885" x1="937.5" y1="315" x2="937.5" y2="613.818" gradientUnits="userSpaceOnUse">
<stop stop-color="#F7DD43"/>
<stop offset="1" stop-color="#F7DD43" stop-opacity="0"/>
</linearGradient>
<linearGradient id="paint53_linear_175_1885" x1="937.5" y1="315" x2="937.5" y2="613.818" gradientUnits="userSpaceOnUse">
<stop stop-color="#F7DD43"/>
<stop offset="1" stop-color="#F7DD43" stop-opacity="0"/>
</linearGradient>
<linearGradient id="paint54_linear_175_1885" x1="937.5" y1="315" x2="937.5" y2="613.818" gradientUnits="userSpaceOnUse">
<stop stop-color="#F7DD43"/>
<stop offset="1" stop-color="#F7DD43" stop-opacity="0"/>
</linearGradient>
<linearGradient id="paint55_linear_175_1885" x1="937.5" y1="315" x2="937.5" y2="613.818" gradientUnits="userSpaceOnUse">
<stop stop-color="#F7DD43"/>
<stop offset="1" stop-color="#F7DD43" stop-opacity="0"/>
</linearGradient>
<linearGradient id="paint56_linear_175_1885" x1="937.5" y1="315" x2="937.5" y2="613.818" gradientUnits="userSpaceOnUse">
<stop stop-color="#F7DD43"/>
<stop offset="1" stop-color="#F7DD43" stop-opacity="0"/>
</linearGradient>
<linearGradient id="paint57_linear_175_1885" x1="937.5" y1="315" x2="937.5" y2="613.818" gradientUnits="userSpaceOnUse">
<stop stop-color="#F7DD43"/>
<stop offset="1" stop-color="#F7DD43" stop-opacity="0"/>
</linearGradient>
<linearGradient id="paint58_linear_175_1885" x1="937.5" y1="315" x2="937.5" y2="613.818" gradientUnits="userSpaceOnUse">
<stop stop-color="#F7DD43"/>
<stop offset="1" stop-color="#F7DD43" stop-opacity="0"/>
</linearGradient>
<linearGradient id="paint59_linear_175_1885" x1="937.5" y1="315" x2="937.5" y2="613.818" gradientUnits="userSpaceOnUse">
<stop stop-color="#F7DD43"/>
<stop offset="1" stop-color="#F7DD43" stop-opacity="0"/>
</linearGradient>
<linearGradient id="paint60_linear_175_1885" x1="937.5" y1="315" x2="937.5" y2="613.818" gradientUnits="userSpaceOnUse">
<stop stop-color="#F7DD43"/>
<stop offset="1" stop-color="#F7DD43" stop-opacity="0"/>
</linearGradient>
<linearGradient id="paint61_linear_175_1885" x1="937.5" y1="315" x2="937.5" y2="613.818" gradientUnits="userSpaceOnUse">
<stop stop-color="#F7DD43"/>
<stop offset="1" stop-color="#F7DD43" stop-opacity="0"/>
</linearGradient>
<linearGradient id="paint62_linear_175_1885" x1="937.5" y1="315" x2="937.5" y2="613.818" gradientUnits="userSpaceOnUse">
<stop stop-color="#F7DD43"/>
<stop offset="1" stop-color="#F7DD43" stop-opacity="0"/>
</linearGradient>
<linearGradient id="paint63_linear_175_1885" x1="937.5" y1="315" x2="937.5" y2="613.818" gradientUnits="userSpaceOnUse">
<stop stop-color="#F7DD43"/>
<stop offset="1" stop-color="#F7DD43" stop-opacity="0"/>
</linearGradient>
<linearGradient id="paint64_linear_175_1885" x1="937.5" y1="315" x2="937.5" y2="613.818" gradientUnits="userSpaceOnUse">
<stop stop-color="#F7DD43"/>
<stop offset="1" stop-color="#F7DD43" stop-opacity="0"/>
</linearGradient>
<linearGradient id="paint65_linear_175_1885" x1="937.5" y1="315" x2="937.5" y2="613.818" gradientUnits="userSpaceOnUse">
<stop stop-color="#F7DD43"/>
<stop offset="1" stop-color="#F7DD43" stop-opacity="0"/>
</linearGradient>
<linearGradient id="paint66_linear_175_1885" x1="937.5" y1="315" x2="937.5" y2="613.818" gradientUnits="userSpaceOnUse">
<stop stop-color="#F7DD43"/>
<stop offset="1" stop-color="#F7DD43" stop-opacity="0"/>
</linearGradient>
<linearGradient id="paint67_linear_175_1885" x1="937.5" y1="315" x2="937.5" y2="613.818" gradientUnits="userSpaceOnUse">
<stop stop-color="#F7DD43"/>
<stop offset="1" stop-color="#F7DD43" stop-opacity="0"/>
</linearGradient>
<linearGradient id="paint68_linear_175_1885" x1="937.5" y1="315" x2="937.5" y2="613.818" gradientUnits="userSpaceOnUse">
<stop stop-color="#F7DD43"/>
<stop offset="1" stop-color="#F7DD43" stop-opacity="0"/>
</linearGradient>
<linearGradient id="paint69_linear_175_1885" x1="937.5" y1="315" x2="937.5" y2="613.818" gradientUnits="userSpaceOnUse">
<stop stop-color="#F7DD43"/>
<stop offset="1" stop-color="#F7DD43" stop-opacity="0"/>
</linearGradient>
<linearGradient id="paint70_linear_175_1885" x1="937.5" y1="315" x2="937.5" y2="613.818" gradientUnits="userSpaceOnUse">
<stop stop-color="#F7DD43"/>
<stop offset="1" stop-color="#F7DD43" stop-opacity="0"/>
</linearGradient>
<linearGradient id="paint71_linear_175_1885" x1="937.5" y1="315" x2="937.5" y2="613.818" gradientUnits="userSpaceOnUse">
<stop stop-color="#F7DD43"/>
<stop offset="1" stop-color="#F7DD43" stop-opacity="0"/>
</linearGradient>
<linearGradient id="paint72_linear_175_1885" x1="937.5" y1="315" x2="937.5" y2="613.818" gradientUnits="userSpaceOnUse">
<stop stop-color="#F7DD43"/>
<stop offset="1" stop-color="#F7DD43" stop-opacity="0"/>
</linearGradient>
<linearGradient id="paint73_linear_175_1885" x1="937.5" y1="315" x2="937.5" y2="613.818" gradientUnits="userSpaceOnUse">
<stop stop-color="#F7DD43"/>
<stop offset="1" stop-color="#F7DD43" stop-opacity="0"/>
</linearGradient>
<linearGradient id="paint74_linear_175_1885" x1="937.5" y1="315" x2="937.5" y2="613.818" gradientUnits="userSpaceOnUse">
<stop stop-color="#F7DD43"/>
<stop offset="1" stop-color="#F7DD43" stop-opacity="0"/>
</linearGradient>
<linearGradient id="paint75_linear_175_1885" x1="937.5" y1="315" x2="937.5" y2="613.818" gradientUnits="userSpaceOnUse">
<stop stop-color="#F7DD43"/>
<stop offset="1" stop-color="#F7DD43" stop-opacity="0"/>
</linearGradient>
<linearGradient id="paint76_linear_175_1885" x1="937.5" y1="315" x2="937.5" y2="613.818" gradientUnits="userSpaceOnUse">
<stop stop-color="#F7DD43"/>
<stop offset="1" stop-color="#F7DD43" stop-opacity="0"/>
</linearGradient>
<linearGradient id="paint77_linear_175_1885" x1="937.5" y1="315" x2="937.5" y2="613.818" gradientUnits="userSpaceOnUse">
<stop stop-color="#F7DD43"/>
<stop offset="1" stop-color="#F7DD43" stop-opacity="0"/>
</linearGradient>
<linearGradient id="paint78_linear_175_1885" x1="937.5" y1="315" x2="937.5" y2="613.818" gradientUnits="userSpaceOnUse">
<stop stop-color="#F7DD43"/>
<stop offset="1" stop-color="#F7DD43" stop-opacity="0"/>
</linearGradient>
<linearGradient id="paint79_linear_175_1885" x1="937.5" y1="315" x2="937.5" y2="613.818" gradientUnits="userSpaceOnUse">
<stop stop-color="#F7DD43"/>
<stop offset="1" stop-color="#F7DD43" stop-opacity="0"/>
</linearGradient>
<linearGradient id="paint80_linear_175_1885" x1="937.5" y1="315" x2="937.5" y2="613.818" gradientUnits="userSpaceOnUse">
<stop stop-color="#F7DD43"/>
<stop offset="1" stop-color="#F7DD43" stop-opacity="0"/>
</linearGradient>
<linearGradient id="paint81_linear_175_1885" x1="937.5" y1="315" x2="937.5" y2="613.818" gradientUnits="userSpaceOnUse">
<stop stop-color="#F7DD43"/>
<stop offset="1" stop-color="#F7DD43" stop-opacity="0"/>
</linearGradient>
<linearGradient id="paint82_linear_175_1885" x1="937.5" y1="315" x2="937.5" y2="613.818" gradientUnits="userSpaceOnUse">
<stop stop-color="#F7DD43"/>
<stop offset="1" stop-color="#F7DD43" stop-opacity="0"/>
</linearGradient>
<linearGradient id="paint83_linear_175_1885" x1="937.5" y1="315" x2="937.5" y2="613.818" gradientUnits="userSpaceOnUse">
<stop stop-color="#F7DD43"/>
<stop offset="1" stop-color="#F7DD43" stop-opacity="0"/>
</linearGradient>
<linearGradient id="paint84_linear_175_1885" x1="937.5" y1="315" x2="937.5" y2="613.818" gradientUnits="userSpaceOnUse">
<stop stop-color="#F7DD43"/>
<stop offset="1" stop-color="#F7DD43" stop-opacity="0"/>
</linearGradient>
<linearGradient id="paint85_linear_175_1885" x1="937.5" y1="315" x2="937.5" y2="613.818" gradientUnits="userSpaceOnUse">
<stop stop-color="#F7DD43"/>
<stop offset="1" stop-color="#F7DD43" stop-opacity="0"/>
</linearGradient>
<linearGradient id="paint86_linear_175_1885" x1="937.5" y1="315" x2="937.5" y2="613.818" gradientUnits="userSpaceOnUse">
<stop stop-color="#F7DD43"/>
<stop offset="1" stop-color="#F7DD43" stop-opacity="0"/>
</linearGradient>
<linearGradient id="paint87_linear_175_1885" x1="937.5" y1="315" x2="937.5" y2="613.818" gradientUnits="userSpaceOnUse">
<stop stop-color="#F7DD43"/>
<stop offset="1" stop-color="#F7DD43" stop-opacity="0"/>
</linearGradient>
<linearGradient id="paint88_linear_175_1885" x1="937.5" y1="315" x2="937.5" y2="613.818" gradientUnits="userSpaceOnUse">
<stop stop-color="#F7DD43"/>
<stop offset="1" stop-color="#F7DD43" stop-opacity="0"/>
</linearGradient>
<linearGradient id="paint89_linear_175_1885" x1="937.5" y1="315" x2="937.5" y2="613.818" gradientUnits="userSpaceOnUse">
<stop stop-color="#F7DD43"/>
<stop offset="1" stop-color="#F7DD43" stop-opacity="0"/>
</linearGradient>
<linearGradient id="paint90_linear_175_1885" x1="937.5" y1="315" x2="937.5" y2="613.818" gradientUnits="userSpaceOnUse">
<stop stop-color="#F7DD43"/>
<stop offset="1" stop-color="#F7DD43" stop-opacity="0"/>
</linearGradient>
<linearGradient id="paint91_linear_175_1885" x1="937.5" y1="315" x2="937.5" y2="613.818" gradientUnits="userSpaceOnUse">
<stop stop-color="#F7DD43"/>
<stop offset="1" stop-color="#F7DD43" stop-opacity="0"/>
</linearGradient>
<linearGradient id="paint92_linear_175_1885" x1="937.5" y1="315" x2="937.5" y2="613.818" gradientUnits="userSpaceOnUse">
<stop stop-color="#F7DD43"/>
<stop offset="1" stop-color="#F7DD43" stop-opacity="0"/>
</linearGradient>
<linearGradient id="paint93_linear_175_1885" x1="937.5" y1="315" x2="937.5" y2="613.818" gradientUnits="userSpaceOnUse">
<stop stop-color="#F7DD43"/>
<stop offset="1" stop-color="#F7DD43" stop-opacity="0"/>
</linearGradient>
</defs>
</svg>
