<svg width="1024" height="753" viewBox="0 0 1024 753" fill="none" xmlns="http://www.w3.org/2000/svg">
<g opacity="0.2" filter="url(#filter0_f_175_1868)">
<ellipse cx="512.5" cy="350" rx="670.5" ry="350" fill="#35875D"/>
</g>
<path d="M33.0349 586C34.5302 586 35.6622 586.63 36.4308 587.891C37.2134 589.138 37.6047 590.953 37.6047 593.336C37.6047 595.719 37.2134 597.541 36.4308 598.802C35.6622 600.063 34.5302 600.693 33.0349 600.693C31.5536 600.693 30.4216 600.063 29.639 598.802C28.8564 597.541 28.4651 595.719 28.4651 593.336C28.4651 590.967 28.8564 589.152 29.639 587.891C30.4216 586.63 31.5536 586 33.0349 586ZM29.9534 593.336C29.9534 595.026 30.1072 596.35 30.4146 597.306L35.0683 588.099C34.5791 587.448 33.9013 587.122 33.0349 587.122C32.0706 587.122 31.316 587.635 30.771 588.66C30.2259 589.672 29.9534 591.23 29.9534 593.336ZM33.0349 599.55C34.0131 599.55 34.7748 599.044 35.3198 598.033C35.8648 597.008 36.1373 595.442 36.1373 593.336C36.1373 591.549 35.9627 590.163 35.6133 589.18L30.9596 598.469C31.4627 599.19 32.1545 599.55 33.0349 599.55Z" fill="url(#paint0_linear_175_1868)" fill-opacity="0.6"/>
<path d="M34.2926 623.135H37.3741V624.236H29.3874V623.135H32.9511V611.455L29.5551 613.471L28.9682 612.536L33.1607 609.959H34.2926V623.135Z" fill="url(#paint1_linear_175_1868)" fill-opacity="0.6"/>
<path d="M33.0349 633.502C34.5302 633.502 35.6622 634.133 36.4308 635.393C37.2134 636.64 37.6047 638.455 37.6047 640.838C37.6047 643.221 37.2134 645.043 36.4308 646.304C35.6622 647.565 34.5302 648.195 33.0349 648.195C31.5536 648.195 30.4216 647.565 29.639 646.304C28.8564 645.043 28.4651 643.221 28.4651 640.838C28.4651 638.469 28.8564 636.654 29.639 635.393C30.4216 634.133 31.5536 633.502 33.0349 633.502ZM29.9534 640.838C29.9534 642.529 30.1072 643.852 30.4146 644.808L35.0683 635.601C34.5791 634.95 33.9013 634.624 33.0349 634.624C32.0706 634.624 31.316 635.137 30.771 636.162C30.2259 637.174 29.9534 638.732 29.9534 640.838ZM33.0349 647.052C34.0131 647.052 34.7748 646.546 35.3198 645.535C35.8648 644.51 36.1373 642.944 36.1373 640.838C36.1373 639.051 35.9627 637.665 35.6133 636.682L30.9596 645.971C31.4627 646.692 32.1545 647.052 33.0349 647.052Z" fill="url(#paint2_linear_175_1868)" fill-opacity="0.6"/>
<path d="M34.2926 670.637H37.3741V671.738H29.3874V670.637H32.9511V658.957L29.5551 660.973L28.9682 660.038L33.1607 657.461H34.2926V670.637Z" fill="url(#paint3_linear_175_1868)" fill-opacity="0.6"/>
<path d="M34.2926 694.388H37.3741V695.489H29.3874V694.388H32.9511V682.708L29.5551 684.724L28.9682 683.789L33.1607 681.212H34.2926V694.388Z" fill="url(#paint4_linear_175_1868)" fill-opacity="0.6"/>
<path d="M33.0349 704.755C34.5302 704.755 35.6622 705.386 36.4308 706.646C37.2134 707.893 37.6047 709.708 37.6047 712.091C37.6047 714.474 37.2134 716.296 36.4308 717.557C35.6622 718.818 34.5302 719.448 33.0349 719.448C31.5536 719.448 30.4216 718.818 29.639 717.557C28.8564 716.296 28.4651 714.474 28.4651 712.091C28.4651 709.722 28.8564 707.907 29.639 706.646C30.4216 705.386 31.5536 704.755 33.0349 704.755ZM29.9534 712.091C29.9534 713.782 30.1072 715.105 30.4146 716.061L35.0683 706.854C34.5791 706.203 33.9013 705.878 33.0349 705.878C32.0706 705.878 31.316 706.39 30.771 707.415C30.2259 708.427 29.9534 709.985 29.9534 712.091ZM33.0349 718.305C34.0131 718.305 34.7748 717.8 35.3198 716.788C35.8648 715.763 36.1373 714.197 36.1373 712.091C36.1373 710.304 35.9627 708.919 35.6133 707.935L30.9596 717.225C31.4627 717.945 32.1545 718.305 33.0349 718.305Z" fill="url(#paint5_linear_175_1868)" fill-opacity="0.6"/>
<path d="M34.2926 741.89H37.3741V742.992H29.3874V741.89H32.9511V730.21L29.5551 732.226L28.9682 731.291L33.1607 728.714H34.2926V741.89Z" fill="url(#paint6_linear_175_1868)" fill-opacity="0.6"/>
<path d="M33.0349 752.257C34.5302 752.257 35.6622 752.888 36.4308 754.149C37.2134 755.396 37.6047 757.211 37.6047 759.594C37.6047 761.977 37.2134 763.798 36.4308 765.059C35.6622 766.32 34.5302 766.95 33.0349 766.95C31.5536 766.95 30.4216 766.32 29.639 765.059C28.8564 763.798 28.4651 761.977 28.4651 759.594C28.4651 757.224 28.8564 755.409 29.639 754.149C30.4216 752.888 31.5536 752.257 33.0349 752.257ZM29.9534 759.594C29.9534 761.284 30.1072 762.607 30.4146 763.563L35.0683 754.356C34.5791 753.705 33.9013 753.38 33.0349 753.38C32.0706 753.38 31.316 753.892 30.771 754.918C30.2259 755.929 29.9534 757.488 29.9534 759.594ZM33.0349 765.807C34.0131 765.807 34.7748 765.302 35.3198 764.29C35.8648 763.265 36.1373 761.699 36.1373 759.594C36.1373 757.806 35.9627 756.421 35.6133 755.437L30.9596 764.727C31.4627 765.447 32.1545 765.807 33.0349 765.807Z" fill="url(#paint7_linear_175_1868)" fill-opacity="0.6"/>
<path d="M33.0349 776.008C34.5302 776.008 35.6622 776.639 36.4308 777.9C37.2134 779.147 37.6047 780.962 37.6047 783.345C37.6047 785.728 37.2134 787.549 36.4308 788.81C35.6622 790.071 34.5302 790.701 33.0349 790.701C31.5536 790.701 30.4216 790.071 29.639 788.81C28.8564 787.549 28.4651 785.728 28.4651 783.345C28.4651 780.975 28.8564 779.16 29.639 777.9C30.4216 776.639 31.5536 776.008 33.0349 776.008ZM29.9534 783.345C29.9534 785.035 30.1072 786.358 30.4146 787.314L35.0683 778.107C34.5791 777.456 33.9013 777.131 33.0349 777.131C32.0706 777.131 31.316 777.643 30.771 778.669C30.2259 779.68 29.9534 781.239 29.9534 783.345ZM33.0349 789.558C34.0131 789.558 34.7748 789.053 35.3198 788.041C35.8648 787.016 36.1373 785.451 36.1373 783.345C36.1373 781.557 35.9627 780.172 35.6133 779.188L30.9596 788.478C31.4627 789.198 32.1545 789.558 33.0349 789.558Z" fill="url(#paint8_linear_175_1868)" fill-opacity="0.6"/>
<path d="M34.2926 813.143H37.3741V814.245H29.3874V813.143H32.9511V801.464L29.5551 803.48L28.9682 802.544L33.1607 799.967H34.2926V813.143Z" fill="url(#paint9_linear_175_1868)" fill-opacity="0.6"/>
<path d="M33.0349 823.511C34.5302 823.511 35.6622 824.141 36.4308 825.402C37.2134 826.649 37.6047 828.464 37.6047 830.847C37.6047 833.23 37.2134 835.052 36.4308 836.312C35.6622 837.573 34.5302 838.204 33.0349 838.204C31.5536 838.204 30.4216 837.573 29.639 836.312C28.8564 835.052 28.4651 833.23 28.4651 830.847C28.4651 828.478 28.8564 826.663 29.639 825.402C30.4216 824.141 31.5536 823.511 33.0349 823.511ZM29.9534 830.847C29.9534 832.537 30.1072 833.86 30.4146 834.816L35.0683 825.61C34.5791 824.958 33.9013 824.633 33.0349 824.633C32.0706 824.633 31.316 825.145 30.771 826.171C30.2259 827.182 29.9534 828.741 29.9534 830.847ZM33.0349 837.061C34.0131 837.061 34.7748 836.555 35.3198 835.543C35.8648 834.518 36.1373 832.953 36.1373 830.847C36.1373 829.059 35.9627 827.674 35.6133 826.69L30.9596 835.98C31.4627 836.7 32.1545 837.061 33.0349 837.061Z" fill="url(#paint10_linear_175_1868)" fill-opacity="0.6"/>
<path d="M34.2926 860.645H37.3741V861.747H29.3874V860.645H32.9511V848.966L29.5551 850.982L28.9682 850.046L33.1607 847.469H34.2926V860.645Z" fill="url(#paint11_linear_175_1868)" fill-opacity="0.6"/>
<path d="M34.2926 884.396H37.3741V885.498H29.3874V884.396H32.9511V872.717L29.5551 874.733L28.9682 873.798L33.1607 871.221H34.2926V884.396Z" fill="url(#paint12_linear_175_1868)" fill-opacity="0.6"/>
<path d="M71.9651 633.502C73.4604 633.502 74.5924 634.133 75.361 635.393C76.1436 636.64 76.5349 638.455 76.5349 640.838C76.5349 643.221 76.1436 645.043 75.361 646.304C74.5924 647.565 73.4604 648.195 71.9651 648.195C70.4838 648.195 69.3518 647.565 68.5692 646.304C67.7866 645.043 67.3953 643.221 67.3953 640.838C67.3953 638.469 67.7866 636.654 68.5692 635.393C69.3518 634.133 70.4838 633.502 71.9651 633.502ZM68.8836 640.838C68.8836 642.529 69.0374 643.852 69.3448 644.808L73.9985 635.601C73.5093 634.95 72.8315 634.624 71.9651 634.624C71.0008 634.624 70.2462 635.137 69.7012 636.162C69.1561 637.174 68.8836 638.732 68.8836 640.838ZM71.9651 647.052C72.9433 647.052 73.705 646.546 74.25 645.535C74.795 644.51 75.0675 642.944 75.0675 640.838C75.0675 639.051 74.8928 637.665 74.5435 636.682L69.8898 645.971C70.3929 646.692 71.0847 647.052 71.9651 647.052Z" fill="url(#paint13_linear_175_1868)" fill-opacity="0.6"/>
<path d="M73.2228 670.637H76.3043V671.738H68.3176V670.637H71.8812V658.957L68.4853 660.973L67.8984 660.038L72.0909 657.461H73.2228V670.637Z" fill="url(#paint14_linear_175_1868)" fill-opacity="0.6"/>
<path d="M71.9651 681.004C73.4604 681.004 74.5924 681.635 75.361 682.895C76.1436 684.142 76.5349 685.957 76.5349 688.34C76.5349 690.723 76.1436 692.545 75.361 693.806C74.5924 695.067 73.4604 695.697 71.9651 695.697C70.4838 695.697 69.3518 695.067 68.5692 693.806C67.7866 692.545 67.3953 690.723 67.3953 688.34C67.3953 685.971 67.7866 684.156 68.5692 682.895C69.3518 681.635 70.4838 681.004 71.9651 681.004ZM68.8836 688.34C68.8836 690.031 69.0374 691.354 69.3448 692.31L73.9985 683.103C73.5093 682.452 72.8315 682.126 71.9651 682.126C71.0008 682.126 70.2462 682.639 69.7012 683.664C69.1561 684.676 68.8836 686.234 68.8836 688.34ZM71.9651 694.554C72.9433 694.554 73.705 694.049 74.25 693.037C74.795 692.012 75.0675 690.446 75.0675 688.34C75.0675 686.553 74.8928 685.168 74.5435 684.184L69.8898 693.474C70.3929 694.194 71.0847 694.554 71.9651 694.554Z" fill="url(#paint15_linear_175_1868)" fill-opacity="0.6"/>
<path d="M71.9651 704.755C73.4604 704.755 74.5924 705.386 75.361 706.646C76.1436 707.893 76.5349 709.708 76.5349 712.091C76.5349 714.474 76.1436 716.296 75.361 717.557C74.5924 718.818 73.4604 719.448 71.9651 719.448C70.4838 719.448 69.3518 718.818 68.5692 717.557C67.7866 716.296 67.3953 714.474 67.3953 712.091C67.3953 709.722 67.7866 707.907 68.5692 706.646C69.3518 705.386 70.4838 704.755 71.9651 704.755ZM68.8836 712.091C68.8836 713.782 69.0374 715.105 69.3448 716.061L73.9985 706.854C73.5093 706.203 72.8315 705.878 71.9651 705.878C71.0008 705.878 70.2462 706.39 69.7012 707.415C69.1561 708.427 68.8836 709.985 68.8836 712.091ZM71.9651 718.305C72.9433 718.305 73.705 717.8 74.25 716.788C74.795 715.763 75.0675 714.197 75.0675 712.091C75.0675 710.304 74.8928 708.919 74.5435 707.935L69.8898 717.225C70.3929 717.945 71.0847 718.305 71.9651 718.305Z" fill="url(#paint16_linear_175_1868)" fill-opacity="0.6"/>
<path d="M73.2228 741.89H76.3043V742.992H68.3176V741.89H71.8812V730.21L68.4853 732.226L67.8984 731.291L72.0909 728.714H73.2228V741.89Z" fill="url(#paint17_linear_175_1868)" fill-opacity="0.6"/>
<path d="M71.9651 752.257C73.4604 752.257 74.5924 752.888 75.361 754.149C76.1436 755.396 76.5349 757.211 76.5349 759.594C76.5349 761.977 76.1436 763.798 75.361 765.059C74.5924 766.32 73.4604 766.95 71.9651 766.95C70.4838 766.95 69.3518 766.32 68.5692 765.059C67.7866 763.798 67.3953 761.977 67.3953 759.594C67.3953 757.224 67.7866 755.409 68.5692 754.149C69.3518 752.888 70.4838 752.257 71.9651 752.257ZM68.8836 759.594C68.8836 761.284 69.0374 762.607 69.3448 763.563L73.9985 754.356C73.5093 753.705 72.8315 753.38 71.9651 753.38C71.0008 753.38 70.2462 753.892 69.7012 754.918C69.1561 755.929 68.8836 757.488 68.8836 759.594ZM71.9651 765.807C72.9433 765.807 73.705 765.302 74.25 764.29C74.795 763.265 75.0675 761.699 75.0675 759.594C75.0675 757.806 74.8928 756.421 74.5435 755.437L69.8898 764.727C70.3929 765.447 71.0847 765.807 71.9651 765.807Z" fill="url(#paint18_linear_175_1868)" fill-opacity="0.6"/>
<path d="M73.2228 789.392H76.3043V790.494H68.3176V789.392H71.8812V777.713L68.4853 779.728L67.8984 778.793L72.0909 776.216H73.2228V789.392Z" fill="url(#paint19_linear_175_1868)" fill-opacity="0.6"/>
<path d="M71.9651 799.76C73.4604 799.76 74.5924 800.39 75.361 801.651C76.1436 802.898 76.5349 804.713 76.5349 807.096C76.5349 809.479 76.1436 811.301 75.361 812.561C74.5924 813.822 73.4604 814.453 71.9651 814.453C70.4838 814.453 69.3518 813.822 68.5692 812.561C67.7866 811.301 67.3953 809.479 67.3953 807.096C67.3953 804.726 67.7866 802.911 68.5692 801.651C69.3518 800.39 70.4838 799.76 71.9651 799.76ZM68.8836 807.096C68.8836 808.786 69.0374 810.109 69.3448 811.065L73.9985 801.859C73.5093 801.207 72.8315 800.882 71.9651 800.882C71.0008 800.882 70.2462 801.394 69.7012 802.42C69.1561 803.431 68.8836 804.99 68.8836 807.096ZM71.9651 813.31C72.9433 813.31 73.705 812.804 74.25 811.792C74.795 810.767 75.0675 809.202 75.0675 807.096C75.0675 805.308 74.8928 803.923 74.5435 802.939L69.8898 812.229C70.3929 812.949 71.0847 813.31 71.9651 813.31Z" fill="url(#paint20_linear_175_1868)" fill-opacity="0.6"/>
<path d="M71.9651 823.511C73.4604 823.511 74.5924 824.141 75.361 825.402C76.1436 826.649 76.5349 828.464 76.5349 830.847C76.5349 833.23 76.1436 835.052 75.361 836.312C74.5924 837.573 73.4604 838.204 71.9651 838.204C70.4838 838.204 69.3518 837.573 68.5692 836.312C67.7866 835.052 67.3953 833.23 67.3953 830.847C67.3953 828.478 67.7866 826.663 68.5692 825.402C69.3518 824.141 70.4838 823.511 71.9651 823.511ZM68.8836 830.847C68.8836 832.537 69.0374 833.86 69.3448 834.816L73.9985 825.61C73.5093 824.958 72.8315 824.633 71.9651 824.633C71.0008 824.633 70.2462 825.145 69.7012 826.171C69.1561 827.182 68.8836 828.741 68.8836 830.847ZM71.9651 837.061C72.9433 837.061 73.705 836.555 74.25 835.543C74.795 834.518 75.0675 832.953 75.0675 830.847C75.0675 829.059 74.8928 827.674 74.5435 826.69L69.8898 835.98C70.3929 836.7 71.0847 837.061 71.9651 837.061Z" fill="url(#paint21_linear_175_1868)" fill-opacity="0.6"/>
<path d="M73.2228 860.645H76.3043V861.747H68.3176V860.645H71.8812V848.966L68.4853 850.982L67.8984 850.046L72.0909 847.469H73.2228V860.645Z" fill="url(#paint22_linear_175_1868)" fill-opacity="0.6"/>
<path d="M71.9651 871.013C73.4604 871.013 74.5924 871.643 75.361 872.904C76.1436 874.151 76.5349 875.966 76.5349 878.349C76.5349 880.732 76.1436 882.554 75.361 883.815C74.5924 885.075 73.4604 885.706 71.9651 885.706C70.4838 885.706 69.3518 885.075 68.5692 883.815C67.7866 882.554 67.3953 880.732 67.3953 878.349C67.3953 875.98 67.7866 874.165 68.5692 872.904C69.3518 871.643 70.4838 871.013 71.9651 871.013ZM68.8836 878.349C68.8836 880.039 69.0374 881.362 69.3448 882.318L73.9985 873.112C73.5093 872.461 72.8315 872.135 71.9651 872.135C71.0008 872.135 70.2462 872.648 69.7012 873.673C69.1561 874.684 68.8836 876.243 68.8836 878.349ZM71.9651 884.563C72.9433 884.563 73.705 884.057 74.25 883.046C74.795 882.02 75.0675 880.455 75.0675 878.349C75.0675 876.562 74.8928 875.176 74.5435 874.192L69.8898 883.482C70.3929 884.202 71.0847 884.563 71.9651 884.563Z" fill="url(#paint23_linear_175_1868)" fill-opacity="0.6"/>
<path d="M73.2228 908.148H76.3043V909.249H68.3176V908.148H71.8812V896.468L68.4853 898.484L67.8984 897.549L72.0909 894.972H73.2228V908.148Z" fill="url(#paint24_linear_175_1868)" fill-opacity="0.6"/>
<path d="M73.2228 931.899H76.3043V933H68.3176V931.899H71.8812V920.219L68.4853 922.235L67.8984 921.3L72.0909 918.723H73.2228V931.899Z" fill="url(#paint25_linear_175_1868)" fill-opacity="0.6"/>
<path d="M13.5698 657.253C15.0651 657.253 16.1971 657.884 16.9657 659.144C17.7483 660.391 18.1396 662.206 18.1396 664.589C18.1396 666.972 17.7483 668.794 16.9657 670.055C16.1971 671.316 15.0651 671.946 13.5698 671.946C12.0885 671.946 10.9565 671.316 10.1739 670.055C9.3913 668.794 9 666.972 9 664.589C9 662.22 9.3913 660.405 10.1739 659.144C10.9565 657.884 12.0885 657.253 13.5698 657.253ZM10.4883 664.589C10.4883 666.28 10.6421 667.603 10.9495 668.559L15.6032 659.352C15.114 658.701 14.4363 658.375 13.5698 658.375C12.6055 658.375 11.8509 658.888 11.3059 659.913C10.7608 660.925 10.4883 662.483 10.4883 664.589ZM13.5698 670.803C14.5481 670.803 15.3097 670.297 15.8547 669.286C16.3997 668.261 16.6722 666.695 16.6722 664.589C16.6722 662.802 16.4976 661.417 16.1482 660.433L11.4945 669.722C11.9976 670.443 12.6894 670.803 13.5698 670.803Z" fill="url(#paint26_linear_175_1868)" fill-opacity="0.6"/>
<path d="M13.5698 681.004C15.0651 681.004 16.1971 681.635 16.9657 682.895C17.7483 684.142 18.1396 685.957 18.1396 688.34C18.1396 690.723 17.7483 692.545 16.9657 693.806C16.1971 695.067 15.0651 695.697 13.5698 695.697C12.0885 695.697 10.9565 695.067 10.1739 693.806C9.3913 692.545 9 690.723 9 688.34C9 685.971 9.3913 684.156 10.1739 682.895C10.9565 681.635 12.0885 681.004 13.5698 681.004ZM10.4883 688.34C10.4883 690.031 10.6421 691.354 10.9495 692.31L15.6032 683.103C15.114 682.452 14.4363 682.126 13.5698 682.126C12.6055 682.126 11.8509 682.639 11.3059 683.664C10.7608 684.676 10.4883 686.234 10.4883 688.34ZM13.5698 694.554C14.5481 694.554 15.3097 694.049 15.8547 693.037C16.3997 692.012 16.6722 690.446 16.6722 688.34C16.6722 686.553 16.4976 685.168 16.1482 684.184L11.4945 693.474C11.9976 694.194 12.6894 694.554 13.5698 694.554Z" fill="url(#paint27_linear_175_1868)" fill-opacity="0.6"/>
<path d="M14.8276 718.139H17.909V719.24H9.92235V718.139H13.486V706.459L10.09 708.475L9.5031 707.54L13.6956 704.963H14.8276V718.139Z" fill="url(#paint28_linear_175_1868)" fill-opacity="0.6"/>
<path d="M13.5698 728.506C15.0651 728.506 16.1971 729.137 16.9657 730.398C17.7483 731.644 18.1396 733.459 18.1396 735.842C18.1396 738.225 17.7483 740.047 16.9657 741.308C16.1971 742.569 15.0651 743.199 13.5698 743.199C12.0885 743.199 10.9565 742.569 10.1739 741.308C9.3913 740.047 9 738.225 9 735.842C9 733.473 9.3913 731.658 10.1739 730.398C10.9565 729.137 12.0885 728.506 13.5698 728.506ZM10.4883 735.842C10.4883 737.533 10.6421 738.856 10.9495 739.812L15.6032 730.605C15.114 729.954 14.4363 729.629 13.5698 729.629C12.6055 729.629 11.8509 730.141 11.3059 731.166C10.7608 732.178 10.4883 733.737 10.4883 735.842ZM13.5698 742.056C14.5481 742.056 15.3097 741.551 15.8547 740.539C16.3997 739.514 16.6722 737.948 16.6722 735.842C16.6722 734.055 16.4976 732.67 16.1482 731.686L11.4945 740.976C11.9976 741.696 12.6894 742.056 13.5698 742.056Z" fill="url(#paint29_linear_175_1868)" fill-opacity="0.6"/>
<path d="M14.8276 765.641H17.909V766.743H9.92235V765.641H13.486V753.962L10.09 755.977L9.5031 755.042L13.6956 752.465H14.8276V765.641Z" fill="url(#paint30_linear_175_1868)" fill-opacity="0.6"/>
<path d="M14.8276 789.392H17.909V790.494H9.92235V789.392H13.486V777.713L10.09 779.728L9.5031 778.793L13.6956 776.216H14.8276V789.392Z" fill="url(#paint31_linear_175_1868)" fill-opacity="0.6"/>
<path d="M53.7577 623.135H56.8392V624.236H48.8525V623.135H52.4162V611.455L49.0202 613.471L48.4333 612.536L52.6258 609.959H53.7577V623.135Z" fill="url(#paint32_linear_175_1868)" fill-opacity="0.6"/>
<path d="M52.5 633.502C53.9953 633.502 55.1273 634.133 55.8959 635.393C56.6785 636.64 57.0698 638.455 57.0698 640.838C57.0698 643.221 56.6785 645.043 55.8959 646.304C55.1273 647.565 53.9953 648.195 52.5 648.195C51.0187 648.195 49.8867 647.565 49.1041 646.304C48.3215 645.043 47.9302 643.221 47.9302 640.838C47.9302 638.469 48.3215 636.654 49.1041 635.393C49.8867 634.133 51.0187 633.502 52.5 633.502ZM49.4185 640.838C49.4185 642.529 49.5723 643.852 49.8797 644.808L54.5334 635.601C54.0442 634.95 53.3664 634.624 52.5 634.624C51.5357 634.624 50.7811 635.137 50.2361 636.162C49.691 637.174 49.4185 638.732 49.4185 640.838ZM52.5 647.052C53.4782 647.052 54.2399 646.546 54.7849 645.535C55.3299 644.51 55.6024 642.944 55.6024 640.838C55.6024 639.051 55.4277 637.665 55.0784 636.682L50.4247 645.971C50.9278 646.692 51.6196 647.052 52.5 647.052Z" fill="url(#paint33_linear_175_1868)" fill-opacity="0.6"/>
<path d="M53.7577 670.637H56.8392V671.738H48.8525V670.637H52.4162V658.957L49.0202 660.973L48.4333 660.038L52.6258 657.461H53.7577V670.637Z" fill="url(#paint34_linear_175_1868)" fill-opacity="0.6"/>
<path d="M53.7577 694.388H56.8392V695.489H48.8525V694.388H52.4162V682.708L49.0202 684.724L48.4333 683.789L52.6258 681.212H53.7577V694.388Z" fill="url(#paint35_linear_175_1868)" fill-opacity="0.6"/>
<path d="M52.5 704.755C53.9953 704.755 55.1273 705.386 55.8959 706.646C56.6785 707.893 57.0698 709.708 57.0698 712.091C57.0698 714.474 56.6785 716.296 55.8959 717.557C55.1273 718.818 53.9953 719.448 52.5 719.448C51.0187 719.448 49.8867 718.818 49.1041 717.557C48.3215 716.296 47.9302 714.474 47.9302 712.091C47.9302 709.722 48.3215 707.907 49.1041 706.646C49.8867 705.386 51.0187 704.755 52.5 704.755ZM49.4185 712.091C49.4185 713.782 49.5723 715.105 49.8797 716.061L54.5334 706.854C54.0442 706.203 53.3664 705.878 52.5 705.878C51.5357 705.878 50.7811 706.39 50.2361 707.415C49.691 708.427 49.4185 709.985 49.4185 712.091ZM52.5 718.305C53.4782 718.305 54.2399 717.8 54.7849 716.788C55.3299 715.763 55.6024 714.197 55.6024 712.091C55.6024 710.304 55.4277 708.919 55.0784 707.935L50.4247 717.225C50.9278 717.945 51.6196 718.305 52.5 718.305Z" fill="url(#paint36_linear_175_1868)" fill-opacity="0.6"/>
<path d="M53.7577 741.89H56.8392V742.992H48.8525V741.89H52.4162V730.21L49.0202 732.226L48.4333 731.291L52.6258 728.714H53.7577V741.89Z" fill="url(#paint37_linear_175_1868)" fill-opacity="0.6"/>
<path d="M53.7577 765.641H56.8392V766.743H48.8525V765.641H52.4162V753.962L49.0202 755.977L48.4333 755.042L52.6258 752.465H53.7577V765.641Z" fill="url(#paint38_linear_175_1868)" fill-opacity="0.6"/>
<path d="M52.5 776.008C53.9953 776.008 55.1273 776.639 55.8959 777.9C56.6785 779.147 57.0698 780.962 57.0698 783.345C57.0698 785.728 56.6785 787.549 55.8959 788.81C55.1273 790.071 53.9953 790.701 52.5 790.701C51.0187 790.701 49.8867 790.071 49.1041 788.81C48.3215 787.549 47.9302 785.728 47.9302 783.345C47.9302 780.975 48.3215 779.16 49.1041 777.9C49.8867 776.639 51.0187 776.008 52.5 776.008ZM49.4185 783.345C49.4185 785.035 49.5723 786.358 49.8797 787.314L54.5334 778.107C54.0442 777.456 53.3664 777.131 52.5 777.131C51.5357 777.131 50.7811 777.643 50.2361 778.669C49.691 779.68 49.4185 781.239 49.4185 783.345ZM52.5 789.558C53.4782 789.558 54.2399 789.053 54.7849 788.041C55.3299 787.016 55.6024 785.451 55.6024 783.345C55.6024 781.557 55.4277 780.172 55.0784 779.188L50.4247 788.478C50.9278 789.198 51.6196 789.558 52.5 789.558Z" fill="url(#paint39_linear_175_1868)" fill-opacity="0.6"/>
<path d="M53.7577 813.143H56.8392V814.245H48.8525V813.143H52.4162V801.464L49.0202 803.48L48.4333 802.544L52.6258 799.967H53.7577V813.143Z" fill="url(#paint40_linear_175_1868)" fill-opacity="0.6"/>
<path d="M52.5 823.511C53.9953 823.511 55.1273 824.141 55.8959 825.402C56.6785 826.649 57.0698 828.464 57.0698 830.847C57.0698 833.23 56.6785 835.052 55.8959 836.312C55.1273 837.573 53.9953 838.204 52.5 838.204C51.0187 838.204 49.8867 837.573 49.1041 836.312C48.3215 835.052 47.9302 833.23 47.9302 830.847C47.9302 828.478 48.3215 826.663 49.1041 825.402C49.8867 824.141 51.0187 823.511 52.5 823.511ZM49.4185 830.847C49.4185 832.537 49.5723 833.86 49.8797 834.816L54.5334 825.61C54.0442 824.958 53.3664 824.633 52.5 824.633C51.5357 824.633 50.7811 825.145 50.2361 826.171C49.691 827.182 49.4185 828.741 49.4185 830.847ZM52.5 837.061C53.4782 837.061 54.2399 836.555 54.7849 835.543C55.3299 834.518 55.6024 832.953 55.6024 830.847C55.6024 829.059 55.4277 827.674 55.0784 826.69L50.4247 835.98C50.9278 836.7 51.6196 837.061 52.5 837.061Z" fill="url(#paint41_linear_175_1868)" fill-opacity="0.6"/>
<path d="M91.4302 609.751C92.9255 609.751 94.0575 610.381 94.8261 611.642C95.6087 612.889 96 614.704 96 617.087C96 619.47 95.6087 621.292 94.8261 622.553C94.0575 623.814 92.9255 624.444 91.4302 624.444C89.9489 624.444 88.8169 623.814 88.0343 622.553C87.2517 621.292 86.8604 619.47 86.8604 617.087C86.8604 614.718 87.2517 612.903 88.0343 611.642C88.8169 610.381 89.9489 609.751 91.4302 609.751ZM88.3487 617.087C88.3487 618.777 88.5024 620.101 88.8099 621.057L93.4636 611.85C92.9744 611.199 92.2966 610.873 91.4302 610.873C90.4659 610.873 89.7113 611.386 89.1663 612.411C88.6212 613.423 88.3487 614.981 88.3487 617.087ZM91.4302 623.301C92.4084 623.301 93.1701 622.795 93.7151 621.784C94.2601 620.759 94.5326 619.193 94.5326 617.087C94.5326 615.3 94.3579 613.914 94.0086 612.931L89.3549 622.22C89.858 622.941 90.5498 623.301 91.4302 623.301Z" fill="url(#paint42_linear_175_1868)" fill-opacity="0.6"/>
<path d="M92.6879 646.886H95.7694V647.987H87.7827V646.886H91.3463V635.206L87.9504 637.222L87.3635 636.287L91.556 633.71H92.6879V646.886Z" fill="url(#paint43_linear_175_1868)" fill-opacity="0.6"/>
<path d="M92.6879 670.637H95.7694V671.738H87.7827V670.637H91.3463V658.957L87.9504 660.973L87.3635 660.038L91.556 657.461H92.6879V670.637Z" fill="url(#paint44_linear_175_1868)" fill-opacity="0.6"/>
<path d="M91.4302 681.004C92.9255 681.004 94.0575 681.635 94.8261 682.895C95.6087 684.142 96 685.957 96 688.34C96 690.723 95.6087 692.545 94.8261 693.806C94.0575 695.067 92.9255 695.697 91.4302 695.697C89.9489 695.697 88.8169 695.067 88.0343 693.806C87.2517 692.545 86.8604 690.723 86.8604 688.34C86.8604 685.971 87.2517 684.156 88.0343 682.895C88.8169 681.635 89.9489 681.004 91.4302 681.004ZM88.3487 688.34C88.3487 690.031 88.5024 691.354 88.8099 692.31L93.4636 683.103C92.9744 682.452 92.2966 682.126 91.4302 682.126C90.4659 682.126 89.7113 682.639 89.1663 683.664C88.6212 684.676 88.3487 686.234 88.3487 688.34ZM91.4302 694.554C92.4084 694.554 93.1701 694.049 93.7151 693.037C94.2601 692.012 94.5326 690.446 94.5326 688.34C94.5326 686.553 94.3579 685.168 94.0086 684.184L89.3549 693.474C89.858 694.194 90.5498 694.554 91.4302 694.554Z" fill="url(#paint45_linear_175_1868)" fill-opacity="0.6"/>
<path d="M91.4302 704.755C92.9255 704.755 94.0575 705.386 94.8261 706.646C95.6087 707.893 96 709.708 96 712.091C96 714.474 95.6087 716.296 94.8261 717.557C94.0575 718.818 92.9255 719.448 91.4302 719.448C89.9489 719.448 88.8169 718.818 88.0343 717.557C87.2517 716.296 86.8604 714.474 86.8604 712.091C86.8604 709.722 87.2517 707.907 88.0343 706.646C88.8169 705.386 89.9489 704.755 91.4302 704.755ZM88.3487 712.091C88.3487 713.782 88.5024 715.105 88.8099 716.061L93.4636 706.854C92.9744 706.203 92.2966 705.878 91.4302 705.878C90.4659 705.878 89.7113 706.39 89.1663 707.415C88.6212 708.427 88.3487 709.985 88.3487 712.091ZM91.4302 718.305C92.4084 718.305 93.1701 717.8 93.7151 716.788C94.2601 715.763 94.5326 714.197 94.5326 712.091C94.5326 710.304 94.3579 708.919 94.0086 707.935L89.3549 717.225C89.858 717.945 90.5498 718.305 91.4302 718.305Z" fill="url(#paint46_linear_175_1868)" fill-opacity="0.6"/>
<g opacity="0.6">
<path d="M919.93 286C921.356 286 922.436 286.605 923.17 287.815C923.916 289.011 924.29 290.753 924.29 293.04C924.29 295.327 923.916 297.075 923.17 298.285C922.436 299.495 921.356 300.1 919.93 300.1C918.517 300.1 917.437 299.495 916.69 298.285C915.943 297.075 915.57 295.327 915.57 293.04C915.57 290.767 915.943 289.025 916.69 287.815C917.437 286.605 918.517 286 919.93 286ZM916.99 293.04C916.99 294.662 917.137 295.932 917.43 296.849L921.87 288.014C921.403 287.389 920.756 287.077 919.93 287.077C919.01 287.077 918.29 287.569 917.77 288.553C917.25 289.523 916.99 291.019 916.99 293.04ZM919.93 299.003C920.863 299.003 921.59 298.518 922.11 297.547C922.63 296.564 922.89 295.061 922.89 293.04C922.89 291.325 922.723 289.995 922.39 289.051L917.95 297.966C918.43 298.658 919.09 299.003 919.93 299.003Z" fill="url(#paint47_linear_175_1868)"/>
<path d="M921.13 321.637H924.07V322.694H916.45V321.637H919.85V310.428L916.61 312.363L916.05 311.465L920.05 308.992H921.13V321.637Z" fill="url(#paint48_linear_175_1868)"/>
<path d="M919.93 331.586C921.356 331.586 922.436 332.191 923.17 333.4C923.916 334.597 924.29 336.339 924.29 338.626C924.29 340.913 923.916 342.661 923.17 343.871C922.436 345.081 921.356 345.686 919.93 345.686C918.517 345.686 917.437 345.081 916.69 343.871C915.943 342.661 915.57 340.913 915.57 338.626C915.57 336.352 915.943 334.61 916.69 333.4C917.437 332.191 918.517 331.586 919.93 331.586ZM916.99 338.626C916.99 340.248 917.137 341.518 917.43 342.435L921.87 333.6C921.403 332.975 920.756 332.663 919.93 332.663C919.01 332.663 918.29 333.155 917.77 334.138C917.25 335.109 916.99 336.605 916.99 338.626ZM919.93 344.589C920.863 344.589 921.59 344.104 922.11 343.133C922.63 342.149 922.89 340.647 922.89 338.626C922.89 336.911 922.723 335.581 922.39 334.637L917.95 343.552C918.43 344.243 919.09 344.589 919.93 344.589Z" fill="url(#paint49_linear_175_1868)"/>
<path d="M921.13 367.222H924.07V368.279H916.45V367.222H919.85V356.014L916.61 357.948L916.05 357.051L920.05 354.578H921.13V367.222Z" fill="url(#paint50_linear_175_1868)"/>
<path d="M921.13 390.015H924.07V391.072H916.45V390.015H919.85V378.807L916.61 380.741L916.05 379.844L920.05 377.371H921.13V390.015Z" fill="url(#paint51_linear_175_1868)"/>
<path d="M919.93 399.964C921.356 399.964 922.436 400.569 923.17 401.779C923.916 402.976 924.29 404.717 924.29 407.004C924.29 409.291 923.916 411.039 923.17 412.249C922.436 413.459 921.356 414.064 919.93 414.064C918.517 414.064 917.437 413.459 916.69 412.249C915.943 411.039 915.57 409.291 915.57 407.004C915.57 404.731 915.943 402.989 916.69 401.779C917.437 400.569 918.517 399.964 919.93 399.964ZM916.99 407.004C916.99 408.626 917.137 409.896 917.43 410.813L921.87 401.978C921.403 401.353 920.756 401.041 919.93 401.041C919.01 401.041 918.29 401.533 917.77 402.517C917.25 403.487 916.99 404.983 916.99 407.004ZM919.93 412.967C920.863 412.967 921.59 412.482 922.11 411.511C922.63 410.528 922.89 409.025 922.89 407.004C922.89 405.289 922.723 403.959 922.39 403.015L917.95 411.93C918.43 412.622 919.09 412.967 919.93 412.967Z" fill="url(#paint52_linear_175_1868)"/>
<path d="M921.13 435.601H924.07V436.658H916.45V435.601H919.85V424.392L916.61 426.327L916.05 425.429L920.05 422.956H921.13V435.601Z" fill="url(#paint53_linear_175_1868)"/>
<path d="M919.93 445.55C921.356 445.55 922.436 446.155 923.17 447.365C923.916 448.561 924.29 450.303 924.29 452.59C924.29 454.877 923.916 456.625 923.17 457.835C922.436 459.045 921.356 459.65 919.93 459.65C918.517 459.65 917.437 459.045 916.69 457.835C915.943 456.625 915.57 454.877 915.57 452.59C915.57 450.316 915.943 448.574 916.69 447.365C917.437 446.155 918.517 445.55 919.93 445.55ZM916.99 452.59C916.99 454.212 917.137 455.482 917.43 456.399L921.87 447.564C921.403 446.939 920.756 446.627 919.93 446.627C919.01 446.627 918.29 447.119 917.77 448.102C917.25 449.073 916.99 450.569 916.99 452.59ZM919.93 458.553C920.863 458.553 921.59 458.068 922.11 457.097C922.63 456.113 922.89 454.611 922.89 452.59C922.89 450.875 922.723 449.545 922.39 448.601L917.95 457.516C918.43 458.207 919.09 458.553 919.93 458.553Z" fill="url(#paint54_linear_175_1868)"/>
<path d="M919.93 468.342C921.356 468.342 922.436 468.947 923.17 470.157C923.916 471.354 924.29 473.096 924.29 475.383C924.29 477.669 923.916 479.418 923.17 480.628C922.436 481.838 921.356 482.443 919.93 482.443C918.517 482.443 917.437 481.838 916.69 480.628C915.943 479.418 915.57 477.669 915.57 475.383C915.57 473.109 915.943 471.367 916.69 470.157C917.437 468.947 918.517 468.342 919.93 468.342ZM916.99 475.383C916.99 477.005 917.137 478.274 917.43 479.192L921.87 470.357C921.403 469.732 920.756 469.419 919.93 469.419C919.01 469.419 918.29 469.911 917.77 470.895C917.25 471.866 916.99 473.362 916.99 475.383ZM919.93 481.346C920.863 481.346 921.59 480.86 922.11 479.89C922.63 478.906 922.89 477.404 922.89 475.383C922.89 473.667 922.723 472.338 922.39 471.394L917.95 480.309C918.43 481 919.09 481.346 919.93 481.346Z" fill="url(#paint55_linear_175_1868)"/>
<path d="M921.13 503.979H924.07V505.036H916.45V503.979H919.85V492.771L916.61 494.705L916.05 493.808L920.05 491.335H921.13V503.979Z" fill="url(#paint56_linear_175_1868)"/>
<path d="M919.93 513.928C921.356 513.928 922.436 514.533 923.17 515.743C923.916 516.94 924.29 518.681 924.29 520.968C924.29 523.255 923.916 525.003 923.17 526.213C922.436 527.423 921.356 528.028 919.93 528.028C918.517 528.028 917.437 527.423 916.69 526.213C915.943 525.003 915.57 523.255 915.57 520.968C915.57 518.695 915.943 516.953 916.69 515.743C917.437 514.533 918.517 513.928 919.93 513.928ZM916.99 520.968C916.99 522.59 917.137 523.86 917.43 524.777L921.87 515.942C921.403 515.317 920.756 515.005 919.93 515.005C919.01 515.005 918.29 515.497 917.77 516.481C917.25 517.451 916.99 518.947 916.99 520.968ZM919.93 526.931C920.863 526.931 921.59 526.446 922.11 525.475C922.63 524.492 922.89 522.989 922.89 520.968C922.89 519.253 922.723 517.923 922.39 516.979L917.95 525.894C918.43 526.586 919.09 526.931 919.93 526.931Z" fill="url(#paint57_linear_175_1868)"/>
<path d="M921.13 549.565H924.07V550.622H916.45V549.565H919.85V538.356L916.61 540.291L916.05 539.393L920.05 536.92H921.13V549.565Z" fill="url(#paint58_linear_175_1868)"/>
<path d="M921.13 572.357H924.07V573.414H916.45V572.357H919.85V561.149L916.61 563.084L916.05 562.186L920.05 559.713H921.13V572.357Z" fill="url(#paint59_linear_175_1868)"/>
<path d="M957.07 331.586C958.497 331.586 959.577 332.191 960.31 333.4C961.057 334.597 961.43 336.339 961.43 338.626C961.43 340.913 961.057 342.661 960.31 343.871C959.577 345.081 958.497 345.686 957.07 345.686C955.657 345.686 954.577 345.081 953.83 343.871C953.084 342.661 952.71 340.913 952.71 338.626C952.71 336.352 953.084 334.61 953.83 333.4C954.577 332.191 955.657 331.586 957.07 331.586ZM954.13 338.626C954.13 340.248 954.277 341.518 954.57 342.435L959.01 333.6C958.543 332.975 957.897 332.663 957.07 332.663C956.15 332.663 955.43 333.155 954.91 334.138C954.39 335.109 954.13 336.605 954.13 338.626ZM957.07 344.589C958.003 344.589 958.73 344.104 959.25 343.133C959.77 342.149 960.03 340.647 960.03 338.626C960.03 336.911 959.863 335.581 959.53 334.637L955.09 343.552C955.57 344.243 956.23 344.589 957.07 344.589Z" fill="url(#paint60_linear_175_1868)"/>
<path d="M958.27 367.222H961.21V368.279H953.59V367.222H956.99V356.014L953.75 357.948L953.19 357.051L957.19 354.578H958.27V367.222Z" fill="url(#paint61_linear_175_1868)"/>
<path d="M957.07 377.171C958.497 377.171 959.577 377.776 960.31 378.986C961.057 380.183 961.43 381.924 961.43 384.211C961.43 386.498 961.057 388.247 960.31 389.457C959.577 390.666 958.497 391.271 957.07 391.271C955.657 391.271 954.577 390.666 953.83 389.457C953.084 388.247 952.71 386.498 952.71 384.211C952.71 381.938 953.084 380.196 953.83 378.986C954.577 377.776 955.657 377.171 957.07 377.171ZM954.13 384.211C954.13 385.833 954.277 387.103 954.57 388.021L959.01 379.186C958.543 378.561 957.897 378.248 957.07 378.248C956.15 378.248 955.43 378.74 954.91 379.724C954.39 380.695 954.13 382.19 954.13 384.211ZM957.07 390.174C958.003 390.174 958.73 389.689 959.25 388.719C959.77 387.735 960.03 386.232 960.03 384.211C960.03 382.496 959.863 381.167 959.53 380.223L955.09 389.137C955.57 389.829 956.23 390.174 957.07 390.174Z" fill="url(#paint62_linear_175_1868)"/>
<path d="M957.07 399.964C958.497 399.964 959.577 400.569 960.31 401.779C961.057 402.976 961.43 404.717 961.43 407.004C961.43 409.291 961.057 411.039 960.31 412.249C959.577 413.459 958.497 414.064 957.07 414.064C955.657 414.064 954.577 413.459 953.83 412.249C953.084 411.039 952.71 409.291 952.71 407.004C952.71 404.731 953.084 402.989 953.83 401.779C954.577 400.569 955.657 399.964 957.07 399.964ZM954.13 407.004C954.13 408.626 954.277 409.896 954.57 410.813L959.01 401.978C958.543 401.353 957.897 401.041 957.07 401.041C956.15 401.041 955.43 401.533 954.91 402.517C954.39 403.487 954.13 404.983 954.13 407.004ZM957.07 412.967C958.003 412.967 958.73 412.482 959.25 411.511C959.77 410.528 960.03 409.025 960.03 407.004C960.03 405.289 959.863 403.959 959.53 403.015L955.09 411.93C955.57 412.622 956.23 412.967 957.07 412.967Z" fill="url(#paint63_linear_175_1868)"/>
<path d="M958.27 435.601H961.21V436.658H953.59V435.601H956.99V424.392L953.75 426.327L953.19 425.429L957.19 422.956H958.27V435.601Z" fill="url(#paint64_linear_175_1868)"/>
<path d="M957.07 445.55C958.497 445.55 959.577 446.155 960.31 447.365C961.057 448.561 961.43 450.303 961.43 452.59C961.43 454.877 961.057 456.625 960.31 457.835C959.577 459.045 958.497 459.65 957.07 459.65C955.657 459.65 954.577 459.045 953.83 457.835C953.084 456.625 952.71 454.877 952.71 452.59C952.71 450.316 953.084 448.574 953.83 447.365C954.577 446.155 955.657 445.55 957.07 445.55ZM954.13 452.59C954.13 454.212 954.277 455.482 954.57 456.399L959.01 447.564C958.543 446.939 957.897 446.627 957.07 446.627C956.15 446.627 955.43 447.119 954.91 448.102C954.39 449.073 954.13 450.569 954.13 452.59ZM957.07 458.553C958.003 458.553 958.73 458.068 959.25 457.097C959.77 456.113 960.03 454.611 960.03 452.59C960.03 450.875 959.863 449.545 959.53 448.601L955.09 457.516C955.57 458.207 956.23 458.553 957.07 458.553Z" fill="url(#paint65_linear_175_1868)"/>
<path d="M958.27 481.186H961.21V482.243H953.59V481.186H956.99V469.978L953.75 471.912L953.19 471.015L957.19 468.542H958.27V481.186Z" fill="url(#paint66_linear_175_1868)"/>
<path d="M957.07 491.135C958.497 491.135 959.577 491.74 960.31 492.95C961.057 494.147 961.43 495.888 961.43 498.175C961.43 500.462 961.057 502.211 960.31 503.421C959.577 504.63 958.497 505.235 957.07 505.235C955.657 505.235 954.577 504.63 953.83 503.421C953.084 502.211 952.71 500.462 952.71 498.175C952.71 495.902 953.084 494.16 953.83 492.95C954.577 491.74 955.657 491.135 957.07 491.135ZM954.13 498.175C954.13 499.797 954.277 501.067 954.57 501.985L959.01 493.15C958.543 492.525 957.897 492.212 957.07 492.212C956.15 492.212 955.43 492.704 954.91 493.688C954.39 494.659 954.13 496.154 954.13 498.175ZM957.07 504.139C958.003 504.139 958.73 503.653 959.25 502.683C959.77 501.699 960.03 500.196 960.03 498.175C960.03 496.46 959.863 495.131 959.53 494.187L955.09 503.101C955.57 503.793 956.23 504.139 957.07 504.139Z" fill="url(#paint67_linear_175_1868)"/>
<path d="M957.07 513.928C958.497 513.928 959.577 514.533 960.31 515.743C961.057 516.94 961.43 518.681 961.43 520.968C961.43 523.255 961.057 525.003 960.31 526.213C959.577 527.423 958.497 528.028 957.07 528.028C955.657 528.028 954.577 527.423 953.83 526.213C953.084 525.003 952.71 523.255 952.71 520.968C952.71 518.695 953.084 516.953 953.83 515.743C954.577 514.533 955.657 513.928 957.07 513.928ZM954.13 520.968C954.13 522.59 954.277 523.86 954.57 524.777L959.01 515.942C958.543 515.317 957.897 515.005 957.07 515.005C956.15 515.005 955.43 515.497 954.91 516.481C954.39 517.451 954.13 518.947 954.13 520.968ZM957.07 526.931C958.003 526.931 958.73 526.446 959.25 525.475C959.77 524.492 960.03 522.989 960.03 520.968C960.03 519.253 959.863 517.923 959.53 516.979L955.09 525.894C955.57 526.586 956.23 526.931 957.07 526.931Z" fill="url(#paint68_linear_175_1868)"/>
<path d="M958.27 549.565H961.21V550.622H953.59V549.565H956.99V538.356L953.75 540.291L953.19 539.393L957.19 536.92H958.27V549.565Z" fill="url(#paint69_linear_175_1868)"/>
<path d="M957.07 559.514C958.497 559.514 959.577 560.119 960.31 561.329C961.057 562.525 961.43 564.267 961.43 566.554C961.43 568.841 961.057 570.589 960.31 571.799C959.577 573.009 958.497 573.614 957.07 573.614C955.657 573.614 954.577 573.009 953.83 571.799C953.084 570.589 952.71 568.841 952.71 566.554C952.71 564.28 953.084 562.538 953.83 561.329C954.577 560.119 955.657 559.514 957.07 559.514ZM954.13 566.554C954.13 568.176 954.277 569.446 954.57 570.363L959.01 561.528C958.543 560.903 957.897 560.591 957.07 560.591C956.15 560.591 955.43 561.083 954.91 562.066C954.39 563.037 954.13 564.533 954.13 566.554ZM957.07 572.517C958.003 572.517 958.73 572.032 959.25 571.061C959.77 570.077 960.03 568.575 960.03 566.554C960.03 564.839 959.863 563.509 959.53 562.565L955.09 571.48C955.57 572.171 956.23 572.517 957.07 572.517Z" fill="url(#paint70_linear_175_1868)"/>
<path d="M958.27 595.15H961.21V596.207H953.59V595.15H956.99V583.942L953.75 585.876L953.19 584.979L957.19 582.506H958.27V595.15Z" fill="url(#paint71_linear_175_1868)"/>
<path d="M958.27 617.943H961.21V619H953.59V617.943H956.99V606.735L953.75 608.669L953.19 607.772L957.19 605.299H958.27V617.943Z" fill="url(#paint72_linear_175_1868)"/>
<path d="M901.36 354.378C902.786 354.378 903.866 354.983 904.599 356.193C905.346 357.39 905.719 359.132 905.719 361.419C905.719 363.705 905.346 365.454 904.599 366.664C903.866 367.874 902.786 368.479 901.36 368.479C899.946 368.479 898.867 367.874 898.12 366.664C897.373 365.454 897 363.705 897 361.419C897 359.145 897.373 357.403 898.12 356.193C898.867 354.983 899.946 354.378 901.36 354.378ZM898.42 361.419C898.42 363.041 898.567 364.31 898.86 365.228L903.3 356.393C902.833 355.768 902.186 355.455 901.36 355.455C900.44 355.455 899.72 355.947 899.2 356.931C898.68 357.902 898.42 359.398 898.42 361.419ZM901.36 367.382C902.293 367.382 903.02 366.896 903.54 365.926C904.06 364.942 904.319 363.44 904.319 361.419C904.319 359.703 904.153 358.374 903.82 357.43L899.38 366.345C899.86 367.036 900.52 367.382 901.36 367.382Z" fill="url(#paint73_linear_175_1868)"/>
<path d="M901.36 377.171C902.786 377.171 903.866 377.776 904.599 378.986C905.346 380.183 905.719 381.924 905.719 384.211C905.719 386.498 905.346 388.247 904.599 389.457C903.866 390.666 902.786 391.271 901.36 391.271C899.946 391.271 898.867 390.666 898.12 389.457C897.373 388.247 897 386.498 897 384.211C897 381.938 897.373 380.196 898.12 378.986C898.867 377.776 899.946 377.171 901.36 377.171ZM898.42 384.211C898.42 385.833 898.567 387.103 898.86 388.021L903.3 379.186C902.833 378.561 902.186 378.248 901.36 378.248C900.44 378.248 899.72 378.74 899.2 379.724C898.68 380.695 898.42 382.19 898.42 384.211ZM901.36 390.174C902.293 390.174 903.02 389.689 903.54 388.719C904.06 387.735 904.319 386.232 904.319 384.211C904.319 382.496 904.153 381.167 903.82 380.223L899.38 389.137C899.86 389.829 900.52 390.174 901.36 390.174Z" fill="url(#paint74_linear_175_1868)"/>
<path d="M902.56 412.808H905.499V413.865H897.88V412.808H901.28V401.599L898.04 403.534L897.48 402.636L901.48 400.163H902.56V412.808Z" fill="url(#paint75_linear_175_1868)"/>
<path d="M901.36 422.757C902.786 422.757 903.866 423.362 904.599 424.572C905.346 425.768 905.719 427.51 905.719 429.797C905.719 432.084 905.346 433.832 904.599 435.042C903.866 436.252 902.786 436.857 901.36 436.857C899.946 436.857 898.867 436.252 898.12 435.042C897.373 433.832 897 432.084 897 429.797C897 427.523 897.373 425.782 898.12 424.572C898.867 423.362 899.946 422.757 901.36 422.757ZM898.42 429.797C898.42 431.419 898.567 432.689 898.86 433.606L903.3 424.771C902.833 424.146 902.186 423.834 901.36 423.834C900.44 423.834 899.72 424.326 899.2 425.31C898.68 426.28 898.42 427.776 898.42 429.797ZM901.36 435.76C902.293 435.76 903.02 435.275 903.54 434.304C904.06 433.32 904.319 431.818 904.319 429.797C904.319 428.082 904.153 426.752 903.82 425.808L899.38 434.723C899.86 435.414 900.52 435.76 901.36 435.76Z" fill="url(#paint76_linear_175_1868)"/>
<path d="M902.56 458.393H905.499V459.45H897.88V458.393H901.28V447.185L898.04 449.12L897.48 448.222L901.48 445.749H902.56V458.393Z" fill="url(#paint77_linear_175_1868)"/>
<path d="M902.56 481.186H905.499V482.243H897.88V481.186H901.28V469.978L898.04 471.912L897.48 471.015L901.48 468.542H902.56V481.186Z" fill="url(#paint78_linear_175_1868)"/>
<path d="M939.7 321.637H942.64V322.694H935.02V321.637H938.42V310.428L935.18 312.363L934.62 311.465L938.62 308.992H939.7V321.637Z" fill="url(#paint79_linear_175_1868)"/>
<path d="M938.5 331.586C939.927 331.586 941.006 332.191 941.74 333.4C942.486 334.597 942.86 336.339 942.86 338.626C942.86 340.913 942.486 342.661 941.74 343.871C941.006 345.081 939.927 345.686 938.5 345.686C937.087 345.686 936.007 345.081 935.26 343.871C934.514 342.661 934.14 340.913 934.14 338.626C934.14 336.352 934.514 334.61 935.26 333.4C936.007 332.191 937.087 331.586 938.5 331.586ZM935.56 338.626C935.56 340.248 935.707 341.518 936 342.435L940.44 333.6C939.973 332.975 939.327 332.663 938.5 332.663C937.58 332.663 936.86 333.155 936.34 334.138C935.82 335.109 935.56 336.605 935.56 338.626ZM938.5 344.589C939.433 344.589 940.16 344.104 940.68 343.133C941.2 342.149 941.46 340.647 941.46 338.626C941.46 336.911 941.293 335.581 940.96 334.637L936.52 343.552C937 344.243 937.66 344.589 938.5 344.589Z" fill="url(#paint80_linear_175_1868)"/>
<path d="M939.7 367.222H942.64V368.279H935.02V367.222H938.42V356.014L935.18 357.948L934.62 357.051L938.62 354.578H939.7V367.222Z" fill="url(#paint81_linear_175_1868)"/>
<path d="M939.7 390.015H942.64V391.072H935.02V390.015H938.42V378.807L935.18 380.741L934.62 379.844L938.62 377.371H939.7V390.015Z" fill="url(#paint82_linear_175_1868)"/>
<path d="M938.5 399.964C939.927 399.964 941.006 400.569 941.74 401.779C942.486 402.976 942.86 404.717 942.86 407.004C942.86 409.291 942.486 411.039 941.74 412.249C941.006 413.459 939.927 414.064 938.5 414.064C937.087 414.064 936.007 413.459 935.26 412.249C934.514 411.039 934.14 409.291 934.14 407.004C934.14 404.731 934.514 402.989 935.26 401.779C936.007 400.569 937.087 399.964 938.5 399.964ZM935.56 407.004C935.56 408.626 935.707 409.896 936 410.813L940.44 401.978C939.973 401.353 939.327 401.041 938.5 401.041C937.58 401.041 936.86 401.533 936.34 402.517C935.82 403.487 935.56 404.983 935.56 407.004ZM938.5 412.967C939.433 412.967 940.16 412.482 940.68 411.511C941.2 410.528 941.46 409.025 941.46 407.004C941.46 405.289 941.293 403.959 940.96 403.015L936.52 411.93C937 412.622 937.66 412.967 938.5 412.967Z" fill="url(#paint83_linear_175_1868)"/>
<path d="M939.7 435.601H942.64V436.658H935.02V435.601H938.42V424.392L935.18 426.327L934.62 425.429L938.62 422.956H939.7V435.601Z" fill="url(#paint84_linear_175_1868)"/>
<path d="M939.7 458.393H942.64V459.45H935.02V458.393H938.42V447.185L935.18 449.12L934.62 448.222L938.62 445.749H939.7V458.393Z" fill="url(#paint85_linear_175_1868)"/>
<path d="M938.5 468.342C939.927 468.342 941.006 468.947 941.74 470.157C942.486 471.354 942.86 473.096 942.86 475.383C942.86 477.669 942.486 479.418 941.74 480.628C941.006 481.838 939.927 482.443 938.5 482.443C937.087 482.443 936.007 481.838 935.26 480.628C934.514 479.418 934.14 477.669 934.14 475.383C934.14 473.109 934.514 471.367 935.26 470.157C936.007 468.947 937.087 468.342 938.5 468.342ZM935.56 475.383C935.56 477.005 935.707 478.274 936 479.192L940.44 470.357C939.973 469.732 939.327 469.419 938.5 469.419C937.58 469.419 936.86 469.911 936.34 470.895C935.82 471.866 935.56 473.362 935.56 475.383ZM938.5 481.346C939.433 481.346 940.16 480.86 940.68 479.89C941.2 478.906 941.46 477.404 941.46 475.383C941.46 473.667 941.293 472.338 940.96 471.394L936.52 480.309C937 481 937.66 481.346 938.5 481.346Z" fill="url(#paint86_linear_175_1868)"/>
<path d="M939.7 503.979H942.64V505.036H935.02V503.979H938.42V492.771L935.18 494.705L934.62 493.808L938.62 491.335H939.7V503.979Z" fill="url(#paint87_linear_175_1868)"/>
<path d="M938.5 513.928C939.927 513.928 941.006 514.533 941.74 515.743C942.486 516.94 942.86 518.681 942.86 520.968C942.86 523.255 942.486 525.003 941.74 526.213C941.006 527.423 939.927 528.028 938.5 528.028C937.087 528.028 936.007 527.423 935.26 526.213C934.514 525.003 934.14 523.255 934.14 520.968C934.14 518.695 934.514 516.953 935.26 515.743C936.007 514.533 937.087 513.928 938.5 513.928ZM935.56 520.968C935.56 522.59 935.707 523.86 936 524.777L940.44 515.942C939.973 515.317 939.327 515.005 938.5 515.005C937.58 515.005 936.86 515.497 936.34 516.481C935.82 517.451 935.56 518.947 935.56 520.968ZM938.5 526.931C939.433 526.931 940.16 526.446 940.68 525.475C941.2 524.492 941.46 522.989 941.46 520.968C941.46 519.253 941.293 517.923 940.96 516.979L936.52 525.894C937 526.586 937.66 526.931 938.5 526.931Z" fill="url(#paint88_linear_175_1868)"/>
<path d="M975.64 308.793C977.067 308.793 978.147 309.398 978.88 310.608C979.627 311.804 980 313.546 980 315.833C980 318.12 979.627 319.868 978.88 321.078C978.147 322.288 977.067 322.893 975.64 322.893C974.227 322.893 973.147 322.288 972.401 321.078C971.654 319.868 971.281 318.12 971.281 315.833C971.281 313.559 971.654 311.818 972.401 310.608C973.147 309.398 974.227 308.793 975.64 308.793ZM972.7 315.833C972.7 317.455 972.847 318.725 973.14 319.642L977.58 310.807C977.114 310.182 976.467 309.87 975.64 309.87C974.72 309.87 974 310.362 973.48 311.346C972.96 312.316 972.7 313.812 972.7 315.833ZM975.64 321.796C976.574 321.796 977.3 321.311 977.82 320.34C978.34 319.356 978.6 317.854 978.6 315.833C978.6 314.118 978.433 312.788 978.1 311.844L973.66 320.759C974.14 321.45 974.8 321.796 975.64 321.796Z" fill="url(#paint89_linear_175_1868)"/>
<path d="M976.84 344.429H979.78V345.486H972.161V344.429H975.56V333.221L972.321 335.156L971.761 334.258L975.76 331.785H976.84V344.429Z" fill="url(#paint90_linear_175_1868)"/>
<path d="M976.84 367.222H979.78V368.279H972.161V367.222H975.56V356.014L972.321 357.948L971.761 357.051L975.76 354.578H976.84V367.222Z" fill="url(#paint91_linear_175_1868)"/>
<path d="M975.64 377.171C977.067 377.171 978.147 377.776 978.88 378.986C979.627 380.183 980 381.924 980 384.211C980 386.498 979.627 388.247 978.88 389.457C978.147 390.666 977.067 391.271 975.64 391.271C974.227 391.271 973.147 390.666 972.401 389.457C971.654 388.247 971.281 386.498 971.281 384.211C971.281 381.938 971.654 380.196 972.401 378.986C973.147 377.776 974.227 377.171 975.64 377.171ZM972.7 384.211C972.7 385.833 972.847 387.103 973.14 388.021L977.58 379.186C977.114 378.561 976.467 378.248 975.64 378.248C974.72 378.248 974 378.74 973.48 379.724C972.96 380.695 972.7 382.19 972.7 384.211ZM975.64 390.174C976.574 390.174 977.3 389.689 977.82 388.719C978.34 387.735 978.6 386.232 978.6 384.211C978.6 382.496 978.433 381.167 978.1 380.223L973.66 389.137C974.14 389.829 974.8 390.174 975.64 390.174Z" fill="url(#paint92_linear_175_1868)"/>
<path d="M975.64 399.964C977.067 399.964 978.147 400.569 978.88 401.779C979.627 402.976 980 404.717 980 407.004C980 409.291 979.627 411.039 978.88 412.249C978.147 413.459 977.067 414.064 975.64 414.064C974.227 414.064 973.147 413.459 972.401 412.249C971.654 411.039 971.281 409.291 971.281 407.004C971.281 404.731 971.654 402.989 972.401 401.779C973.147 400.569 974.227 399.964 975.64 399.964ZM972.7 407.004C972.7 408.626 972.847 409.896 973.14 410.813L977.58 401.978C977.114 401.353 976.467 401.041 975.64 401.041C974.72 401.041 974 401.533 973.48 402.517C972.96 403.487 972.7 404.983 972.7 407.004ZM975.64 412.967C976.574 412.967 977.3 412.482 977.82 411.511C978.34 410.528 978.6 409.025 978.6 407.004C978.6 405.289 978.433 403.959 978.1 403.015L973.66 411.93C974.14 412.622 974.8 412.967 975.64 412.967Z" fill="url(#paint93_linear_175_1868)"/>
</g>
<defs>
<filter id="filter0_f_175_1868" x="-558.19" y="-400.19" width="2141.38" height="1500.38" filterUnits="userSpaceOnUse" color-interpolation-filters="sRGB">
<feFlood flood-opacity="0" result="BackgroundImageFix"/>
<feBlend mode="normal" in="SourceGraphic" in2="BackgroundImageFix" result="shape"/>
<feGaussianBlur stdDeviation="200.095" result="effect1_foregroundBlur_175_1868"/>
</filter>
<linearGradient id="paint0_linear_175_1868" x1="52.5" y1="586" x2="52.5" y2="897.381" gradientUnits="userSpaceOnUse">
<stop stop-color="#F7DD43"/>
<stop offset="1" stop-color="#F7DD43" stop-opacity="0"/>
</linearGradient>
<linearGradient id="paint1_linear_175_1868" x1="52.5" y1="586" x2="52.5" y2="897.381" gradientUnits="userSpaceOnUse">
<stop stop-color="#F7DD43"/>
<stop offset="1" stop-color="#F7DD43" stop-opacity="0"/>
</linearGradient>
<linearGradient id="paint2_linear_175_1868" x1="52.5" y1="586" x2="52.5" y2="897.381" gradientUnits="userSpaceOnUse">
<stop stop-color="#F7DD43"/>
<stop offset="1" stop-color="#F7DD43" stop-opacity="0"/>
</linearGradient>
<linearGradient id="paint3_linear_175_1868" x1="52.5" y1="586" x2="52.5" y2="897.381" gradientUnits="userSpaceOnUse">
<stop stop-color="#F7DD43"/>
<stop offset="1" stop-color="#F7DD43" stop-opacity="0"/>
</linearGradient>
<linearGradient id="paint4_linear_175_1868" x1="52.5" y1="586" x2="52.5" y2="897.381" gradientUnits="userSpaceOnUse">
<stop stop-color="#F7DD43"/>
<stop offset="1" stop-color="#F7DD43" stop-opacity="0"/>
</linearGradient>
<linearGradient id="paint5_linear_175_1868" x1="52.5" y1="586" x2="52.5" y2="897.381" gradientUnits="userSpaceOnUse">
<stop stop-color="#F7DD43"/>
<stop offset="1" stop-color="#F7DD43" stop-opacity="0"/>
</linearGradient>
<linearGradient id="paint6_linear_175_1868" x1="52.5" y1="586" x2="52.5" y2="897.381" gradientUnits="userSpaceOnUse">
<stop stop-color="#F7DD43"/>
<stop offset="1" stop-color="#F7DD43" stop-opacity="0"/>
</linearGradient>
<linearGradient id="paint7_linear_175_1868" x1="52.5" y1="586" x2="52.5" y2="897.381" gradientUnits="userSpaceOnUse">
<stop stop-color="#F7DD43"/>
<stop offset="1" stop-color="#F7DD43" stop-opacity="0"/>
</linearGradient>
<linearGradient id="paint8_linear_175_1868" x1="52.5" y1="586" x2="52.5" y2="897.381" gradientUnits="userSpaceOnUse">
<stop stop-color="#F7DD43"/>
<stop offset="1" stop-color="#F7DD43" stop-opacity="0"/>
</linearGradient>
<linearGradient id="paint9_linear_175_1868" x1="52.5" y1="586" x2="52.5" y2="897.381" gradientUnits="userSpaceOnUse">
<stop stop-color="#F7DD43"/>
<stop offset="1" stop-color="#F7DD43" stop-opacity="0"/>
</linearGradient>
<linearGradient id="paint10_linear_175_1868" x1="52.5" y1="586" x2="52.5" y2="897.381" gradientUnits="userSpaceOnUse">
<stop stop-color="#F7DD43"/>
<stop offset="1" stop-color="#F7DD43" stop-opacity="0"/>
</linearGradient>
<linearGradient id="paint11_linear_175_1868" x1="52.5" y1="586" x2="52.5" y2="897.381" gradientUnits="userSpaceOnUse">
<stop stop-color="#F7DD43"/>
<stop offset="1" stop-color="#F7DD43" stop-opacity="0"/>
</linearGradient>
<linearGradient id="paint12_linear_175_1868" x1="52.5" y1="586" x2="52.5" y2="897.381" gradientUnits="userSpaceOnUse">
<stop stop-color="#F7DD43"/>
<stop offset="1" stop-color="#F7DD43" stop-opacity="0"/>
</linearGradient>
<linearGradient id="paint13_linear_175_1868" x1="52.5" y1="586" x2="52.5" y2="897.381" gradientUnits="userSpaceOnUse">
<stop stop-color="#F7DD43"/>
<stop offset="1" stop-color="#F7DD43" stop-opacity="0"/>
</linearGradient>
<linearGradient id="paint14_linear_175_1868" x1="52.5" y1="586" x2="52.5" y2="897.381" gradientUnits="userSpaceOnUse">
<stop stop-color="#F7DD43"/>
<stop offset="1" stop-color="#F7DD43" stop-opacity="0"/>
</linearGradient>
<linearGradient id="paint15_linear_175_1868" x1="52.5" y1="586" x2="52.5" y2="897.381" gradientUnits="userSpaceOnUse">
<stop stop-color="#F7DD43"/>
<stop offset="1" stop-color="#F7DD43" stop-opacity="0"/>
</linearGradient>
<linearGradient id="paint16_linear_175_1868" x1="52.5" y1="586" x2="52.5" y2="897.381" gradientUnits="userSpaceOnUse">
<stop stop-color="#F7DD43"/>
<stop offset="1" stop-color="#F7DD43" stop-opacity="0"/>
</linearGradient>
<linearGradient id="paint17_linear_175_1868" x1="52.5" y1="586" x2="52.5" y2="897.381" gradientUnits="userSpaceOnUse">
<stop stop-color="#F7DD43"/>
<stop offset="1" stop-color="#F7DD43" stop-opacity="0"/>
</linearGradient>
<linearGradient id="paint18_linear_175_1868" x1="52.5" y1="586" x2="52.5" y2="897.381" gradientUnits="userSpaceOnUse">
<stop stop-color="#F7DD43"/>
<stop offset="1" stop-color="#F7DD43" stop-opacity="0"/>
</linearGradient>
<linearGradient id="paint19_linear_175_1868" x1="52.5" y1="586" x2="52.5" y2="897.381" gradientUnits="userSpaceOnUse">
<stop stop-color="#F7DD43"/>
<stop offset="1" stop-color="#F7DD43" stop-opacity="0"/>
</linearGradient>
<linearGradient id="paint20_linear_175_1868" x1="52.5" y1="586" x2="52.5" y2="897.381" gradientUnits="userSpaceOnUse">
<stop stop-color="#F7DD43"/>
<stop offset="1" stop-color="#F7DD43" stop-opacity="0"/>
</linearGradient>
<linearGradient id="paint21_linear_175_1868" x1="52.5" y1="586" x2="52.5" y2="897.381" gradientUnits="userSpaceOnUse">
<stop stop-color="#F7DD43"/>
<stop offset="1" stop-color="#F7DD43" stop-opacity="0"/>
</linearGradient>
<linearGradient id="paint22_linear_175_1868" x1="52.5" y1="586" x2="52.5" y2="897.381" gradientUnits="userSpaceOnUse">
<stop stop-color="#F7DD43"/>
<stop offset="1" stop-color="#F7DD43" stop-opacity="0"/>
</linearGradient>
<linearGradient id="paint23_linear_175_1868" x1="52.5" y1="586" x2="52.5" y2="897.381" gradientUnits="userSpaceOnUse">
<stop stop-color="#F7DD43"/>
<stop offset="1" stop-color="#F7DD43" stop-opacity="0"/>
</linearGradient>
<linearGradient id="paint24_linear_175_1868" x1="52.5" y1="586" x2="52.5" y2="897.381" gradientUnits="userSpaceOnUse">
<stop stop-color="#F7DD43"/>
<stop offset="1" stop-color="#F7DD43" stop-opacity="0"/>
</linearGradient>
<linearGradient id="paint25_linear_175_1868" x1="52.5" y1="586" x2="52.5" y2="897.381" gradientUnits="userSpaceOnUse">
<stop stop-color="#F7DD43"/>
<stop offset="1" stop-color="#F7DD43" stop-opacity="0"/>
</linearGradient>
<linearGradient id="paint26_linear_175_1868" x1="52.5" y1="586" x2="52.5" y2="897.381" gradientUnits="userSpaceOnUse">
<stop stop-color="#F7DD43"/>
<stop offset="1" stop-color="#F7DD43" stop-opacity="0"/>
</linearGradient>
<linearGradient id="paint27_linear_175_1868" x1="52.5" y1="586" x2="52.5" y2="897.381" gradientUnits="userSpaceOnUse">
<stop stop-color="#F7DD43"/>
<stop offset="1" stop-color="#F7DD43" stop-opacity="0"/>
</linearGradient>
<linearGradient id="paint28_linear_175_1868" x1="52.5" y1="586" x2="52.5" y2="897.381" gradientUnits="userSpaceOnUse">
<stop stop-color="#F7DD43"/>
<stop offset="1" stop-color="#F7DD43" stop-opacity="0"/>
</linearGradient>
<linearGradient id="paint29_linear_175_1868" x1="52.5" y1="586" x2="52.5" y2="897.381" gradientUnits="userSpaceOnUse">
<stop stop-color="#F7DD43"/>
<stop offset="1" stop-color="#F7DD43" stop-opacity="0"/>
</linearGradient>
<linearGradient id="paint30_linear_175_1868" x1="52.5" y1="586" x2="52.5" y2="897.381" gradientUnits="userSpaceOnUse">
<stop stop-color="#F7DD43"/>
<stop offset="1" stop-color="#F7DD43" stop-opacity="0"/>
</linearGradient>
<linearGradient id="paint31_linear_175_1868" x1="52.5" y1="586" x2="52.5" y2="897.381" gradientUnits="userSpaceOnUse">
<stop stop-color="#F7DD43"/>
<stop offset="1" stop-color="#F7DD43" stop-opacity="0"/>
</linearGradient>
<linearGradient id="paint32_linear_175_1868" x1="52.5" y1="586" x2="52.5" y2="897.381" gradientUnits="userSpaceOnUse">
<stop stop-color="#F7DD43"/>
<stop offset="1" stop-color="#F7DD43" stop-opacity="0"/>
</linearGradient>
<linearGradient id="paint33_linear_175_1868" x1="52.5" y1="586" x2="52.5" y2="897.381" gradientUnits="userSpaceOnUse">
<stop stop-color="#F7DD43"/>
<stop offset="1" stop-color="#F7DD43" stop-opacity="0"/>
</linearGradient>
<linearGradient id="paint34_linear_175_1868" x1="52.5" y1="586" x2="52.5" y2="897.381" gradientUnits="userSpaceOnUse">
<stop stop-color="#F7DD43"/>
<stop offset="1" stop-color="#F7DD43" stop-opacity="0"/>
</linearGradient>
<linearGradient id="paint35_linear_175_1868" x1="52.5" y1="586" x2="52.5" y2="897.381" gradientUnits="userSpaceOnUse">
<stop stop-color="#F7DD43"/>
<stop offset="1" stop-color="#F7DD43" stop-opacity="0"/>
</linearGradient>
<linearGradient id="paint36_linear_175_1868" x1="52.5" y1="586" x2="52.5" y2="897.381" gradientUnits="userSpaceOnUse">
<stop stop-color="#F7DD43"/>
<stop offset="1" stop-color="#F7DD43" stop-opacity="0"/>
</linearGradient>
<linearGradient id="paint37_linear_175_1868" x1="52.5" y1="586" x2="52.5" y2="897.381" gradientUnits="userSpaceOnUse">
<stop stop-color="#F7DD43"/>
<stop offset="1" stop-color="#F7DD43" stop-opacity="0"/>
</linearGradient>
<linearGradient id="paint38_linear_175_1868" x1="52.5" y1="586" x2="52.5" y2="897.381" gradientUnits="userSpaceOnUse">
<stop stop-color="#F7DD43"/>
<stop offset="1" stop-color="#F7DD43" stop-opacity="0"/>
</linearGradient>
<linearGradient id="paint39_linear_175_1868" x1="52.5" y1="586" x2="52.5" y2="897.381" gradientUnits="userSpaceOnUse">
<stop stop-color="#F7DD43"/>
<stop offset="1" stop-color="#F7DD43" stop-opacity="0"/>
</linearGradient>
<linearGradient id="paint40_linear_175_1868" x1="52.5" y1="586" x2="52.5" y2="897.381" gradientUnits="userSpaceOnUse">
<stop stop-color="#F7DD43"/>
<stop offset="1" stop-color="#F7DD43" stop-opacity="0"/>
</linearGradient>
<linearGradient id="paint41_linear_175_1868" x1="52.5" y1="586" x2="52.5" y2="897.381" gradientUnits="userSpaceOnUse">
<stop stop-color="#F7DD43"/>
<stop offset="1" stop-color="#F7DD43" stop-opacity="0"/>
</linearGradient>
<linearGradient id="paint42_linear_175_1868" x1="52.5" y1="586" x2="52.5" y2="897.381" gradientUnits="userSpaceOnUse">
<stop stop-color="#F7DD43"/>
<stop offset="1" stop-color="#F7DD43" stop-opacity="0"/>
</linearGradient>
<linearGradient id="paint43_linear_175_1868" x1="52.5" y1="586" x2="52.5" y2="897.381" gradientUnits="userSpaceOnUse">
<stop stop-color="#F7DD43"/>
<stop offset="1" stop-color="#F7DD43" stop-opacity="0"/>
</linearGradient>
<linearGradient id="paint44_linear_175_1868" x1="52.5" y1="586" x2="52.5" y2="897.381" gradientUnits="userSpaceOnUse">
<stop stop-color="#F7DD43"/>
<stop offset="1" stop-color="#F7DD43" stop-opacity="0"/>
</linearGradient>
<linearGradient id="paint45_linear_175_1868" x1="52.5" y1="586" x2="52.5" y2="897.381" gradientUnits="userSpaceOnUse">
<stop stop-color="#F7DD43"/>
<stop offset="1" stop-color="#F7DD43" stop-opacity="0"/>
</linearGradient>
<linearGradient id="paint46_linear_175_1868" x1="52.5" y1="586" x2="52.5" y2="897.381" gradientUnits="userSpaceOnUse">
<stop stop-color="#F7DD43"/>
<stop offset="1" stop-color="#F7DD43" stop-opacity="0"/>
</linearGradient>
<linearGradient id="paint47_linear_175_1868" x1="938.5" y1="286" x2="938.5" y2="584.818" gradientUnits="userSpaceOnUse">
<stop stop-color="#F7DD43"/>
<stop offset="1" stop-color="#F7DD43" stop-opacity="0"/>
</linearGradient>
<linearGradient id="paint48_linear_175_1868" x1="938.5" y1="286" x2="938.5" y2="584.818" gradientUnits="userSpaceOnUse">
<stop stop-color="#F7DD43"/>
<stop offset="1" stop-color="#F7DD43" stop-opacity="0"/>
</linearGradient>
<linearGradient id="paint49_linear_175_1868" x1="938.5" y1="286" x2="938.5" y2="584.818" gradientUnits="userSpaceOnUse">
<stop stop-color="#F7DD43"/>
<stop offset="1" stop-color="#F7DD43" stop-opacity="0"/>
</linearGradient>
<linearGradient id="paint50_linear_175_1868" x1="938.5" y1="286" x2="938.5" y2="584.818" gradientUnits="userSpaceOnUse">
<stop stop-color="#F7DD43"/>
<stop offset="1" stop-color="#F7DD43" stop-opacity="0"/>
</linearGradient>
<linearGradient id="paint51_linear_175_1868" x1="938.5" y1="286" x2="938.5" y2="584.818" gradientUnits="userSpaceOnUse">
<stop stop-color="#F7DD43"/>
<stop offset="1" stop-color="#F7DD43" stop-opacity="0"/>
</linearGradient>
<linearGradient id="paint52_linear_175_1868" x1="938.5" y1="286" x2="938.5" y2="584.818" gradientUnits="userSpaceOnUse">
<stop stop-color="#F7DD43"/>
<stop offset="1" stop-color="#F7DD43" stop-opacity="0"/>
</linearGradient>
<linearGradient id="paint53_linear_175_1868" x1="938.5" y1="286" x2="938.5" y2="584.818" gradientUnits="userSpaceOnUse">
<stop stop-color="#F7DD43"/>
<stop offset="1" stop-color="#F7DD43" stop-opacity="0"/>
</linearGradient>
<linearGradient id="paint54_linear_175_1868" x1="938.5" y1="286" x2="938.5" y2="584.818" gradientUnits="userSpaceOnUse">
<stop stop-color="#F7DD43"/>
<stop offset="1" stop-color="#F7DD43" stop-opacity="0"/>
</linearGradient>
<linearGradient id="paint55_linear_175_1868" x1="938.5" y1="286" x2="938.5" y2="584.818" gradientUnits="userSpaceOnUse">
<stop stop-color="#F7DD43"/>
<stop offset="1" stop-color="#F7DD43" stop-opacity="0"/>
</linearGradient>
<linearGradient id="paint56_linear_175_1868" x1="938.5" y1="286" x2="938.5" y2="584.818" gradientUnits="userSpaceOnUse">
<stop stop-color="#F7DD43"/>
<stop offset="1" stop-color="#F7DD43" stop-opacity="0"/>
</linearGradient>
<linearGradient id="paint57_linear_175_1868" x1="938.5" y1="286" x2="938.5" y2="584.818" gradientUnits="userSpaceOnUse">
<stop stop-color="#F7DD43"/>
<stop offset="1" stop-color="#F7DD43" stop-opacity="0"/>
</linearGradient>
<linearGradient id="paint58_linear_175_1868" x1="938.5" y1="286" x2="938.5" y2="584.818" gradientUnits="userSpaceOnUse">
<stop stop-color="#F7DD43"/>
<stop offset="1" stop-color="#F7DD43" stop-opacity="0"/>
</linearGradient>
<linearGradient id="paint59_linear_175_1868" x1="938.5" y1="286" x2="938.5" y2="584.818" gradientUnits="userSpaceOnUse">
<stop stop-color="#F7DD43"/>
<stop offset="1" stop-color="#F7DD43" stop-opacity="0"/>
</linearGradient>
<linearGradient id="paint60_linear_175_1868" x1="938.5" y1="286" x2="938.5" y2="584.818" gradientUnits="userSpaceOnUse">
<stop stop-color="#F7DD43"/>
<stop offset="1" stop-color="#F7DD43" stop-opacity="0"/>
</linearGradient>
<linearGradient id="paint61_linear_175_1868" x1="938.5" y1="286" x2="938.5" y2="584.818" gradientUnits="userSpaceOnUse">
<stop stop-color="#F7DD43"/>
<stop offset="1" stop-color="#F7DD43" stop-opacity="0"/>
</linearGradient>
<linearGradient id="paint62_linear_175_1868" x1="938.5" y1="286" x2="938.5" y2="584.818" gradientUnits="userSpaceOnUse">
<stop stop-color="#F7DD43"/>
<stop offset="1" stop-color="#F7DD43" stop-opacity="0"/>
</linearGradient>
<linearGradient id="paint63_linear_175_1868" x1="938.5" y1="286" x2="938.5" y2="584.818" gradientUnits="userSpaceOnUse">
<stop stop-color="#F7DD43"/>
<stop offset="1" stop-color="#F7DD43" stop-opacity="0"/>
</linearGradient>
<linearGradient id="paint64_linear_175_1868" x1="938.5" y1="286" x2="938.5" y2="584.818" gradientUnits="userSpaceOnUse">
<stop stop-color="#F7DD43"/>
<stop offset="1" stop-color="#F7DD43" stop-opacity="0"/>
</linearGradient>
<linearGradient id="paint65_linear_175_1868" x1="938.5" y1="286" x2="938.5" y2="584.818" gradientUnits="userSpaceOnUse">
<stop stop-color="#F7DD43"/>
<stop offset="1" stop-color="#F7DD43" stop-opacity="0"/>
</linearGradient>
<linearGradient id="paint66_linear_175_1868" x1="938.5" y1="286" x2="938.5" y2="584.818" gradientUnits="userSpaceOnUse">
<stop stop-color="#F7DD43"/>
<stop offset="1" stop-color="#F7DD43" stop-opacity="0"/>
</linearGradient>
<linearGradient id="paint67_linear_175_1868" x1="938.5" y1="286" x2="938.5" y2="584.818" gradientUnits="userSpaceOnUse">
<stop stop-color="#F7DD43"/>
<stop offset="1" stop-color="#F7DD43" stop-opacity="0"/>
</linearGradient>
<linearGradient id="paint68_linear_175_1868" x1="938.5" y1="286" x2="938.5" y2="584.818" gradientUnits="userSpaceOnUse">
<stop stop-color="#F7DD43"/>
<stop offset="1" stop-color="#F7DD43" stop-opacity="0"/>
</linearGradient>
<linearGradient id="paint69_linear_175_1868" x1="938.5" y1="286" x2="938.5" y2="584.818" gradientUnits="userSpaceOnUse">
<stop stop-color="#F7DD43"/>
<stop offset="1" stop-color="#F7DD43" stop-opacity="0"/>
</linearGradient>
<linearGradient id="paint70_linear_175_1868" x1="938.5" y1="286" x2="938.5" y2="584.818" gradientUnits="userSpaceOnUse">
<stop stop-color="#F7DD43"/>
<stop offset="1" stop-color="#F7DD43" stop-opacity="0"/>
</linearGradient>
<linearGradient id="paint71_linear_175_1868" x1="938.5" y1="286" x2="938.5" y2="584.818" gradientUnits="userSpaceOnUse">
<stop stop-color="#F7DD43"/>
<stop offset="1" stop-color="#F7DD43" stop-opacity="0"/>
</linearGradient>
<linearGradient id="paint72_linear_175_1868" x1="938.5" y1="286" x2="938.5" y2="584.818" gradientUnits="userSpaceOnUse">
<stop stop-color="#F7DD43"/>
<stop offset="1" stop-color="#F7DD43" stop-opacity="0"/>
</linearGradient>
<linearGradient id="paint73_linear_175_1868" x1="938.5" y1="286" x2="938.5" y2="584.818" gradientUnits="userSpaceOnUse">
<stop stop-color="#F7DD43"/>
<stop offset="1" stop-color="#F7DD43" stop-opacity="0"/>
</linearGradient>
<linearGradient id="paint74_linear_175_1868" x1="938.5" y1="286" x2="938.5" y2="584.818" gradientUnits="userSpaceOnUse">
<stop stop-color="#F7DD43"/>
<stop offset="1" stop-color="#F7DD43" stop-opacity="0"/>
</linearGradient>
<linearGradient id="paint75_linear_175_1868" x1="938.5" y1="286" x2="938.5" y2="584.818" gradientUnits="userSpaceOnUse">
<stop stop-color="#F7DD43"/>
<stop offset="1" stop-color="#F7DD43" stop-opacity="0"/>
</linearGradient>
<linearGradient id="paint76_linear_175_1868" x1="938.5" y1="286" x2="938.5" y2="584.818" gradientUnits="userSpaceOnUse">
<stop stop-color="#F7DD43"/>
<stop offset="1" stop-color="#F7DD43" stop-opacity="0"/>
</linearGradient>
<linearGradient id="paint77_linear_175_1868" x1="938.5" y1="286" x2="938.5" y2="584.818" gradientUnits="userSpaceOnUse">
<stop stop-color="#F7DD43"/>
<stop offset="1" stop-color="#F7DD43" stop-opacity="0"/>
</linearGradient>
<linearGradient id="paint78_linear_175_1868" x1="938.5" y1="286" x2="938.5" y2="584.818" gradientUnits="userSpaceOnUse">
<stop stop-color="#F7DD43"/>
<stop offset="1" stop-color="#F7DD43" stop-opacity="0"/>
</linearGradient>
<linearGradient id="paint79_linear_175_1868" x1="938.5" y1="286" x2="938.5" y2="584.818" gradientUnits="userSpaceOnUse">
<stop stop-color="#F7DD43"/>
<stop offset="1" stop-color="#F7DD43" stop-opacity="0"/>
</linearGradient>
<linearGradient id="paint80_linear_175_1868" x1="938.5" y1="286" x2="938.5" y2="584.818" gradientUnits="userSpaceOnUse">
<stop stop-color="#F7DD43"/>
<stop offset="1" stop-color="#F7DD43" stop-opacity="0"/>
</linearGradient>
<linearGradient id="paint81_linear_175_1868" x1="938.5" y1="286" x2="938.5" y2="584.818" gradientUnits="userSpaceOnUse">
<stop stop-color="#F7DD43"/>
<stop offset="1" stop-color="#F7DD43" stop-opacity="0"/>
</linearGradient>
<linearGradient id="paint82_linear_175_1868" x1="938.5" y1="286" x2="938.5" y2="584.818" gradientUnits="userSpaceOnUse">
<stop stop-color="#F7DD43"/>
<stop offset="1" stop-color="#F7DD43" stop-opacity="0"/>
</linearGradient>
<linearGradient id="paint83_linear_175_1868" x1="938.5" y1="286" x2="938.5" y2="584.818" gradientUnits="userSpaceOnUse">
<stop stop-color="#F7DD43"/>
<stop offset="1" stop-color="#F7DD43" stop-opacity="0"/>
</linearGradient>
<linearGradient id="paint84_linear_175_1868" x1="938.5" y1="286" x2="938.5" y2="584.818" gradientUnits="userSpaceOnUse">
<stop stop-color="#F7DD43"/>
<stop offset="1" stop-color="#F7DD43" stop-opacity="0"/>
</linearGradient>
<linearGradient id="paint85_linear_175_1868" x1="938.5" y1="286" x2="938.5" y2="584.818" gradientUnits="userSpaceOnUse">
<stop stop-color="#F7DD43"/>
<stop offset="1" stop-color="#F7DD43" stop-opacity="0"/>
</linearGradient>
<linearGradient id="paint86_linear_175_1868" x1="938.5" y1="286" x2="938.5" y2="584.818" gradientUnits="userSpaceOnUse">
<stop stop-color="#F7DD43"/>
<stop offset="1" stop-color="#F7DD43" stop-opacity="0"/>
</linearGradient>
<linearGradient id="paint87_linear_175_1868" x1="938.5" y1="286" x2="938.5" y2="584.818" gradientUnits="userSpaceOnUse">
<stop stop-color="#F7DD43"/>
<stop offset="1" stop-color="#F7DD43" stop-opacity="0"/>
</linearGradient>
<linearGradient id="paint88_linear_175_1868" x1="938.5" y1="286" x2="938.5" y2="584.818" gradientUnits="userSpaceOnUse">
<stop stop-color="#F7DD43"/>
<stop offset="1" stop-color="#F7DD43" stop-opacity="0"/>
</linearGradient>
<linearGradient id="paint89_linear_175_1868" x1="938.5" y1="286" x2="938.5" y2="584.818" gradientUnits="userSpaceOnUse">
<stop stop-color="#F7DD43"/>
<stop offset="1" stop-color="#F7DD43" stop-opacity="0"/>
</linearGradient>
<linearGradient id="paint90_linear_175_1868" x1="938.5" y1="286" x2="938.5" y2="584.818" gradientUnits="userSpaceOnUse">
<stop stop-color="#F7DD43"/>
<stop offset="1" stop-color="#F7DD43" stop-opacity="0"/>
</linearGradient>
<linearGradient id="paint91_linear_175_1868" x1="938.5" y1="286" x2="938.5" y2="584.818" gradientUnits="userSpaceOnUse">
<stop stop-color="#F7DD43"/>
<stop offset="1" stop-color="#F7DD43" stop-opacity="0"/>
</linearGradient>
<linearGradient id="paint92_linear_175_1868" x1="938.5" y1="286" x2="938.5" y2="584.818" gradientUnits="userSpaceOnUse">
<stop stop-color="#F7DD43"/>
<stop offset="1" stop-color="#F7DD43" stop-opacity="0"/>
</linearGradient>
<linearGradient id="paint93_linear_175_1868" x1="938.5" y1="286" x2="938.5" y2="584.818" gradientUnits="userSpaceOnUse">
<stop stop-color="#F7DD43"/>
<stop offset="1" stop-color="#F7DD43" stop-opacity="0"/>
</linearGradient>
</defs>
</svg>
