<svg width="1024" height="753" viewBox="0 0 1024 753" fill="none" xmlns="http://www.w3.org/2000/svg">
<g opacity="0.2" filter="url(#filter0_f_175_1902)">
<ellipse cx="511.5" cy="350" rx="670.5" ry="350" fill="#B3A659"/>
</g>
<path d="M32.0349 586C33.5302 586 34.6622 586.63 35.4308 587.891C36.2134 589.138 36.6047 590.953 36.6047 593.336C36.6047 595.719 36.2134 597.541 35.4308 598.802C34.6622 600.063 33.5302 600.693 32.0349 600.693C30.5536 600.693 29.4216 600.063 28.639 598.802C27.8564 597.541 27.4651 595.719 27.4651 593.336C27.4651 590.967 27.8564 589.152 28.639 587.891C29.4216 586.63 30.5536 586 32.0349 586ZM28.9534 593.336C28.9534 595.026 29.1072 596.35 29.4146 597.306L34.0683 588.099C33.5791 587.448 32.9013 587.122 32.0349 587.122C31.0706 587.122 30.316 587.635 29.771 588.66C29.2259 589.672 28.9534 591.23 28.9534 593.336ZM32.0349 599.55C33.0131 599.55 33.7748 599.044 34.3198 598.033C34.8648 597.008 35.1373 595.442 35.1373 593.336C35.1373 591.549 34.9627 590.163 34.6133 589.18L29.9596 598.469C30.4627 599.19 31.1545 599.55 32.0349 599.55Z" fill="url(#paint0_linear_175_1902)" fill-opacity="0.6"/>
<path d="M33.2926 623.135H36.3741V624.236H28.3874V623.135H31.9511V611.455L28.5551 613.471L27.9682 612.536L32.1607 609.959H33.2926V623.135Z" fill="url(#paint1_linear_175_1902)" fill-opacity="0.6"/>
<path d="M32.0349 633.502C33.5302 633.502 34.6622 634.133 35.4308 635.393C36.2134 636.64 36.6047 638.455 36.6047 640.838C36.6047 643.221 36.2134 645.043 35.4308 646.304C34.6622 647.565 33.5302 648.195 32.0349 648.195C30.5536 648.195 29.4216 647.565 28.639 646.304C27.8564 645.043 27.4651 643.221 27.4651 640.838C27.4651 638.469 27.8564 636.654 28.639 635.393C29.4216 634.133 30.5536 633.502 32.0349 633.502ZM28.9534 640.838C28.9534 642.529 29.1072 643.852 29.4146 644.808L34.0683 635.601C33.5791 634.95 32.9013 634.624 32.0349 634.624C31.0706 634.624 30.316 635.137 29.771 636.162C29.2259 637.174 28.9534 638.732 28.9534 640.838ZM32.0349 647.052C33.0131 647.052 33.7748 646.546 34.3198 645.535C34.8648 644.51 35.1373 642.944 35.1373 640.838C35.1373 639.051 34.9627 637.665 34.6133 636.682L29.9596 645.971C30.4627 646.692 31.1545 647.052 32.0349 647.052Z" fill="url(#paint2_linear_175_1902)" fill-opacity="0.6"/>
<path d="M33.2926 670.637H36.3741V671.738H28.3874V670.637H31.9511V658.957L28.5551 660.973L27.9682 660.038L32.1607 657.461H33.2926V670.637Z" fill="url(#paint3_linear_175_1902)" fill-opacity="0.6"/>
<path d="M33.2926 694.388H36.3741V695.489H28.3874V694.388H31.9511V682.708L28.5551 684.724L27.9682 683.789L32.1607 681.212H33.2926V694.388Z" fill="url(#paint4_linear_175_1902)" fill-opacity="0.6"/>
<path d="M32.0349 704.755C33.5302 704.755 34.6622 705.386 35.4308 706.646C36.2134 707.893 36.6047 709.708 36.6047 712.091C36.6047 714.474 36.2134 716.296 35.4308 717.557C34.6622 718.818 33.5302 719.448 32.0349 719.448C30.5536 719.448 29.4216 718.818 28.639 717.557C27.8564 716.296 27.4651 714.474 27.4651 712.091C27.4651 709.722 27.8564 707.907 28.639 706.646C29.4216 705.386 30.5536 704.755 32.0349 704.755ZM28.9534 712.091C28.9534 713.782 29.1072 715.105 29.4146 716.061L34.0683 706.854C33.5791 706.203 32.9013 705.878 32.0349 705.878C31.0706 705.878 30.316 706.39 29.771 707.415C29.2259 708.427 28.9534 709.985 28.9534 712.091ZM32.0349 718.305C33.0131 718.305 33.7748 717.8 34.3198 716.788C34.8648 715.763 35.1373 714.197 35.1373 712.091C35.1373 710.304 34.9627 708.919 34.6133 707.935L29.9596 717.225C30.4627 717.945 31.1545 718.305 32.0349 718.305Z" fill="url(#paint5_linear_175_1902)" fill-opacity="0.6"/>
<path d="M33.2926 741.89H36.3741V742.992H28.3874V741.89H31.9511V730.21L28.5551 732.226L27.9682 731.291L32.1607 728.714H33.2926V741.89Z" fill="url(#paint6_linear_175_1902)" fill-opacity="0.6"/>
<path d="M32.0349 752.257C33.5302 752.257 34.6622 752.888 35.4308 754.149C36.2134 755.396 36.6047 757.211 36.6047 759.594C36.6047 761.977 36.2134 763.798 35.4308 765.059C34.6622 766.32 33.5302 766.95 32.0349 766.95C30.5536 766.95 29.4216 766.32 28.639 765.059C27.8564 763.798 27.4651 761.977 27.4651 759.594C27.4651 757.224 27.8564 755.409 28.639 754.149C29.4216 752.888 30.5536 752.257 32.0349 752.257ZM28.9534 759.594C28.9534 761.284 29.1072 762.607 29.4146 763.563L34.0683 754.356C33.5791 753.705 32.9013 753.38 32.0349 753.38C31.0706 753.38 30.316 753.892 29.771 754.918C29.2259 755.929 28.9534 757.488 28.9534 759.594ZM32.0349 765.807C33.0131 765.807 33.7748 765.302 34.3198 764.29C34.8648 763.265 35.1373 761.699 35.1373 759.594C35.1373 757.806 34.9627 756.421 34.6133 755.437L29.9596 764.727C30.4627 765.447 31.1545 765.807 32.0349 765.807Z" fill="url(#paint7_linear_175_1902)" fill-opacity="0.6"/>
<path d="M32.0349 776.008C33.5302 776.008 34.6622 776.639 35.4308 777.9C36.2134 779.147 36.6047 780.962 36.6047 783.345C36.6047 785.728 36.2134 787.549 35.4308 788.81C34.6622 790.071 33.5302 790.701 32.0349 790.701C30.5536 790.701 29.4216 790.071 28.639 788.81C27.8564 787.549 27.4651 785.728 27.4651 783.345C27.4651 780.975 27.8564 779.16 28.639 777.9C29.4216 776.639 30.5536 776.008 32.0349 776.008ZM28.9534 783.345C28.9534 785.035 29.1072 786.358 29.4146 787.314L34.0683 778.107C33.5791 777.456 32.9013 777.131 32.0349 777.131C31.0706 777.131 30.316 777.643 29.771 778.669C29.2259 779.68 28.9534 781.239 28.9534 783.345ZM32.0349 789.558C33.0131 789.558 33.7748 789.053 34.3198 788.041C34.8648 787.016 35.1373 785.451 35.1373 783.345C35.1373 781.557 34.9627 780.172 34.6133 779.188L29.9596 788.478C30.4627 789.198 31.1545 789.558 32.0349 789.558Z" fill="url(#paint8_linear_175_1902)" fill-opacity="0.6"/>
<path d="M33.2926 813.143H36.3741V814.245H28.3874V813.143H31.9511V801.464L28.5551 803.48L27.9682 802.544L32.1607 799.967H33.2926V813.143Z" fill="url(#paint9_linear_175_1902)" fill-opacity="0.6"/>
<path d="M32.0349 823.511C33.5302 823.511 34.6622 824.141 35.4308 825.402C36.2134 826.649 36.6047 828.464 36.6047 830.847C36.6047 833.23 36.2134 835.052 35.4308 836.312C34.6622 837.573 33.5302 838.204 32.0349 838.204C30.5536 838.204 29.4216 837.573 28.639 836.312C27.8564 835.052 27.4651 833.23 27.4651 830.847C27.4651 828.478 27.8564 826.663 28.639 825.402C29.4216 824.141 30.5536 823.511 32.0349 823.511ZM28.9534 830.847C28.9534 832.537 29.1072 833.86 29.4146 834.816L34.0683 825.61C33.5791 824.958 32.9013 824.633 32.0349 824.633C31.0706 824.633 30.316 825.145 29.771 826.171C29.2259 827.182 28.9534 828.741 28.9534 830.847ZM32.0349 837.061C33.0131 837.061 33.7748 836.555 34.3198 835.543C34.8648 834.518 35.1373 832.953 35.1373 830.847C35.1373 829.059 34.9627 827.674 34.6133 826.69L29.9596 835.98C30.4627 836.7 31.1545 837.061 32.0349 837.061Z" fill="url(#paint10_linear_175_1902)" fill-opacity="0.6"/>
<path d="M33.2926 860.645H36.3741V861.747H28.3874V860.645H31.9511V848.966L28.5551 850.982L27.9682 850.046L32.1607 847.469H33.2926V860.645Z" fill="url(#paint11_linear_175_1902)" fill-opacity="0.6"/>
<path d="M33.2926 884.396H36.3741V885.498H28.3874V884.396H31.9511V872.717L28.5551 874.733L27.9682 873.798L32.1607 871.221H33.2926V884.396Z" fill="url(#paint12_linear_175_1902)" fill-opacity="0.6"/>
<path d="M70.9651 633.502C72.4604 633.502 73.5924 634.133 74.361 635.393C75.1436 636.64 75.5349 638.455 75.5349 640.838C75.5349 643.221 75.1436 645.043 74.361 646.304C73.5924 647.565 72.4604 648.195 70.9651 648.195C69.4838 648.195 68.3518 647.565 67.5692 646.304C66.7866 645.043 66.3953 643.221 66.3953 640.838C66.3953 638.469 66.7866 636.654 67.5692 635.393C68.3518 634.133 69.4838 633.502 70.9651 633.502ZM67.8836 640.838C67.8836 642.529 68.0374 643.852 68.3448 644.808L72.9985 635.601C72.5093 634.95 71.8315 634.624 70.9651 634.624C70.0008 634.624 69.2462 635.137 68.7012 636.162C68.1561 637.174 67.8836 638.732 67.8836 640.838ZM70.9651 647.052C71.9433 647.052 72.705 646.546 73.25 645.535C73.795 644.51 74.0675 642.944 74.0675 640.838C74.0675 639.051 73.8928 637.665 73.5435 636.682L68.8898 645.971C69.3929 646.692 70.0847 647.052 70.9651 647.052Z" fill="url(#paint13_linear_175_1902)" fill-opacity="0.6"/>
<path d="M72.2228 670.637H75.3043V671.738H67.3176V670.637H70.8812V658.957L67.4853 660.973L66.8984 660.038L71.0909 657.461H72.2228V670.637Z" fill="url(#paint14_linear_175_1902)" fill-opacity="0.6"/>
<path d="M70.9651 681.004C72.4604 681.004 73.5924 681.635 74.361 682.895C75.1436 684.142 75.5349 685.957 75.5349 688.34C75.5349 690.723 75.1436 692.545 74.361 693.806C73.5924 695.067 72.4604 695.697 70.9651 695.697C69.4838 695.697 68.3518 695.067 67.5692 693.806C66.7866 692.545 66.3953 690.723 66.3953 688.34C66.3953 685.971 66.7866 684.156 67.5692 682.895C68.3518 681.635 69.4838 681.004 70.9651 681.004ZM67.8836 688.34C67.8836 690.031 68.0374 691.354 68.3448 692.31L72.9985 683.103C72.5093 682.452 71.8315 682.126 70.9651 682.126C70.0008 682.126 69.2462 682.639 68.7012 683.664C68.1561 684.676 67.8836 686.234 67.8836 688.34ZM70.9651 694.554C71.9433 694.554 72.705 694.049 73.25 693.037C73.795 692.012 74.0675 690.446 74.0675 688.34C74.0675 686.553 73.8928 685.168 73.5435 684.184L68.8898 693.474C69.3929 694.194 70.0847 694.554 70.9651 694.554Z" fill="url(#paint15_linear_175_1902)" fill-opacity="0.6"/>
<path d="M70.9651 704.755C72.4604 704.755 73.5924 705.386 74.361 706.646C75.1436 707.893 75.5349 709.708 75.5349 712.091C75.5349 714.474 75.1436 716.296 74.361 717.557C73.5924 718.818 72.4604 719.448 70.9651 719.448C69.4838 719.448 68.3518 718.818 67.5692 717.557C66.7866 716.296 66.3953 714.474 66.3953 712.091C66.3953 709.722 66.7866 707.907 67.5692 706.646C68.3518 705.386 69.4838 704.755 70.9651 704.755ZM67.8836 712.091C67.8836 713.782 68.0374 715.105 68.3448 716.061L72.9985 706.854C72.5093 706.203 71.8315 705.878 70.9651 705.878C70.0008 705.878 69.2462 706.39 68.7012 707.415C68.1561 708.427 67.8836 709.985 67.8836 712.091ZM70.9651 718.305C71.9433 718.305 72.705 717.8 73.25 716.788C73.795 715.763 74.0675 714.197 74.0675 712.091C74.0675 710.304 73.8928 708.919 73.5435 707.935L68.8898 717.225C69.3929 717.945 70.0847 718.305 70.9651 718.305Z" fill="url(#paint16_linear_175_1902)" fill-opacity="0.6"/>
<path d="M72.2228 741.89H75.3043V742.992H67.3176V741.89H70.8812V730.21L67.4853 732.226L66.8984 731.291L71.0909 728.714H72.2228V741.89Z" fill="url(#paint17_linear_175_1902)" fill-opacity="0.6"/>
<path d="M70.9651 752.257C72.4604 752.257 73.5924 752.888 74.361 754.149C75.1436 755.396 75.5349 757.211 75.5349 759.594C75.5349 761.977 75.1436 763.798 74.361 765.059C73.5924 766.32 72.4604 766.95 70.9651 766.95C69.4838 766.95 68.3518 766.32 67.5692 765.059C66.7866 763.798 66.3953 761.977 66.3953 759.594C66.3953 757.224 66.7866 755.409 67.5692 754.149C68.3518 752.888 69.4838 752.257 70.9651 752.257ZM67.8836 759.594C67.8836 761.284 68.0374 762.607 68.3448 763.563L72.9985 754.356C72.5093 753.705 71.8315 753.38 70.9651 753.38C70.0008 753.38 69.2462 753.892 68.7012 754.918C68.1561 755.929 67.8836 757.488 67.8836 759.594ZM70.9651 765.807C71.9433 765.807 72.705 765.302 73.25 764.29C73.795 763.265 74.0675 761.699 74.0675 759.594C74.0675 757.806 73.8928 756.421 73.5435 755.437L68.8898 764.727C69.3929 765.447 70.0847 765.807 70.9651 765.807Z" fill="url(#paint18_linear_175_1902)" fill-opacity="0.6"/>
<path d="M72.2228 789.392H75.3043V790.494H67.3176V789.392H70.8812V777.713L67.4853 779.728L66.8984 778.793L71.0909 776.216H72.2228V789.392Z" fill="url(#paint19_linear_175_1902)" fill-opacity="0.6"/>
<path d="M70.9651 799.76C72.4604 799.76 73.5924 800.39 74.361 801.651C75.1436 802.898 75.5349 804.713 75.5349 807.096C75.5349 809.479 75.1436 811.301 74.361 812.561C73.5924 813.822 72.4604 814.453 70.9651 814.453C69.4838 814.453 68.3518 813.822 67.5692 812.561C66.7866 811.301 66.3953 809.479 66.3953 807.096C66.3953 804.726 66.7866 802.911 67.5692 801.651C68.3518 800.39 69.4838 799.76 70.9651 799.76ZM67.8836 807.096C67.8836 808.786 68.0374 810.109 68.3448 811.065L72.9985 801.859C72.5093 801.207 71.8315 800.882 70.9651 800.882C70.0008 800.882 69.2462 801.394 68.7012 802.42C68.1561 803.431 67.8836 804.99 67.8836 807.096ZM70.9651 813.31C71.9433 813.31 72.705 812.804 73.25 811.792C73.795 810.767 74.0675 809.202 74.0675 807.096C74.0675 805.308 73.8928 803.923 73.5435 802.939L68.8898 812.229C69.3929 812.949 70.0847 813.31 70.9651 813.31Z" fill="url(#paint20_linear_175_1902)" fill-opacity="0.6"/>
<path d="M70.9651 823.511C72.4604 823.511 73.5924 824.141 74.361 825.402C75.1436 826.649 75.5349 828.464 75.5349 830.847C75.5349 833.23 75.1436 835.052 74.361 836.312C73.5924 837.573 72.4604 838.204 70.9651 838.204C69.4838 838.204 68.3518 837.573 67.5692 836.312C66.7866 835.052 66.3953 833.23 66.3953 830.847C66.3953 828.478 66.7866 826.663 67.5692 825.402C68.3518 824.141 69.4838 823.511 70.9651 823.511ZM67.8836 830.847C67.8836 832.537 68.0374 833.86 68.3448 834.816L72.9985 825.61C72.5093 824.958 71.8315 824.633 70.9651 824.633C70.0008 824.633 69.2462 825.145 68.7012 826.171C68.1561 827.182 67.8836 828.741 67.8836 830.847ZM70.9651 837.061C71.9433 837.061 72.705 836.555 73.25 835.543C73.795 834.518 74.0675 832.953 74.0675 830.847C74.0675 829.059 73.8928 827.674 73.5435 826.69L68.8898 835.98C69.3929 836.7 70.0847 837.061 70.9651 837.061Z" fill="url(#paint21_linear_175_1902)" fill-opacity="0.6"/>
<path d="M72.2228 860.645H75.3043V861.747H67.3176V860.645H70.8812V848.966L67.4853 850.982L66.8984 850.046L71.0909 847.469H72.2228V860.645Z" fill="url(#paint22_linear_175_1902)" fill-opacity="0.6"/>
<path d="M70.9651 871.013C72.4604 871.013 73.5924 871.643 74.361 872.904C75.1436 874.151 75.5349 875.966 75.5349 878.349C75.5349 880.732 75.1436 882.554 74.361 883.815C73.5924 885.075 72.4604 885.706 70.9651 885.706C69.4838 885.706 68.3518 885.075 67.5692 883.815C66.7866 882.554 66.3953 880.732 66.3953 878.349C66.3953 875.98 66.7866 874.165 67.5692 872.904C68.3518 871.643 69.4838 871.013 70.9651 871.013ZM67.8836 878.349C67.8836 880.039 68.0374 881.362 68.3448 882.318L72.9985 873.112C72.5093 872.461 71.8315 872.135 70.9651 872.135C70.0008 872.135 69.2462 872.648 68.7012 873.673C68.1561 874.684 67.8836 876.243 67.8836 878.349ZM70.9651 884.563C71.9433 884.563 72.705 884.057 73.25 883.046C73.795 882.02 74.0675 880.455 74.0675 878.349C74.0675 876.562 73.8928 875.176 73.5435 874.192L68.8898 883.482C69.3929 884.202 70.0847 884.563 70.9651 884.563Z" fill="url(#paint23_linear_175_1902)" fill-opacity="0.6"/>
<path d="M72.2228 908.148H75.3043V909.249H67.3176V908.148H70.8812V896.468L67.4853 898.484L66.8984 897.549L71.0909 894.972H72.2228V908.148Z" fill="url(#paint24_linear_175_1902)" fill-opacity="0.6"/>
<path d="M72.2228 931.899H75.3043V933H67.3176V931.899H70.8812V920.219L67.4853 922.235L66.8984 921.3L71.0909 918.723H72.2228V931.899Z" fill="url(#paint25_linear_175_1902)" fill-opacity="0.6"/>
<path d="M12.5698 657.253C14.0651 657.253 15.1971 657.884 15.9657 659.144C16.7483 660.391 17.1396 662.206 17.1396 664.589C17.1396 666.972 16.7483 668.794 15.9657 670.055C15.1971 671.316 14.0651 671.946 12.5698 671.946C11.0885 671.946 9.95649 671.316 9.1739 670.055C8.3913 668.794 8 666.972 8 664.589C8 662.22 8.3913 660.405 9.1739 659.144C9.95649 657.884 11.0885 657.253 12.5698 657.253ZM9.48833 664.589C9.48833 666.28 9.64206 667.603 9.9495 668.559L14.6032 659.352C14.114 658.701 13.4363 658.375 12.5698 658.375C11.6055 658.375 10.8509 658.888 10.3059 659.913C9.76084 660.925 9.48833 662.483 9.48833 664.589ZM12.5698 670.803C13.5481 670.803 14.3097 670.297 14.8547 669.286C15.3997 668.261 15.6722 666.695 15.6722 664.589C15.6722 662.802 15.4976 661.417 15.1482 660.433L10.4945 669.722C10.9976 670.443 11.6894 670.803 12.5698 670.803Z" fill="url(#paint26_linear_175_1902)" fill-opacity="0.6"/>
<path d="M12.5698 681.004C14.0651 681.004 15.1971 681.635 15.9657 682.895C16.7483 684.142 17.1396 685.957 17.1396 688.34C17.1396 690.723 16.7483 692.545 15.9657 693.806C15.1971 695.067 14.0651 695.697 12.5698 695.697C11.0885 695.697 9.95649 695.067 9.1739 693.806C8.3913 692.545 8 690.723 8 688.34C8 685.971 8.3913 684.156 9.1739 682.895C9.95649 681.635 11.0885 681.004 12.5698 681.004ZM9.48833 688.34C9.48833 690.031 9.64206 691.354 9.9495 692.31L14.6032 683.103C14.114 682.452 13.4363 682.126 12.5698 682.126C11.6055 682.126 10.8509 682.639 10.3059 683.664C9.76084 684.676 9.48833 686.234 9.48833 688.34ZM12.5698 694.554C13.5481 694.554 14.3097 694.049 14.8547 693.037C15.3997 692.012 15.6722 690.446 15.6722 688.34C15.6722 686.553 15.4976 685.168 15.1482 684.184L10.4945 693.474C10.9976 694.194 11.6894 694.554 12.5698 694.554Z" fill="url(#paint27_linear_175_1902)" fill-opacity="0.6"/>
<path d="M13.8276 718.139H16.909V719.24H8.92235V718.139H12.486V706.459L9.09005 708.475L8.5031 707.54L12.6956 704.963H13.8276V718.139Z" fill="url(#paint28_linear_175_1902)" fill-opacity="0.6"/>
<path d="M12.5698 728.506C14.0651 728.506 15.1971 729.137 15.9657 730.398C16.7483 731.644 17.1396 733.459 17.1396 735.842C17.1396 738.225 16.7483 740.047 15.9657 741.308C15.1971 742.569 14.0651 743.199 12.5698 743.199C11.0885 743.199 9.95649 742.569 9.1739 741.308C8.3913 740.047 8 738.225 8 735.842C8 733.473 8.3913 731.658 9.1739 730.398C9.95649 729.137 11.0885 728.506 12.5698 728.506ZM9.48833 735.842C9.48833 737.533 9.64206 738.856 9.9495 739.812L14.6032 730.605C14.114 729.954 13.4363 729.629 12.5698 729.629C11.6055 729.629 10.8509 730.141 10.3059 731.166C9.76084 732.178 9.48833 733.737 9.48833 735.842ZM12.5698 742.056C13.5481 742.056 14.3097 741.551 14.8547 740.539C15.3997 739.514 15.6722 737.948 15.6722 735.842C15.6722 734.055 15.4976 732.67 15.1482 731.686L10.4945 740.976C10.9976 741.696 11.6894 742.056 12.5698 742.056Z" fill="url(#paint29_linear_175_1902)" fill-opacity="0.6"/>
<path d="M13.8276 765.641H16.909V766.743H8.92235V765.641H12.486V753.962L9.09005 755.977L8.5031 755.042L12.6956 752.465H13.8276V765.641Z" fill="url(#paint30_linear_175_1902)" fill-opacity="0.6"/>
<path d="M13.8276 789.392H16.909V790.494H8.92235V789.392H12.486V777.713L9.09005 779.728L8.5031 778.793L12.6956 776.216H13.8276V789.392Z" fill="url(#paint31_linear_175_1902)" fill-opacity="0.6"/>
<path d="M52.7577 623.135H55.8392V624.236H47.8525V623.135H51.4162V611.455L48.0202 613.471L47.4333 612.536L51.6258 609.959H52.7577V623.135Z" fill="url(#paint32_linear_175_1902)" fill-opacity="0.6"/>
<path d="M51.5 633.502C52.9953 633.502 54.1273 634.133 54.8959 635.393C55.6785 636.64 56.0698 638.455 56.0698 640.838C56.0698 643.221 55.6785 645.043 54.8959 646.304C54.1273 647.565 52.9953 648.195 51.5 648.195C50.0187 648.195 48.8867 647.565 48.1041 646.304C47.3215 645.043 46.9302 643.221 46.9302 640.838C46.9302 638.469 47.3215 636.654 48.1041 635.393C48.8867 634.133 50.0187 633.502 51.5 633.502ZM48.4185 640.838C48.4185 642.529 48.5723 643.852 48.8797 644.808L53.5334 635.601C53.0442 634.95 52.3664 634.624 51.5 634.624C50.5357 634.624 49.7811 635.137 49.2361 636.162C48.691 637.174 48.4185 638.732 48.4185 640.838ZM51.5 647.052C52.4782 647.052 53.2399 646.546 53.7849 645.535C54.3299 644.51 54.6024 642.944 54.6024 640.838C54.6024 639.051 54.4277 637.665 54.0784 636.682L49.4247 645.971C49.9278 646.692 50.6196 647.052 51.5 647.052Z" fill="url(#paint33_linear_175_1902)" fill-opacity="0.6"/>
<path d="M52.7577 670.637H55.8392V671.738H47.8525V670.637H51.4162V658.957L48.0202 660.973L47.4333 660.038L51.6258 657.461H52.7577V670.637Z" fill="url(#paint34_linear_175_1902)" fill-opacity="0.6"/>
<path d="M52.7577 694.388H55.8392V695.489H47.8525V694.388H51.4162V682.708L48.0202 684.724L47.4333 683.789L51.6258 681.212H52.7577V694.388Z" fill="url(#paint35_linear_175_1902)" fill-opacity="0.6"/>
<path d="M51.5 704.755C52.9953 704.755 54.1273 705.386 54.8959 706.646C55.6785 707.893 56.0698 709.708 56.0698 712.091C56.0698 714.474 55.6785 716.296 54.8959 717.557C54.1273 718.818 52.9953 719.448 51.5 719.448C50.0187 719.448 48.8867 718.818 48.1041 717.557C47.3215 716.296 46.9302 714.474 46.9302 712.091C46.9302 709.722 47.3215 707.907 48.1041 706.646C48.8867 705.386 50.0187 704.755 51.5 704.755ZM48.4185 712.091C48.4185 713.782 48.5723 715.105 48.8797 716.061L53.5334 706.854C53.0442 706.203 52.3664 705.878 51.5 705.878C50.5357 705.878 49.7811 706.39 49.2361 707.415C48.691 708.427 48.4185 709.985 48.4185 712.091ZM51.5 718.305C52.4782 718.305 53.2399 717.8 53.7849 716.788C54.3299 715.763 54.6024 714.197 54.6024 712.091C54.6024 710.304 54.4277 708.919 54.0784 707.935L49.4247 717.225C49.9278 717.945 50.6196 718.305 51.5 718.305Z" fill="url(#paint36_linear_175_1902)" fill-opacity="0.6"/>
<path d="M52.7577 741.89H55.8392V742.992H47.8525V741.89H51.4162V730.21L48.0202 732.226L47.4333 731.291L51.6258 728.714H52.7577V741.89Z" fill="url(#paint37_linear_175_1902)" fill-opacity="0.6"/>
<path d="M52.7577 765.641H55.8392V766.743H47.8525V765.641H51.4162V753.962L48.0202 755.977L47.4333 755.042L51.6258 752.465H52.7577V765.641Z" fill="url(#paint38_linear_175_1902)" fill-opacity="0.6"/>
<path d="M51.5 776.008C52.9953 776.008 54.1273 776.639 54.8959 777.9C55.6785 779.147 56.0698 780.962 56.0698 783.345C56.0698 785.728 55.6785 787.549 54.8959 788.81C54.1273 790.071 52.9953 790.701 51.5 790.701C50.0187 790.701 48.8867 790.071 48.1041 788.81C47.3215 787.549 46.9302 785.728 46.9302 783.345C46.9302 780.975 47.3215 779.16 48.1041 777.9C48.8867 776.639 50.0187 776.008 51.5 776.008ZM48.4185 783.345C48.4185 785.035 48.5723 786.358 48.8797 787.314L53.5334 778.107C53.0442 777.456 52.3664 777.131 51.5 777.131C50.5357 777.131 49.7811 777.643 49.2361 778.669C48.691 779.68 48.4185 781.239 48.4185 783.345ZM51.5 789.558C52.4782 789.558 53.2399 789.053 53.7849 788.041C54.3299 787.016 54.6024 785.451 54.6024 783.345C54.6024 781.557 54.4277 780.172 54.0784 779.188L49.4247 788.478C49.9278 789.198 50.6196 789.558 51.5 789.558Z" fill="url(#paint39_linear_175_1902)" fill-opacity="0.6"/>
<path d="M52.7577 813.143H55.8392V814.245H47.8525V813.143H51.4162V801.464L48.0202 803.48L47.4333 802.544L51.6258 799.967H52.7577V813.143Z" fill="url(#paint40_linear_175_1902)" fill-opacity="0.6"/>
<path d="M51.5 823.511C52.9953 823.511 54.1273 824.141 54.8959 825.402C55.6785 826.649 56.0698 828.464 56.0698 830.847C56.0698 833.23 55.6785 835.052 54.8959 836.312C54.1273 837.573 52.9953 838.204 51.5 838.204C50.0187 838.204 48.8867 837.573 48.1041 836.312C47.3215 835.052 46.9302 833.23 46.9302 830.847C46.9302 828.478 47.3215 826.663 48.1041 825.402C48.8867 824.141 50.0187 823.511 51.5 823.511ZM48.4185 830.847C48.4185 832.537 48.5723 833.86 48.8797 834.816L53.5334 825.61C53.0442 824.958 52.3664 824.633 51.5 824.633C50.5357 824.633 49.7811 825.145 49.2361 826.171C48.691 827.182 48.4185 828.741 48.4185 830.847ZM51.5 837.061C52.4782 837.061 53.2399 836.555 53.7849 835.543C54.3299 834.518 54.6024 832.953 54.6024 830.847C54.6024 829.059 54.4277 827.674 54.0784 826.69L49.4247 835.98C49.9278 836.7 50.6196 837.061 51.5 837.061Z" fill="url(#paint41_linear_175_1902)" fill-opacity="0.6"/>
<path d="M90.4302 609.751C91.9255 609.751 93.0575 610.381 93.8261 611.642C94.6087 612.889 95 614.704 95 617.087C95 619.47 94.6087 621.292 93.8261 622.553C93.0575 623.814 91.9255 624.444 90.4302 624.444C88.9489 624.444 87.8169 623.814 87.0343 622.553C86.2517 621.292 85.8604 619.47 85.8604 617.087C85.8604 614.718 86.2517 612.903 87.0343 611.642C87.8169 610.381 88.9489 609.751 90.4302 609.751ZM87.3487 617.087C87.3487 618.777 87.5024 620.101 87.8099 621.057L92.4636 611.85C91.9744 611.199 91.2966 610.873 90.4302 610.873C89.4659 610.873 88.7113 611.386 88.1663 612.411C87.6212 613.423 87.3487 614.981 87.3487 617.087ZM90.4302 623.301C91.4084 623.301 92.1701 622.795 92.7151 621.784C93.2601 620.759 93.5326 619.193 93.5326 617.087C93.5326 615.3 93.3579 613.914 93.0086 612.931L88.3549 622.22C88.858 622.941 89.5498 623.301 90.4302 623.301Z" fill="url(#paint42_linear_175_1902)" fill-opacity="0.6"/>
<path d="M91.6879 646.886H94.7694V647.987H86.7827V646.886H90.3463V635.206L86.9504 637.222L86.3635 636.287L90.556 633.71H91.6879V646.886Z" fill="url(#paint43_linear_175_1902)" fill-opacity="0.6"/>
<path d="M91.6879 670.637H94.7694V671.738H86.7827V670.637H90.3463V658.957L86.9504 660.973L86.3635 660.038L90.556 657.461H91.6879V670.637Z" fill="url(#paint44_linear_175_1902)" fill-opacity="0.6"/>
<path d="M90.4302 681.004C91.9255 681.004 93.0575 681.635 93.8261 682.895C94.6087 684.142 95 685.957 95 688.34C95 690.723 94.6087 692.545 93.8261 693.806C93.0575 695.067 91.9255 695.697 90.4302 695.697C88.9489 695.697 87.8169 695.067 87.0343 693.806C86.2517 692.545 85.8604 690.723 85.8604 688.34C85.8604 685.971 86.2517 684.156 87.0343 682.895C87.8169 681.635 88.9489 681.004 90.4302 681.004ZM87.3487 688.34C87.3487 690.031 87.5024 691.354 87.8099 692.31L92.4636 683.103C91.9744 682.452 91.2966 682.126 90.4302 682.126C89.4659 682.126 88.7113 682.639 88.1663 683.664C87.6212 684.676 87.3487 686.234 87.3487 688.34ZM90.4302 694.554C91.4084 694.554 92.1701 694.049 92.7151 693.037C93.2601 692.012 93.5326 690.446 93.5326 688.34C93.5326 686.553 93.3579 685.168 93.0086 684.184L88.3549 693.474C88.858 694.194 89.5498 694.554 90.4302 694.554Z" fill="url(#paint45_linear_175_1902)" fill-opacity="0.6"/>
<path d="M90.4302 704.755C91.9255 704.755 93.0575 705.386 93.8261 706.646C94.6087 707.893 95 709.708 95 712.091C95 714.474 94.6087 716.296 93.8261 717.557C93.0575 718.818 91.9255 719.448 90.4302 719.448C88.9489 719.448 87.8169 718.818 87.0343 717.557C86.2517 716.296 85.8604 714.474 85.8604 712.091C85.8604 709.722 86.2517 707.907 87.0343 706.646C87.8169 705.386 88.9489 704.755 90.4302 704.755ZM87.3487 712.091C87.3487 713.782 87.5024 715.105 87.8099 716.061L92.4636 706.854C91.9744 706.203 91.2966 705.878 90.4302 705.878C89.4659 705.878 88.7113 706.39 88.1663 707.415C87.6212 708.427 87.3487 709.985 87.3487 712.091ZM90.4302 718.305C91.4084 718.305 92.1701 717.8 92.7151 716.788C93.2601 715.763 93.5326 714.197 93.5326 712.091C93.5326 710.304 93.3579 708.919 93.0086 707.935L88.3549 717.225C88.858 717.945 89.5498 718.305 90.4302 718.305Z" fill="url(#paint46_linear_175_1902)" fill-opacity="0.6"/>
<g opacity="0.6">
<path d="M918.93 286C920.356 286 921.436 286.605 922.17 287.815C922.916 289.011 923.29 290.753 923.29 293.04C923.29 295.327 922.916 297.075 922.17 298.285C921.436 299.495 920.356 300.1 918.93 300.1C917.517 300.1 916.437 299.495 915.69 298.285C914.943 297.075 914.57 295.327 914.57 293.04C914.57 290.767 914.943 289.025 915.69 287.815C916.437 286.605 917.517 286 918.93 286ZM915.99 293.04C915.99 294.662 916.137 295.932 916.43 296.849L920.87 288.014C920.403 287.389 919.756 287.077 918.93 287.077C918.01 287.077 917.29 287.569 916.77 288.553C916.25 289.523 915.99 291.019 915.99 293.04ZM918.93 299.003C919.863 299.003 920.59 298.518 921.11 297.547C921.63 296.564 921.89 295.061 921.89 293.04C921.89 291.325 921.723 289.995 921.39 289.051L916.95 297.966C917.43 298.658 918.09 299.003 918.93 299.003Z" fill="url(#paint47_linear_175_1902)"/>
<path d="M920.13 321.637H923.07V322.694H915.45V321.637H918.85V310.428L915.61 312.363L915.05 311.465L919.05 308.992H920.13V321.637Z" fill="url(#paint48_linear_175_1902)"/>
<path d="M918.93 331.586C920.356 331.586 921.436 332.191 922.17 333.4C922.916 334.597 923.29 336.339 923.29 338.626C923.29 340.913 922.916 342.661 922.17 343.871C921.436 345.081 920.356 345.686 918.93 345.686C917.517 345.686 916.437 345.081 915.69 343.871C914.943 342.661 914.57 340.913 914.57 338.626C914.57 336.352 914.943 334.61 915.69 333.4C916.437 332.191 917.517 331.586 918.93 331.586ZM915.99 338.626C915.99 340.248 916.137 341.518 916.43 342.435L920.87 333.6C920.403 332.975 919.756 332.663 918.93 332.663C918.01 332.663 917.29 333.155 916.77 334.138C916.25 335.109 915.99 336.605 915.99 338.626ZM918.93 344.589C919.863 344.589 920.59 344.104 921.11 343.133C921.63 342.149 921.89 340.647 921.89 338.626C921.89 336.911 921.723 335.581 921.39 334.637L916.95 343.552C917.43 344.243 918.09 344.589 918.93 344.589Z" fill="url(#paint49_linear_175_1902)"/>
<path d="M920.13 367.222H923.07V368.279H915.45V367.222H918.85V356.014L915.61 357.948L915.05 357.051L919.05 354.578H920.13V367.222Z" fill="url(#paint50_linear_175_1902)"/>
<path d="M920.13 390.015H923.07V391.072H915.45V390.015H918.85V378.807L915.61 380.741L915.05 379.844L919.05 377.371H920.13V390.015Z" fill="url(#paint51_linear_175_1902)"/>
<path d="M918.93 399.964C920.356 399.964 921.436 400.569 922.17 401.779C922.916 402.976 923.29 404.717 923.29 407.004C923.29 409.291 922.916 411.039 922.17 412.249C921.436 413.459 920.356 414.064 918.93 414.064C917.517 414.064 916.437 413.459 915.69 412.249C914.943 411.039 914.57 409.291 914.57 407.004C914.57 404.731 914.943 402.989 915.69 401.779C916.437 400.569 917.517 399.964 918.93 399.964ZM915.99 407.004C915.99 408.626 916.137 409.896 916.43 410.813L920.87 401.978C920.403 401.353 919.756 401.041 918.93 401.041C918.01 401.041 917.29 401.533 916.77 402.517C916.25 403.487 915.99 404.983 915.99 407.004ZM918.93 412.967C919.863 412.967 920.59 412.482 921.11 411.511C921.63 410.528 921.89 409.025 921.89 407.004C921.89 405.289 921.723 403.959 921.39 403.015L916.95 411.93C917.43 412.622 918.09 412.967 918.93 412.967Z" fill="url(#paint52_linear_175_1902)"/>
<path d="M920.13 435.601H923.07V436.658H915.45V435.601H918.85V424.392L915.61 426.327L915.05 425.429L919.05 422.956H920.13V435.601Z" fill="url(#paint53_linear_175_1902)"/>
<path d="M918.93 445.55C920.356 445.55 921.436 446.155 922.17 447.365C922.916 448.561 923.29 450.303 923.29 452.59C923.29 454.877 922.916 456.625 922.17 457.835C921.436 459.045 920.356 459.65 918.93 459.65C917.517 459.65 916.437 459.045 915.69 457.835C914.943 456.625 914.57 454.877 914.57 452.59C914.57 450.316 914.943 448.574 915.69 447.365C916.437 446.155 917.517 445.55 918.93 445.55ZM915.99 452.59C915.99 454.212 916.137 455.482 916.43 456.399L920.87 447.564C920.403 446.939 919.756 446.627 918.93 446.627C918.01 446.627 917.29 447.119 916.77 448.102C916.25 449.073 915.99 450.569 915.99 452.59ZM918.93 458.553C919.863 458.553 920.59 458.068 921.11 457.097C921.63 456.113 921.89 454.611 921.89 452.59C921.89 450.875 921.723 449.545 921.39 448.601L916.95 457.516C917.43 458.207 918.09 458.553 918.93 458.553Z" fill="url(#paint54_linear_175_1902)"/>
<path d="M918.93 468.342C920.356 468.342 921.436 468.947 922.17 470.157C922.916 471.354 923.29 473.096 923.29 475.383C923.29 477.669 922.916 479.418 922.17 480.628C921.436 481.838 920.356 482.443 918.93 482.443C917.517 482.443 916.437 481.838 915.69 480.628C914.943 479.418 914.57 477.669 914.57 475.383C914.57 473.109 914.943 471.367 915.69 470.157C916.437 468.947 917.517 468.342 918.93 468.342ZM915.99 475.383C915.99 477.005 916.137 478.274 916.43 479.192L920.87 470.357C920.403 469.732 919.756 469.419 918.93 469.419C918.01 469.419 917.29 469.911 916.77 470.895C916.25 471.866 915.99 473.362 915.99 475.383ZM918.93 481.346C919.863 481.346 920.59 480.86 921.11 479.89C921.63 478.906 921.89 477.404 921.89 475.383C921.89 473.667 921.723 472.338 921.39 471.394L916.95 480.309C917.43 481 918.09 481.346 918.93 481.346Z" fill="url(#paint55_linear_175_1902)"/>
<path d="M920.13 503.979H923.07V505.036H915.45V503.979H918.85V492.771L915.61 494.705L915.05 493.808L919.05 491.335H920.13V503.979Z" fill="url(#paint56_linear_175_1902)"/>
<path d="M918.93 513.928C920.356 513.928 921.436 514.533 922.17 515.743C922.916 516.94 923.29 518.681 923.29 520.968C923.29 523.255 922.916 525.003 922.17 526.213C921.436 527.423 920.356 528.028 918.93 528.028C917.517 528.028 916.437 527.423 915.69 526.213C914.943 525.003 914.57 523.255 914.57 520.968C914.57 518.695 914.943 516.953 915.69 515.743C916.437 514.533 917.517 513.928 918.93 513.928ZM915.99 520.968C915.99 522.59 916.137 523.86 916.43 524.777L920.87 515.942C920.403 515.317 919.756 515.005 918.93 515.005C918.01 515.005 917.29 515.497 916.77 516.481C916.25 517.451 915.99 518.947 915.99 520.968ZM918.93 526.931C919.863 526.931 920.59 526.446 921.11 525.475C921.63 524.492 921.89 522.989 921.89 520.968C921.89 519.253 921.723 517.923 921.39 516.979L916.95 525.894C917.43 526.586 918.09 526.931 918.93 526.931Z" fill="url(#paint57_linear_175_1902)"/>
<path d="M920.13 549.565H923.07V550.622H915.45V549.565H918.85V538.356L915.61 540.291L915.05 539.393L919.05 536.92H920.13V549.565Z" fill="url(#paint58_linear_175_1902)"/>
<path d="M920.13 572.357H923.07V573.414H915.45V572.357H918.85V561.149L915.61 563.084L915.05 562.186L919.05 559.713H920.13V572.357Z" fill="url(#paint59_linear_175_1902)"/>
<path d="M956.07 331.586C957.497 331.586 958.577 332.191 959.31 333.4C960.057 334.597 960.43 336.339 960.43 338.626C960.43 340.913 960.057 342.661 959.31 343.871C958.577 345.081 957.497 345.686 956.07 345.686C954.657 345.686 953.577 345.081 952.83 343.871C952.084 342.661 951.71 340.913 951.71 338.626C951.71 336.352 952.084 334.61 952.83 333.4C953.577 332.191 954.657 331.586 956.07 331.586ZM953.13 338.626C953.13 340.248 953.277 341.518 953.57 342.435L958.01 333.6C957.543 332.975 956.897 332.663 956.07 332.663C955.15 332.663 954.43 333.155 953.91 334.138C953.39 335.109 953.13 336.605 953.13 338.626ZM956.07 344.589C957.003 344.589 957.73 344.104 958.25 343.133C958.77 342.149 959.03 340.647 959.03 338.626C959.03 336.911 958.863 335.581 958.53 334.637L954.09 343.552C954.57 344.243 955.23 344.589 956.07 344.589Z" fill="url(#paint60_linear_175_1902)"/>
<path d="M957.27 367.222H960.21V368.279H952.59V367.222H955.99V356.014L952.75 357.948L952.19 357.051L956.19 354.578H957.27V367.222Z" fill="url(#paint61_linear_175_1902)"/>
<path d="M956.07 377.171C957.497 377.171 958.577 377.776 959.31 378.986C960.057 380.183 960.43 381.924 960.43 384.211C960.43 386.498 960.057 388.247 959.31 389.457C958.577 390.666 957.497 391.271 956.07 391.271C954.657 391.271 953.577 390.666 952.83 389.457C952.084 388.247 951.71 386.498 951.71 384.211C951.71 381.938 952.084 380.196 952.83 378.986C953.577 377.776 954.657 377.171 956.07 377.171ZM953.13 384.211C953.13 385.833 953.277 387.103 953.57 388.021L958.01 379.186C957.543 378.561 956.897 378.248 956.07 378.248C955.15 378.248 954.43 378.74 953.91 379.724C953.39 380.695 953.13 382.19 953.13 384.211ZM956.07 390.174C957.003 390.174 957.73 389.689 958.25 388.719C958.77 387.735 959.03 386.232 959.03 384.211C959.03 382.496 958.863 381.167 958.53 380.223L954.09 389.137C954.57 389.829 955.23 390.174 956.07 390.174Z" fill="url(#paint62_linear_175_1902)"/>
<path d="M956.07 399.964C957.497 399.964 958.577 400.569 959.31 401.779C960.057 402.976 960.43 404.717 960.43 407.004C960.43 409.291 960.057 411.039 959.31 412.249C958.577 413.459 957.497 414.064 956.07 414.064C954.657 414.064 953.577 413.459 952.83 412.249C952.084 411.039 951.71 409.291 951.71 407.004C951.71 404.731 952.084 402.989 952.83 401.779C953.577 400.569 954.657 399.964 956.07 399.964ZM953.13 407.004C953.13 408.626 953.277 409.896 953.57 410.813L958.01 401.978C957.543 401.353 956.897 401.041 956.07 401.041C955.15 401.041 954.43 401.533 953.91 402.517C953.39 403.487 953.13 404.983 953.13 407.004ZM956.07 412.967C957.003 412.967 957.73 412.482 958.25 411.511C958.77 410.528 959.03 409.025 959.03 407.004C959.03 405.289 958.863 403.959 958.53 403.015L954.09 411.93C954.57 412.622 955.23 412.967 956.07 412.967Z" fill="url(#paint63_linear_175_1902)"/>
<path d="M957.27 435.601H960.21V436.658H952.59V435.601H955.99V424.392L952.75 426.327L952.19 425.429L956.19 422.956H957.27V435.601Z" fill="url(#paint64_linear_175_1902)"/>
<path d="M956.07 445.55C957.497 445.55 958.577 446.155 959.31 447.365C960.057 448.561 960.43 450.303 960.43 452.59C960.43 454.877 960.057 456.625 959.31 457.835C958.577 459.045 957.497 459.65 956.07 459.65C954.657 459.65 953.577 459.045 952.83 457.835C952.084 456.625 951.71 454.877 951.71 452.59C951.71 450.316 952.084 448.574 952.83 447.365C953.577 446.155 954.657 445.55 956.07 445.55ZM953.13 452.59C953.13 454.212 953.277 455.482 953.57 456.399L958.01 447.564C957.543 446.939 956.897 446.627 956.07 446.627C955.15 446.627 954.43 447.119 953.91 448.102C953.39 449.073 953.13 450.569 953.13 452.59ZM956.07 458.553C957.003 458.553 957.73 458.068 958.25 457.097C958.77 456.113 959.03 454.611 959.03 452.59C959.03 450.875 958.863 449.545 958.53 448.601L954.09 457.516C954.57 458.207 955.23 458.553 956.07 458.553Z" fill="url(#paint65_linear_175_1902)"/>
<path d="M957.27 481.186H960.21V482.243H952.59V481.186H955.99V469.978L952.75 471.912L952.19 471.015L956.19 468.542H957.27V481.186Z" fill="url(#paint66_linear_175_1902)"/>
<path d="M956.07 491.135C957.497 491.135 958.577 491.74 959.31 492.95C960.057 494.147 960.43 495.888 960.43 498.175C960.43 500.462 960.057 502.211 959.31 503.421C958.577 504.63 957.497 505.235 956.07 505.235C954.657 505.235 953.577 504.63 952.83 503.421C952.084 502.211 951.71 500.462 951.71 498.175C951.71 495.902 952.084 494.16 952.83 492.95C953.577 491.74 954.657 491.135 956.07 491.135ZM953.13 498.175C953.13 499.797 953.277 501.067 953.57 501.985L958.01 493.15C957.543 492.525 956.897 492.212 956.07 492.212C955.15 492.212 954.43 492.704 953.91 493.688C953.39 494.659 953.13 496.154 953.13 498.175ZM956.07 504.139C957.003 504.139 957.73 503.653 958.25 502.683C958.77 501.699 959.03 500.196 959.03 498.175C959.03 496.46 958.863 495.131 958.53 494.187L954.09 503.101C954.57 503.793 955.23 504.139 956.07 504.139Z" fill="url(#paint67_linear_175_1902)"/>
<path d="M956.07 513.928C957.497 513.928 958.577 514.533 959.31 515.743C960.057 516.94 960.43 518.681 960.43 520.968C960.43 523.255 960.057 525.003 959.31 526.213C958.577 527.423 957.497 528.028 956.07 528.028C954.657 528.028 953.577 527.423 952.83 526.213C952.084 525.003 951.71 523.255 951.71 520.968C951.71 518.695 952.084 516.953 952.83 515.743C953.577 514.533 954.657 513.928 956.07 513.928ZM953.13 520.968C953.13 522.59 953.277 523.86 953.57 524.777L958.01 515.942C957.543 515.317 956.897 515.005 956.07 515.005C955.15 515.005 954.43 515.497 953.91 516.481C953.39 517.451 953.13 518.947 953.13 520.968ZM956.07 526.931C957.003 526.931 957.73 526.446 958.25 525.475C958.77 524.492 959.03 522.989 959.03 520.968C959.03 519.253 958.863 517.923 958.53 516.979L954.09 525.894C954.57 526.586 955.23 526.931 956.07 526.931Z" fill="url(#paint68_linear_175_1902)"/>
<path d="M957.27 549.565H960.21V550.622H952.59V549.565H955.99V538.356L952.75 540.291L952.19 539.393L956.19 536.92H957.27V549.565Z" fill="url(#paint69_linear_175_1902)"/>
<path d="M956.07 559.514C957.497 559.514 958.577 560.119 959.31 561.329C960.057 562.525 960.43 564.267 960.43 566.554C960.43 568.841 960.057 570.589 959.31 571.799C958.577 573.009 957.497 573.614 956.07 573.614C954.657 573.614 953.577 573.009 952.83 571.799C952.084 570.589 951.71 568.841 951.71 566.554C951.71 564.28 952.084 562.538 952.83 561.329C953.577 560.119 954.657 559.514 956.07 559.514ZM953.13 566.554C953.13 568.176 953.277 569.446 953.57 570.363L958.01 561.528C957.543 560.903 956.897 560.591 956.07 560.591C955.15 560.591 954.43 561.083 953.91 562.066C953.39 563.037 953.13 564.533 953.13 566.554ZM956.07 572.517C957.003 572.517 957.73 572.032 958.25 571.061C958.77 570.077 959.03 568.575 959.03 566.554C959.03 564.839 958.863 563.509 958.53 562.565L954.09 571.48C954.57 572.171 955.23 572.517 956.07 572.517Z" fill="url(#paint70_linear_175_1902)"/>
<path d="M957.27 595.15H960.21V596.207H952.59V595.15H955.99V583.942L952.75 585.876L952.19 584.979L956.19 582.506H957.27V595.15Z" fill="url(#paint71_linear_175_1902)"/>
<path d="M957.27 617.943H960.21V619H952.59V617.943H955.99V606.735L952.75 608.669L952.19 607.772L956.19 605.299H957.27V617.943Z" fill="url(#paint72_linear_175_1902)"/>
<path d="M900.36 354.378C901.786 354.378 902.866 354.983 903.599 356.193C904.346 357.39 904.719 359.132 904.719 361.419C904.719 363.705 904.346 365.454 903.599 366.664C902.866 367.874 901.786 368.479 900.36 368.479C898.946 368.479 897.867 367.874 897.12 366.664C896.373 365.454 896 363.705 896 361.419C896 359.145 896.373 357.403 897.12 356.193C897.867 354.983 898.946 354.378 900.36 354.378ZM897.42 361.419C897.42 363.041 897.567 364.31 897.86 365.228L902.3 356.393C901.833 355.768 901.186 355.455 900.36 355.455C899.44 355.455 898.72 355.947 898.2 356.931C897.68 357.902 897.42 359.398 897.42 361.419ZM900.36 367.382C901.293 367.382 902.02 366.896 902.54 365.926C903.06 364.942 903.319 363.44 903.319 361.419C903.319 359.703 903.153 358.374 902.82 357.43L898.38 366.345C898.86 367.036 899.52 367.382 900.36 367.382Z" fill="url(#paint73_linear_175_1902)"/>
<path d="M900.36 377.171C901.786 377.171 902.866 377.776 903.599 378.986C904.346 380.183 904.719 381.924 904.719 384.211C904.719 386.498 904.346 388.247 903.599 389.457C902.866 390.666 901.786 391.271 900.36 391.271C898.946 391.271 897.867 390.666 897.12 389.457C896.373 388.247 896 386.498 896 384.211C896 381.938 896.373 380.196 897.12 378.986C897.867 377.776 898.946 377.171 900.36 377.171ZM897.42 384.211C897.42 385.833 897.567 387.103 897.86 388.021L902.3 379.186C901.833 378.561 901.186 378.248 900.36 378.248C899.44 378.248 898.72 378.74 898.2 379.724C897.68 380.695 897.42 382.19 897.42 384.211ZM900.36 390.174C901.293 390.174 902.02 389.689 902.54 388.719C903.06 387.735 903.319 386.232 903.319 384.211C903.319 382.496 903.153 381.167 902.82 380.223L898.38 389.137C898.86 389.829 899.52 390.174 900.36 390.174Z" fill="url(#paint74_linear_175_1902)"/>
<path d="M901.56 412.808H904.499V413.865H896.88V412.808H900.28V401.599L897.04 403.534L896.48 402.636L900.48 400.163H901.56V412.808Z" fill="url(#paint75_linear_175_1902)"/>
<path d="M900.36 422.757C901.786 422.757 902.866 423.362 903.599 424.572C904.346 425.768 904.719 427.51 904.719 429.797C904.719 432.084 904.346 433.832 903.599 435.042C902.866 436.252 901.786 436.857 900.36 436.857C898.946 436.857 897.867 436.252 897.12 435.042C896.373 433.832 896 432.084 896 429.797C896 427.523 896.373 425.782 897.12 424.572C897.867 423.362 898.946 422.757 900.36 422.757ZM897.42 429.797C897.42 431.419 897.567 432.689 897.86 433.606L902.3 424.771C901.833 424.146 901.186 423.834 900.36 423.834C899.44 423.834 898.72 424.326 898.2 425.31C897.68 426.28 897.42 427.776 897.42 429.797ZM900.36 435.76C901.293 435.76 902.02 435.275 902.54 434.304C903.06 433.32 903.319 431.818 903.319 429.797C903.319 428.082 903.153 426.752 902.82 425.808L898.38 434.723C898.86 435.414 899.52 435.76 900.36 435.76Z" fill="url(#paint76_linear_175_1902)"/>
<path d="M901.56 458.393H904.499V459.45H896.88V458.393H900.28V447.185L897.04 449.12L896.48 448.222L900.48 445.749H901.56V458.393Z" fill="url(#paint77_linear_175_1902)"/>
<path d="M901.56 481.186H904.499V482.243H896.88V481.186H900.28V469.978L897.04 471.912L896.48 471.015L900.48 468.542H901.56V481.186Z" fill="url(#paint78_linear_175_1902)"/>
<path d="M938.7 321.637H941.64V322.694H934.02V321.637H937.42V310.428L934.18 312.363L933.62 311.465L937.62 308.992H938.7V321.637Z" fill="url(#paint79_linear_175_1902)"/>
<path d="M937.5 331.586C938.927 331.586 940.006 332.191 940.74 333.4C941.486 334.597 941.86 336.339 941.86 338.626C941.86 340.913 941.486 342.661 940.74 343.871C940.006 345.081 938.927 345.686 937.5 345.686C936.087 345.686 935.007 345.081 934.26 343.871C933.514 342.661 933.14 340.913 933.14 338.626C933.14 336.352 933.514 334.61 934.26 333.4C935.007 332.191 936.087 331.586 937.5 331.586ZM934.56 338.626C934.56 340.248 934.707 341.518 935 342.435L939.44 333.6C938.973 332.975 938.327 332.663 937.5 332.663C936.58 332.663 935.86 333.155 935.34 334.138C934.82 335.109 934.56 336.605 934.56 338.626ZM937.5 344.589C938.433 344.589 939.16 344.104 939.68 343.133C940.2 342.149 940.46 340.647 940.46 338.626C940.46 336.911 940.293 335.581 939.96 334.637L935.52 343.552C936 344.243 936.66 344.589 937.5 344.589Z" fill="url(#paint80_linear_175_1902)"/>
<path d="M938.7 367.222H941.64V368.279H934.02V367.222H937.42V356.014L934.18 357.948L933.62 357.051L937.62 354.578H938.7V367.222Z" fill="url(#paint81_linear_175_1902)"/>
<path d="M938.7 390.015H941.64V391.072H934.02V390.015H937.42V378.807L934.18 380.741L933.62 379.844L937.62 377.371H938.7V390.015Z" fill="url(#paint82_linear_175_1902)"/>
<path d="M937.5 399.964C938.927 399.964 940.006 400.569 940.74 401.779C941.486 402.976 941.86 404.717 941.86 407.004C941.86 409.291 941.486 411.039 940.74 412.249C940.006 413.459 938.927 414.064 937.5 414.064C936.087 414.064 935.007 413.459 934.26 412.249C933.514 411.039 933.14 409.291 933.14 407.004C933.14 404.731 933.514 402.989 934.26 401.779C935.007 400.569 936.087 399.964 937.5 399.964ZM934.56 407.004C934.56 408.626 934.707 409.896 935 410.813L939.44 401.978C938.973 401.353 938.327 401.041 937.5 401.041C936.58 401.041 935.86 401.533 935.34 402.517C934.82 403.487 934.56 404.983 934.56 407.004ZM937.5 412.967C938.433 412.967 939.16 412.482 939.68 411.511C940.2 410.528 940.46 409.025 940.46 407.004C940.46 405.289 940.293 403.959 939.96 403.015L935.52 411.93C936 412.622 936.66 412.967 937.5 412.967Z" fill="url(#paint83_linear_175_1902)"/>
<path d="M938.7 435.601H941.64V436.658H934.02V435.601H937.42V424.392L934.18 426.327L933.62 425.429L937.62 422.956H938.7V435.601Z" fill="url(#paint84_linear_175_1902)"/>
<path d="M938.7 458.393H941.64V459.45H934.02V458.393H937.42V447.185L934.18 449.12L933.62 448.222L937.62 445.749H938.7V458.393Z" fill="url(#paint85_linear_175_1902)"/>
<path d="M937.5 468.342C938.927 468.342 940.006 468.947 940.74 470.157C941.486 471.354 941.86 473.096 941.86 475.383C941.86 477.669 941.486 479.418 940.74 480.628C940.006 481.838 938.927 482.443 937.5 482.443C936.087 482.443 935.007 481.838 934.26 480.628C933.514 479.418 933.14 477.669 933.14 475.383C933.14 473.109 933.514 471.367 934.26 470.157C935.007 468.947 936.087 468.342 937.5 468.342ZM934.56 475.383C934.56 477.005 934.707 478.274 935 479.192L939.44 470.357C938.973 469.732 938.327 469.419 937.5 469.419C936.58 469.419 935.86 469.911 935.34 470.895C934.82 471.866 934.56 473.362 934.56 475.383ZM937.5 481.346C938.433 481.346 939.16 480.86 939.68 479.89C940.2 478.906 940.46 477.404 940.46 475.383C940.46 473.667 940.293 472.338 939.96 471.394L935.52 480.309C936 481 936.66 481.346 937.5 481.346Z" fill="url(#paint86_linear_175_1902)"/>
<path d="M938.7 503.979H941.64V505.036H934.02V503.979H937.42V492.771L934.18 494.705L933.62 493.808L937.62 491.335H938.7V503.979Z" fill="url(#paint87_linear_175_1902)"/>
<path d="M937.5 513.928C938.927 513.928 940.006 514.533 940.74 515.743C941.486 516.94 941.86 518.681 941.86 520.968C941.86 523.255 941.486 525.003 940.74 526.213C940.006 527.423 938.927 528.028 937.5 528.028C936.087 528.028 935.007 527.423 934.26 526.213C933.514 525.003 933.14 523.255 933.14 520.968C933.14 518.695 933.514 516.953 934.26 515.743C935.007 514.533 936.087 513.928 937.5 513.928ZM934.56 520.968C934.56 522.59 934.707 523.86 935 524.777L939.44 515.942C938.973 515.317 938.327 515.005 937.5 515.005C936.58 515.005 935.86 515.497 935.34 516.481C934.82 517.451 934.56 518.947 934.56 520.968ZM937.5 526.931C938.433 526.931 939.16 526.446 939.68 525.475C940.2 524.492 940.46 522.989 940.46 520.968C940.46 519.253 940.293 517.923 939.96 516.979L935.52 525.894C936 526.586 936.66 526.931 937.5 526.931Z" fill="url(#paint88_linear_175_1902)"/>
<path d="M974.64 308.793C976.067 308.793 977.147 309.398 977.88 310.608C978.627 311.804 979 313.546 979 315.833C979 318.12 978.627 319.868 977.88 321.078C977.147 322.288 976.067 322.893 974.64 322.893C973.227 322.893 972.147 322.288 971.401 321.078C970.654 319.868 970.281 318.12 970.281 315.833C970.281 313.559 970.654 311.818 971.401 310.608C972.147 309.398 973.227 308.793 974.64 308.793ZM971.7 315.833C971.7 317.455 971.847 318.725 972.14 319.642L976.58 310.807C976.114 310.182 975.467 309.87 974.64 309.87C973.72 309.87 973 310.362 972.48 311.346C971.96 312.316 971.7 313.812 971.7 315.833ZM974.64 321.796C975.574 321.796 976.3 321.311 976.82 320.34C977.34 319.356 977.6 317.854 977.6 315.833C977.6 314.118 977.433 312.788 977.1 311.844L972.66 320.759C973.14 321.45 973.8 321.796 974.64 321.796Z" fill="url(#paint89_linear_175_1902)"/>
<path d="M975.84 344.429H978.78V345.486H971.161V344.429H974.56V333.221L971.321 335.156L970.761 334.258L974.76 331.785H975.84V344.429Z" fill="url(#paint90_linear_175_1902)"/>
<path d="M975.84 367.222H978.78V368.279H971.161V367.222H974.56V356.014L971.321 357.948L970.761 357.051L974.76 354.578H975.84V367.222Z" fill="url(#paint91_linear_175_1902)"/>
<path d="M974.64 377.171C976.067 377.171 977.147 377.776 977.88 378.986C978.627 380.183 979 381.924 979 384.211C979 386.498 978.627 388.247 977.88 389.457C977.147 390.666 976.067 391.271 974.64 391.271C973.227 391.271 972.147 390.666 971.401 389.457C970.654 388.247 970.281 386.498 970.281 384.211C970.281 381.938 970.654 380.196 971.401 378.986C972.147 377.776 973.227 377.171 974.64 377.171ZM971.7 384.211C971.7 385.833 971.847 387.103 972.14 388.021L976.58 379.186C976.114 378.561 975.467 378.248 974.64 378.248C973.72 378.248 973 378.74 972.48 379.724C971.96 380.695 971.7 382.19 971.7 384.211ZM974.64 390.174C975.574 390.174 976.3 389.689 976.82 388.719C977.34 387.735 977.6 386.232 977.6 384.211C977.6 382.496 977.433 381.167 977.1 380.223L972.66 389.137C973.14 389.829 973.8 390.174 974.64 390.174Z" fill="url(#paint92_linear_175_1902)"/>
<path d="M974.64 399.964C976.067 399.964 977.147 400.569 977.88 401.779C978.627 402.976 979 404.717 979 407.004C979 409.291 978.627 411.039 977.88 412.249C977.147 413.459 976.067 414.064 974.64 414.064C973.227 414.064 972.147 413.459 971.401 412.249C970.654 411.039 970.281 409.291 970.281 407.004C970.281 404.731 970.654 402.989 971.401 401.779C972.147 400.569 973.227 399.964 974.64 399.964ZM971.7 407.004C971.7 408.626 971.847 409.896 972.14 410.813L976.58 401.978C976.114 401.353 975.467 401.041 974.64 401.041C973.72 401.041 973 401.533 972.48 402.517C971.96 403.487 971.7 404.983 971.7 407.004ZM974.64 412.967C975.574 412.967 976.3 412.482 976.82 411.511C977.34 410.528 977.6 409.025 977.6 407.004C977.6 405.289 977.433 403.959 977.1 403.015L972.66 411.93C973.14 412.622 973.8 412.967 974.64 412.967Z" fill="url(#paint93_linear_175_1902)"/>
</g>
<defs>
<filter id="filter0_f_175_1902" x="-559.19" y="-400.19" width="2141.38" height="1500.38" filterUnits="userSpaceOnUse" color-interpolation-filters="sRGB">
<feFlood flood-opacity="0" result="BackgroundImageFix"/>
<feBlend mode="normal" in="SourceGraphic" in2="BackgroundImageFix" result="shape"/>
<feGaussianBlur stdDeviation="200.095" result="effect1_foregroundBlur_175_1902"/>
</filter>
<linearGradient id="paint0_linear_175_1902" x1="51.5" y1="586" x2="51.5" y2="897.381" gradientUnits="userSpaceOnUse">
<stop stop-color="#F7DD43"/>
<stop offset="1" stop-color="#F7DD43" stop-opacity="0"/>
</linearGradient>
<linearGradient id="paint1_linear_175_1902" x1="51.5" y1="586" x2="51.5" y2="897.381" gradientUnits="userSpaceOnUse">
<stop stop-color="#F7DD43"/>
<stop offset="1" stop-color="#F7DD43" stop-opacity="0"/>
</linearGradient>
<linearGradient id="paint2_linear_175_1902" x1="51.5" y1="586" x2="51.5" y2="897.381" gradientUnits="userSpaceOnUse">
<stop stop-color="#F7DD43"/>
<stop offset="1" stop-color="#F7DD43" stop-opacity="0"/>
</linearGradient>
<linearGradient id="paint3_linear_175_1902" x1="51.5" y1="586" x2="51.5" y2="897.381" gradientUnits="userSpaceOnUse">
<stop stop-color="#F7DD43"/>
<stop offset="1" stop-color="#F7DD43" stop-opacity="0"/>
</linearGradient>
<linearGradient id="paint4_linear_175_1902" x1="51.5" y1="586" x2="51.5" y2="897.381" gradientUnits="userSpaceOnUse">
<stop stop-color="#F7DD43"/>
<stop offset="1" stop-color="#F7DD43" stop-opacity="0"/>
</linearGradient>
<linearGradient id="paint5_linear_175_1902" x1="51.5" y1="586" x2="51.5" y2="897.381" gradientUnits="userSpaceOnUse">
<stop stop-color="#F7DD43"/>
<stop offset="1" stop-color="#F7DD43" stop-opacity="0"/>
</linearGradient>
<linearGradient id="paint6_linear_175_1902" x1="51.5" y1="586" x2="51.5" y2="897.381" gradientUnits="userSpaceOnUse">
<stop stop-color="#F7DD43"/>
<stop offset="1" stop-color="#F7DD43" stop-opacity="0"/>
</linearGradient>
<linearGradient id="paint7_linear_175_1902" x1="51.5" y1="586" x2="51.5" y2="897.381" gradientUnits="userSpaceOnUse">
<stop stop-color="#F7DD43"/>
<stop offset="1" stop-color="#F7DD43" stop-opacity="0"/>
</linearGradient>
<linearGradient id="paint8_linear_175_1902" x1="51.5" y1="586" x2="51.5" y2="897.381" gradientUnits="userSpaceOnUse">
<stop stop-color="#F7DD43"/>
<stop offset="1" stop-color="#F7DD43" stop-opacity="0"/>
</linearGradient>
<linearGradient id="paint9_linear_175_1902" x1="51.5" y1="586" x2="51.5" y2="897.381" gradientUnits="userSpaceOnUse">
<stop stop-color="#F7DD43"/>
<stop offset="1" stop-color="#F7DD43" stop-opacity="0"/>
</linearGradient>
<linearGradient id="paint10_linear_175_1902" x1="51.5" y1="586" x2="51.5" y2="897.381" gradientUnits="userSpaceOnUse">
<stop stop-color="#F7DD43"/>
<stop offset="1" stop-color="#F7DD43" stop-opacity="0"/>
</linearGradient>
<linearGradient id="paint11_linear_175_1902" x1="51.5" y1="586" x2="51.5" y2="897.381" gradientUnits="userSpaceOnUse">
<stop stop-color="#F7DD43"/>
<stop offset="1" stop-color="#F7DD43" stop-opacity="0"/>
</linearGradient>
<linearGradient id="paint12_linear_175_1902" x1="51.5" y1="586" x2="51.5" y2="897.381" gradientUnits="userSpaceOnUse">
<stop stop-color="#F7DD43"/>
<stop offset="1" stop-color="#F7DD43" stop-opacity="0"/>
</linearGradient>
<linearGradient id="paint13_linear_175_1902" x1="51.5" y1="586" x2="51.5" y2="897.381" gradientUnits="userSpaceOnUse">
<stop stop-color="#F7DD43"/>
<stop offset="1" stop-color="#F7DD43" stop-opacity="0"/>
</linearGradient>
<linearGradient id="paint14_linear_175_1902" x1="51.5" y1="586" x2="51.5" y2="897.381" gradientUnits="userSpaceOnUse">
<stop stop-color="#F7DD43"/>
<stop offset="1" stop-color="#F7DD43" stop-opacity="0"/>
</linearGradient>
<linearGradient id="paint15_linear_175_1902" x1="51.5" y1="586" x2="51.5" y2="897.381" gradientUnits="userSpaceOnUse">
<stop stop-color="#F7DD43"/>
<stop offset="1" stop-color="#F7DD43" stop-opacity="0"/>
</linearGradient>
<linearGradient id="paint16_linear_175_1902" x1="51.5" y1="586" x2="51.5" y2="897.381" gradientUnits="userSpaceOnUse">
<stop stop-color="#F7DD43"/>
<stop offset="1" stop-color="#F7DD43" stop-opacity="0"/>
</linearGradient>
<linearGradient id="paint17_linear_175_1902" x1="51.5" y1="586" x2="51.5" y2="897.381" gradientUnits="userSpaceOnUse">
<stop stop-color="#F7DD43"/>
<stop offset="1" stop-color="#F7DD43" stop-opacity="0"/>
</linearGradient>
<linearGradient id="paint18_linear_175_1902" x1="51.5" y1="586" x2="51.5" y2="897.381" gradientUnits="userSpaceOnUse">
<stop stop-color="#F7DD43"/>
<stop offset="1" stop-color="#F7DD43" stop-opacity="0"/>
</linearGradient>
<linearGradient id="paint19_linear_175_1902" x1="51.5" y1="586" x2="51.5" y2="897.381" gradientUnits="userSpaceOnUse">
<stop stop-color="#F7DD43"/>
<stop offset="1" stop-color="#F7DD43" stop-opacity="0"/>
</linearGradient>
<linearGradient id="paint20_linear_175_1902" x1="51.5" y1="586" x2="51.5" y2="897.381" gradientUnits="userSpaceOnUse">
<stop stop-color="#F7DD43"/>
<stop offset="1" stop-color="#F7DD43" stop-opacity="0"/>
</linearGradient>
<linearGradient id="paint21_linear_175_1902" x1="51.5" y1="586" x2="51.5" y2="897.381" gradientUnits="userSpaceOnUse">
<stop stop-color="#F7DD43"/>
<stop offset="1" stop-color="#F7DD43" stop-opacity="0"/>
</linearGradient>
<linearGradient id="paint22_linear_175_1902" x1="51.5" y1="586" x2="51.5" y2="897.381" gradientUnits="userSpaceOnUse">
<stop stop-color="#F7DD43"/>
<stop offset="1" stop-color="#F7DD43" stop-opacity="0"/>
</linearGradient>
<linearGradient id="paint23_linear_175_1902" x1="51.5" y1="586" x2="51.5" y2="897.381" gradientUnits="userSpaceOnUse">
<stop stop-color="#F7DD43"/>
<stop offset="1" stop-color="#F7DD43" stop-opacity="0"/>
</linearGradient>
<linearGradient id="paint24_linear_175_1902" x1="51.5" y1="586" x2="51.5" y2="897.381" gradientUnits="userSpaceOnUse">
<stop stop-color="#F7DD43"/>
<stop offset="1" stop-color="#F7DD43" stop-opacity="0"/>
</linearGradient>
<linearGradient id="paint25_linear_175_1902" x1="51.5" y1="586" x2="51.5" y2="897.381" gradientUnits="userSpaceOnUse">
<stop stop-color="#F7DD43"/>
<stop offset="1" stop-color="#F7DD43" stop-opacity="0"/>
</linearGradient>
<linearGradient id="paint26_linear_175_1902" x1="51.5" y1="586" x2="51.5" y2="897.381" gradientUnits="userSpaceOnUse">
<stop stop-color="#F7DD43"/>
<stop offset="1" stop-color="#F7DD43" stop-opacity="0"/>
</linearGradient>
<linearGradient id="paint27_linear_175_1902" x1="51.5" y1="586" x2="51.5" y2="897.381" gradientUnits="userSpaceOnUse">
<stop stop-color="#F7DD43"/>
<stop offset="1" stop-color="#F7DD43" stop-opacity="0"/>
</linearGradient>
<linearGradient id="paint28_linear_175_1902" x1="51.5" y1="586" x2="51.5" y2="897.381" gradientUnits="userSpaceOnUse">
<stop stop-color="#F7DD43"/>
<stop offset="1" stop-color="#F7DD43" stop-opacity="0"/>
</linearGradient>
<linearGradient id="paint29_linear_175_1902" x1="51.5" y1="586" x2="51.5" y2="897.381" gradientUnits="userSpaceOnUse">
<stop stop-color="#F7DD43"/>
<stop offset="1" stop-color="#F7DD43" stop-opacity="0"/>
</linearGradient>
<linearGradient id="paint30_linear_175_1902" x1="51.5" y1="586" x2="51.5" y2="897.381" gradientUnits="userSpaceOnUse">
<stop stop-color="#F7DD43"/>
<stop offset="1" stop-color="#F7DD43" stop-opacity="0"/>
</linearGradient>
<linearGradient id="paint31_linear_175_1902" x1="51.5" y1="586" x2="51.5" y2="897.381" gradientUnits="userSpaceOnUse">
<stop stop-color="#F7DD43"/>
<stop offset="1" stop-color="#F7DD43" stop-opacity="0"/>
</linearGradient>
<linearGradient id="paint32_linear_175_1902" x1="51.5" y1="586" x2="51.5" y2="897.381" gradientUnits="userSpaceOnUse">
<stop stop-color="#F7DD43"/>
<stop offset="1" stop-color="#F7DD43" stop-opacity="0"/>
</linearGradient>
<linearGradient id="paint33_linear_175_1902" x1="51.5" y1="586" x2="51.5" y2="897.381" gradientUnits="userSpaceOnUse">
<stop stop-color="#F7DD43"/>
<stop offset="1" stop-color="#F7DD43" stop-opacity="0"/>
</linearGradient>
<linearGradient id="paint34_linear_175_1902" x1="51.5" y1="586" x2="51.5" y2="897.381" gradientUnits="userSpaceOnUse">
<stop stop-color="#F7DD43"/>
<stop offset="1" stop-color="#F7DD43" stop-opacity="0"/>
</linearGradient>
<linearGradient id="paint35_linear_175_1902" x1="51.5" y1="586" x2="51.5" y2="897.381" gradientUnits="userSpaceOnUse">
<stop stop-color="#F7DD43"/>
<stop offset="1" stop-color="#F7DD43" stop-opacity="0"/>
</linearGradient>
<linearGradient id="paint36_linear_175_1902" x1="51.5" y1="586" x2="51.5" y2="897.381" gradientUnits="userSpaceOnUse">
<stop stop-color="#F7DD43"/>
<stop offset="1" stop-color="#F7DD43" stop-opacity="0"/>
</linearGradient>
<linearGradient id="paint37_linear_175_1902" x1="51.5" y1="586" x2="51.5" y2="897.381" gradientUnits="userSpaceOnUse">
<stop stop-color="#F7DD43"/>
<stop offset="1" stop-color="#F7DD43" stop-opacity="0"/>
</linearGradient>
<linearGradient id="paint38_linear_175_1902" x1="51.5" y1="586" x2="51.5" y2="897.381" gradientUnits="userSpaceOnUse">
<stop stop-color="#F7DD43"/>
<stop offset="1" stop-color="#F7DD43" stop-opacity="0"/>
</linearGradient>
<linearGradient id="paint39_linear_175_1902" x1="51.5" y1="586" x2="51.5" y2="897.381" gradientUnits="userSpaceOnUse">
<stop stop-color="#F7DD43"/>
<stop offset="1" stop-color="#F7DD43" stop-opacity="0"/>
</linearGradient>
<linearGradient id="paint40_linear_175_1902" x1="51.5" y1="586" x2="51.5" y2="897.381" gradientUnits="userSpaceOnUse">
<stop stop-color="#F7DD43"/>
<stop offset="1" stop-color="#F7DD43" stop-opacity="0"/>
</linearGradient>
<linearGradient id="paint41_linear_175_1902" x1="51.5" y1="586" x2="51.5" y2="897.381" gradientUnits="userSpaceOnUse">
<stop stop-color="#F7DD43"/>
<stop offset="1" stop-color="#F7DD43" stop-opacity="0"/>
</linearGradient>
<linearGradient id="paint42_linear_175_1902" x1="51.5" y1="586" x2="51.5" y2="897.381" gradientUnits="userSpaceOnUse">
<stop stop-color="#F7DD43"/>
<stop offset="1" stop-color="#F7DD43" stop-opacity="0"/>
</linearGradient>
<linearGradient id="paint43_linear_175_1902" x1="51.5" y1="586" x2="51.5" y2="897.381" gradientUnits="userSpaceOnUse">
<stop stop-color="#F7DD43"/>
<stop offset="1" stop-color="#F7DD43" stop-opacity="0"/>
</linearGradient>
<linearGradient id="paint44_linear_175_1902" x1="51.5" y1="586" x2="51.5" y2="897.381" gradientUnits="userSpaceOnUse">
<stop stop-color="#F7DD43"/>
<stop offset="1" stop-color="#F7DD43" stop-opacity="0"/>
</linearGradient>
<linearGradient id="paint45_linear_175_1902" x1="51.5" y1="586" x2="51.5" y2="897.381" gradientUnits="userSpaceOnUse">
<stop stop-color="#F7DD43"/>
<stop offset="1" stop-color="#F7DD43" stop-opacity="0"/>
</linearGradient>
<linearGradient id="paint46_linear_175_1902" x1="51.5" y1="586" x2="51.5" y2="897.381" gradientUnits="userSpaceOnUse">
<stop stop-color="#F7DD43"/>
<stop offset="1" stop-color="#F7DD43" stop-opacity="0"/>
</linearGradient>
<linearGradient id="paint47_linear_175_1902" x1="937.5" y1="286" x2="937.5" y2="584.818" gradientUnits="userSpaceOnUse">
<stop stop-color="#F7DD43"/>
<stop offset="1" stop-color="#F7DD43" stop-opacity="0"/>
</linearGradient>
<linearGradient id="paint48_linear_175_1902" x1="937.5" y1="286" x2="937.5" y2="584.818" gradientUnits="userSpaceOnUse">
<stop stop-color="#F7DD43"/>
<stop offset="1" stop-color="#F7DD43" stop-opacity="0"/>
</linearGradient>
<linearGradient id="paint49_linear_175_1902" x1="937.5" y1="286" x2="937.5" y2="584.818" gradientUnits="userSpaceOnUse">
<stop stop-color="#F7DD43"/>
<stop offset="1" stop-color="#F7DD43" stop-opacity="0"/>
</linearGradient>
<linearGradient id="paint50_linear_175_1902" x1="937.5" y1="286" x2="937.5" y2="584.818" gradientUnits="userSpaceOnUse">
<stop stop-color="#F7DD43"/>
<stop offset="1" stop-color="#F7DD43" stop-opacity="0"/>
</linearGradient>
<linearGradient id="paint51_linear_175_1902" x1="937.5" y1="286" x2="937.5" y2="584.818" gradientUnits="userSpaceOnUse">
<stop stop-color="#F7DD43"/>
<stop offset="1" stop-color="#F7DD43" stop-opacity="0"/>
</linearGradient>
<linearGradient id="paint52_linear_175_1902" x1="937.5" y1="286" x2="937.5" y2="584.818" gradientUnits="userSpaceOnUse">
<stop stop-color="#F7DD43"/>
<stop offset="1" stop-color="#F7DD43" stop-opacity="0"/>
</linearGradient>
<linearGradient id="paint53_linear_175_1902" x1="937.5" y1="286" x2="937.5" y2="584.818" gradientUnits="userSpaceOnUse">
<stop stop-color="#F7DD43"/>
<stop offset="1" stop-color="#F7DD43" stop-opacity="0"/>
</linearGradient>
<linearGradient id="paint54_linear_175_1902" x1="937.5" y1="286" x2="937.5" y2="584.818" gradientUnits="userSpaceOnUse">
<stop stop-color="#F7DD43"/>
<stop offset="1" stop-color="#F7DD43" stop-opacity="0"/>
</linearGradient>
<linearGradient id="paint55_linear_175_1902" x1="937.5" y1="286" x2="937.5" y2="584.818" gradientUnits="userSpaceOnUse">
<stop stop-color="#F7DD43"/>
<stop offset="1" stop-color="#F7DD43" stop-opacity="0"/>
</linearGradient>
<linearGradient id="paint56_linear_175_1902" x1="937.5" y1="286" x2="937.5" y2="584.818" gradientUnits="userSpaceOnUse">
<stop stop-color="#F7DD43"/>
<stop offset="1" stop-color="#F7DD43" stop-opacity="0"/>
</linearGradient>
<linearGradient id="paint57_linear_175_1902" x1="937.5" y1="286" x2="937.5" y2="584.818" gradientUnits="userSpaceOnUse">
<stop stop-color="#F7DD43"/>
<stop offset="1" stop-color="#F7DD43" stop-opacity="0"/>
</linearGradient>
<linearGradient id="paint58_linear_175_1902" x1="937.5" y1="286" x2="937.5" y2="584.818" gradientUnits="userSpaceOnUse">
<stop stop-color="#F7DD43"/>
<stop offset="1" stop-color="#F7DD43" stop-opacity="0"/>
</linearGradient>
<linearGradient id="paint59_linear_175_1902" x1="937.5" y1="286" x2="937.5" y2="584.818" gradientUnits="userSpaceOnUse">
<stop stop-color="#F7DD43"/>
<stop offset="1" stop-color="#F7DD43" stop-opacity="0"/>
</linearGradient>
<linearGradient id="paint60_linear_175_1902" x1="937.5" y1="286" x2="937.5" y2="584.818" gradientUnits="userSpaceOnUse">
<stop stop-color="#F7DD43"/>
<stop offset="1" stop-color="#F7DD43" stop-opacity="0"/>
</linearGradient>
<linearGradient id="paint61_linear_175_1902" x1="937.5" y1="286" x2="937.5" y2="584.818" gradientUnits="userSpaceOnUse">
<stop stop-color="#F7DD43"/>
<stop offset="1" stop-color="#F7DD43" stop-opacity="0"/>
</linearGradient>
<linearGradient id="paint62_linear_175_1902" x1="937.5" y1="286" x2="937.5" y2="584.818" gradientUnits="userSpaceOnUse">
<stop stop-color="#F7DD43"/>
<stop offset="1" stop-color="#F7DD43" stop-opacity="0"/>
</linearGradient>
<linearGradient id="paint63_linear_175_1902" x1="937.5" y1="286" x2="937.5" y2="584.818" gradientUnits="userSpaceOnUse">
<stop stop-color="#F7DD43"/>
<stop offset="1" stop-color="#F7DD43" stop-opacity="0"/>
</linearGradient>
<linearGradient id="paint64_linear_175_1902" x1="937.5" y1="286" x2="937.5" y2="584.818" gradientUnits="userSpaceOnUse">
<stop stop-color="#F7DD43"/>
<stop offset="1" stop-color="#F7DD43" stop-opacity="0"/>
</linearGradient>
<linearGradient id="paint65_linear_175_1902" x1="937.5" y1="286" x2="937.5" y2="584.818" gradientUnits="userSpaceOnUse">
<stop stop-color="#F7DD43"/>
<stop offset="1" stop-color="#F7DD43" stop-opacity="0"/>
</linearGradient>
<linearGradient id="paint66_linear_175_1902" x1="937.5" y1="286" x2="937.5" y2="584.818" gradientUnits="userSpaceOnUse">
<stop stop-color="#F7DD43"/>
<stop offset="1" stop-color="#F7DD43" stop-opacity="0"/>
</linearGradient>
<linearGradient id="paint67_linear_175_1902" x1="937.5" y1="286" x2="937.5" y2="584.818" gradientUnits="userSpaceOnUse">
<stop stop-color="#F7DD43"/>
<stop offset="1" stop-color="#F7DD43" stop-opacity="0"/>
</linearGradient>
<linearGradient id="paint68_linear_175_1902" x1="937.5" y1="286" x2="937.5" y2="584.818" gradientUnits="userSpaceOnUse">
<stop stop-color="#F7DD43"/>
<stop offset="1" stop-color="#F7DD43" stop-opacity="0"/>
</linearGradient>
<linearGradient id="paint69_linear_175_1902" x1="937.5" y1="286" x2="937.5" y2="584.818" gradientUnits="userSpaceOnUse">
<stop stop-color="#F7DD43"/>
<stop offset="1" stop-color="#F7DD43" stop-opacity="0"/>
</linearGradient>
<linearGradient id="paint70_linear_175_1902" x1="937.5" y1="286" x2="937.5" y2="584.818" gradientUnits="userSpaceOnUse">
<stop stop-color="#F7DD43"/>
<stop offset="1" stop-color="#F7DD43" stop-opacity="0"/>
</linearGradient>
<linearGradient id="paint71_linear_175_1902" x1="937.5" y1="286" x2="937.5" y2="584.818" gradientUnits="userSpaceOnUse">
<stop stop-color="#F7DD43"/>
<stop offset="1" stop-color="#F7DD43" stop-opacity="0"/>
</linearGradient>
<linearGradient id="paint72_linear_175_1902" x1="937.5" y1="286" x2="937.5" y2="584.818" gradientUnits="userSpaceOnUse">
<stop stop-color="#F7DD43"/>
<stop offset="1" stop-color="#F7DD43" stop-opacity="0"/>
</linearGradient>
<linearGradient id="paint73_linear_175_1902" x1="937.5" y1="286" x2="937.5" y2="584.818" gradientUnits="userSpaceOnUse">
<stop stop-color="#F7DD43"/>
<stop offset="1" stop-color="#F7DD43" stop-opacity="0"/>
</linearGradient>
<linearGradient id="paint74_linear_175_1902" x1="937.5" y1="286" x2="937.5" y2="584.818" gradientUnits="userSpaceOnUse">
<stop stop-color="#F7DD43"/>
<stop offset="1" stop-color="#F7DD43" stop-opacity="0"/>
</linearGradient>
<linearGradient id="paint75_linear_175_1902" x1="937.5" y1="286" x2="937.5" y2="584.818" gradientUnits="userSpaceOnUse">
<stop stop-color="#F7DD43"/>
<stop offset="1" stop-color="#F7DD43" stop-opacity="0"/>
</linearGradient>
<linearGradient id="paint76_linear_175_1902" x1="937.5" y1="286" x2="937.5" y2="584.818" gradientUnits="userSpaceOnUse">
<stop stop-color="#F7DD43"/>
<stop offset="1" stop-color="#F7DD43" stop-opacity="0"/>
</linearGradient>
<linearGradient id="paint77_linear_175_1902" x1="937.5" y1="286" x2="937.5" y2="584.818" gradientUnits="userSpaceOnUse">
<stop stop-color="#F7DD43"/>
<stop offset="1" stop-color="#F7DD43" stop-opacity="0"/>
</linearGradient>
<linearGradient id="paint78_linear_175_1902" x1="937.5" y1="286" x2="937.5" y2="584.818" gradientUnits="userSpaceOnUse">
<stop stop-color="#F7DD43"/>
<stop offset="1" stop-color="#F7DD43" stop-opacity="0"/>
</linearGradient>
<linearGradient id="paint79_linear_175_1902" x1="937.5" y1="286" x2="937.5" y2="584.818" gradientUnits="userSpaceOnUse">
<stop stop-color="#F7DD43"/>
<stop offset="1" stop-color="#F7DD43" stop-opacity="0"/>
</linearGradient>
<linearGradient id="paint80_linear_175_1902" x1="937.5" y1="286" x2="937.5" y2="584.818" gradientUnits="userSpaceOnUse">
<stop stop-color="#F7DD43"/>
<stop offset="1" stop-color="#F7DD43" stop-opacity="0"/>
</linearGradient>
<linearGradient id="paint81_linear_175_1902" x1="937.5" y1="286" x2="937.5" y2="584.818" gradientUnits="userSpaceOnUse">
<stop stop-color="#F7DD43"/>
<stop offset="1" stop-color="#F7DD43" stop-opacity="0"/>
</linearGradient>
<linearGradient id="paint82_linear_175_1902" x1="937.5" y1="286" x2="937.5" y2="584.818" gradientUnits="userSpaceOnUse">
<stop stop-color="#F7DD43"/>
<stop offset="1" stop-color="#F7DD43" stop-opacity="0"/>
</linearGradient>
<linearGradient id="paint83_linear_175_1902" x1="937.5" y1="286" x2="937.5" y2="584.818" gradientUnits="userSpaceOnUse">
<stop stop-color="#F7DD43"/>
<stop offset="1" stop-color="#F7DD43" stop-opacity="0"/>
</linearGradient>
<linearGradient id="paint84_linear_175_1902" x1="937.5" y1="286" x2="937.5" y2="584.818" gradientUnits="userSpaceOnUse">
<stop stop-color="#F7DD43"/>
<stop offset="1" stop-color="#F7DD43" stop-opacity="0"/>
</linearGradient>
<linearGradient id="paint85_linear_175_1902" x1="937.5" y1="286" x2="937.5" y2="584.818" gradientUnits="userSpaceOnUse">
<stop stop-color="#F7DD43"/>
<stop offset="1" stop-color="#F7DD43" stop-opacity="0"/>
</linearGradient>
<linearGradient id="paint86_linear_175_1902" x1="937.5" y1="286" x2="937.5" y2="584.818" gradientUnits="userSpaceOnUse">
<stop stop-color="#F7DD43"/>
<stop offset="1" stop-color="#F7DD43" stop-opacity="0"/>
</linearGradient>
<linearGradient id="paint87_linear_175_1902" x1="937.5" y1="286" x2="937.5" y2="584.818" gradientUnits="userSpaceOnUse">
<stop stop-color="#F7DD43"/>
<stop offset="1" stop-color="#F7DD43" stop-opacity="0"/>
</linearGradient>
<linearGradient id="paint88_linear_175_1902" x1="937.5" y1="286" x2="937.5" y2="584.818" gradientUnits="userSpaceOnUse">
<stop stop-color="#F7DD43"/>
<stop offset="1" stop-color="#F7DD43" stop-opacity="0"/>
</linearGradient>
<linearGradient id="paint89_linear_175_1902" x1="937.5" y1="286" x2="937.5" y2="584.818" gradientUnits="userSpaceOnUse">
<stop stop-color="#F7DD43"/>
<stop offset="1" stop-color="#F7DD43" stop-opacity="0"/>
</linearGradient>
<linearGradient id="paint90_linear_175_1902" x1="937.5" y1="286" x2="937.5" y2="584.818" gradientUnits="userSpaceOnUse">
<stop stop-color="#F7DD43"/>
<stop offset="1" stop-color="#F7DD43" stop-opacity="0"/>
</linearGradient>
<linearGradient id="paint91_linear_175_1902" x1="937.5" y1="286" x2="937.5" y2="584.818" gradientUnits="userSpaceOnUse">
<stop stop-color="#F7DD43"/>
<stop offset="1" stop-color="#F7DD43" stop-opacity="0"/>
</linearGradient>
<linearGradient id="paint92_linear_175_1902" x1="937.5" y1="286" x2="937.5" y2="584.818" gradientUnits="userSpaceOnUse">
<stop stop-color="#F7DD43"/>
<stop offset="1" stop-color="#F7DD43" stop-opacity="0"/>
</linearGradient>
<linearGradient id="paint93_linear_175_1902" x1="937.5" y1="286" x2="937.5" y2="584.818" gradientUnits="userSpaceOnUse">
<stop stop-color="#F7DD43"/>
<stop offset="1" stop-color="#F7DD43" stop-opacity="0"/>
</linearGradient>
</defs>
</svg>
